Mayek_Rounded-SemiBold.ufo
<glyph name="exclam" format="1">
  <advance width="322"/>
  <unicode hex="0021"/>
  <outline>
    <contour>
      <point x="203" y="208"/>
      <point x="220" y="229"/>
      <point x="220" y="256" type="curve" smooth="yes"/>
      <point x="220" y="562" type="line" smooth="yes"/>
      <point x="220" y="589"/>
      <point x="202" y="610"/>
      <point x="179" y="610" type="curve" smooth="yes"/>
      <point x="156" y="610"/>
      <point x="139" y="589"/>
      <point x="139" y="562" type="curve" smooth="yes"/>
      <point x="139" y="256" type="line" smooth="yes"/>
      <point x="139" y="229"/>
      <point x="156" y="208"/>
      <point x="179" y="208" type="curve" smooth="yes"/>
    </contour>
    <contour>
      <point x="204" y="32"/>
      <point x="233" y="47"/>
      <point x="233" y="83" type="curve" smooth="yes"/>
      <point x="233" y="111"/>
      <point x="211" y="139"/>
      <point x="178" y="139" type="curve" smooth="yes"/>
      <point x="150" y="139"/>
      <point x="126" y="118"/>
      <point x="126" y="88" type="curve" smooth="yes"/>
      <point x="126" y="56"/>
      <point x="152" y="32"/>
      <point x="181" y="32" type="curve" smooth="yes"/>
    </contour>
  </outline>
</glyph>
<glyph name="quotesingle" format="1">
  <advance width="300"/>
  <unicode hex="0027"/>
  <outline>
    <contour>
      <point x="212" y="486"/>
      <point x="229" y="506"/>
      <point x="229" y="534" type="curve" smooth="yes"/>
      <point x="229" y="596" type="line" smooth="yes"/>
      <point x="229" y="623"/>
      <point x="211" y="644"/>
      <point x="188" y="644" type="curve" smooth="yes"/>
      <point x="165" y="644"/>
      <point x="148" y="623"/>
      <point x="148" y="596" type="curve" smooth="yes"/>
      <point x="148" y="534" type="line" smooth="yes"/>
      <point x="148" y="506"/>
      <point x="165" y="486"/>
      <point x="188" y="486" type="curve" smooth="yes"/>
    </contour>
  </outline>
</glyph>
<glyph name="parenleft" format="1">
  <advance width="322"/>
  <unicode hex="0028"/>
  <outline>
    <contour>
      <point x="209" y="-82"/>
      <point x="219" y="-67"/>
      <point x="219" y="-51" type="curve" smooth="yes"/>
      <point x="219" y="6"/>
      <point x="136" y="83"/>
      <point x="136" y="289" type="curve" smooth="yes"/>
      <point x="136" y="475"/>
      <point x="221" y="600"/>
      <point x="221" y="646" type="curve" smooth="yes"/>
      <point x="221" y="657"/>
      <point x="215" y="677"/>
      <point x="190" y="677" type="curve" smooth="yes"/>
      <point x="168" y="677"/>
      <point x="151" y="658"/>
      <point x="139" y="629" type="curve" smooth="yes"/>
      <point x="94" y="524"/>
      <point x="55" y="430"/>
      <point x="55" y="297" type="curve" smooth="yes"/>
      <point x="55" y="145"/>
      <point x="105" y="34"/>
      <point x="133" y="-30" type="curve" smooth="yes"/>
      <point x="151" y="-69"/>
      <point x="169" y="-82"/>
      <point x="188" y="-82" type="curve" smooth="yes"/>
    </contour>
  </outline>
</glyph>
<glyph name="parenright" format="1">
  <advance width="322"/>
  <unicode hex="0029"/>
  <outline>
    <contour>
      <point x="162" y="-82"/>
      <point x="181" y="-69"/>
      <point x="199" y="-30" type="curve" smooth="yes"/>
      <point x="227" y="34"/>
      <point x="276" y="145"/>
      <point x="276" y="297" type="curve" smooth="yes"/>
      <point x="276" y="430"/>
      <point x="237" y="524"/>
      <point x="192" y="629" type="curve" smooth="yes"/>
      <point x="180" y="658"/>
      <point x="164" y="677"/>
      <point x="141" y="677" type="curve" smooth="yes"/>
      <point x="116" y="677"/>
      <point x="110" y="657"/>
      <point x="110" y="646" type="curve" smooth="yes"/>
      <point x="110" y="600"/>
      <point x="195" y="475"/>
      <point x="195" y="289" type="curve" smooth="yes"/>
      <point x="195" y="83"/>
      <point x="112" y="6"/>
      <point x="112" y="-51" type="curve" smooth="yes"/>
      <point x="112" y="-67"/>
      <point x="122" y="-82"/>
      <point x="143" y="-82" type="curve" smooth="yes"/>
    </contour>
  </outline>
</glyph>
<glyph name="comma" format="1">
  <advance width="200"/>
  <unicode hex="002C"/>
  <outline>
    <contour>
      <point x="132" y="-130"/>
      <point x="191" y="-75"/>
      <point x="191" y="-5" type="curve" smooth="yes"/>
      <point x="191" y="54"/>
      <point x="148" y="92"/>
      <point x="103" y="92" type="curve" smooth="yes"/>
      <point x="67" y="92"/>
      <point x="42" y="68"/>
      <point x="42" y="37" type="curve" smooth="yes"/>
      <point x="42" y="6"/>
      <point x="67" y="-18"/>
      <point x="97" y="-18" type="curve" smooth="yes"/>
      <point x="123" y="-18"/>
      <point x="149" y="-1"/>
      <point x="149" y="32" type="curve"/>
      <point x="109" y="26" type="line"/>
      <point x="127" y="14"/>
      <point x="133" y="2"/>
      <point x="133" y="-15" type="curve" smooth="yes"/>
      <point x="133" y="-49"/>
      <point x="109" y="-65"/>
      <point x="78" y="-80" type="curve" smooth="yes"/>
      <point x="66" y="-87"/>
      <point x="54" y="-94"/>
      <point x="54" y="-107" type="curve" smooth="yes"/>
      <point x="54" y="-119"/>
      <point x="61" y="-130"/>
      <point x="80" y="-130" type="curve" smooth="yes"/>
    </contour>
  </outline>
</glyph>
<glyph name="hyphen" format="1">
  <advance width="378"/>
  <unicode hex="002D"/>
  <outline>
    <contour>
      <point x="311" y="238" type="line" smooth="yes"/>
      <point x="333" y="238"/>
      <point x="350" y="253"/>
      <point x="350" y="274" type="curve" smooth="yes"/>
      <point x="350" y="294"/>
      <point x="333" y="310"/>
      <point x="311" y="310" type="curve" smooth="yes"/>
      <point x="68" y="310" type="line" smooth="yes"/>
      <point x="45" y="310"/>
      <point x="28" y="294"/>
      <point x="28" y="274" type="curve" smooth="yes"/>
      <point x="28" y="254"/>
      <point x="45" y="238"/>
      <point x="68" y="238" type="curve" smooth="yes"/>
    </contour>
  </outline>
</glyph>
<glyph name="period" format="1">
  <advance width="200"/>
  <unicode hex="002E"/>
  <outline>
    <contour>
      <point x="134" y="-12"/>
      <point x="162" y="3"/>
      <point x="162" y="38" type="curve" smooth="yes"/>
      <point x="162" y="66"/>
      <point x="141" y="93"/>
      <point x="108" y="93" type="curve" smooth="yes"/>
      <point x="81" y="93"/>
      <point x="57" y="72"/>
      <point x="57" y="43" type="curve" smooth="yes"/>
      <point x="57" y="11"/>
      <point x="82" y="-12"/>
      <point x="111" y="-12" type="curve" smooth="yes"/>
    </contour>
  </outline>
</glyph>
<glyph name="colon" format="1">
  <advance width="200"/>
  <unicode hex="003A"/>
  <outline>
    <contour>
      <point x="143" y="57"/>
      <point x="172" y="72"/>
      <point x="172" y="108" type="curve" smooth="yes"/>
      <point x="172" y="136"/>
      <point x="150" y="164"/>
      <point x="117" y="164" type="curve" smooth="yes"/>
      <point x="89" y="164"/>
      <point x="65" y="143"/>
      <point x="65" y="113" type="curve" smooth="yes"/>
      <point x="65" y="81"/>
      <point x="91" y="57"/>
      <point x="120" y="57" type="curve" smooth="yes"/>
    </contour>
    <contour>
      <point x="143" y="336"/>
      <point x="172" y="351"/>
      <point x="172" y="387" type="curve" smooth="yes"/>
      <point x="172" y="415"/>
      <point x="150" y="443"/>
      <point x="117" y="443" type="curve" smooth="yes"/>
      <point x="89" y="443"/>
      <point x="65" y="422"/>
      <point x="65" y="391" type="curve" smooth="yes"/>
      <point x="65" y="360"/>
      <point x="91" y="336"/>
      <point x="120" y="336" type="curve" smooth="yes"/>
    </contour>
  </outline>
</glyph>
<glyph name="semicolon" format="1">
  <advance width="170"/>
  <unicode hex="003B"/>
  <outline>
    <contour>
      <point x="138" y="152"/>
      <point x="167" y="167"/>
      <point x="167" y="203" type="curve" smooth="yes"/>
      <point x="167" y="231"/>
      <point x="145" y="259"/>
      <point x="112" y="259" type="curve" smooth="yes"/>
      <point x="84" y="259"/>
      <point x="60" y="238"/>
      <point x="60" y="208" type="curve" smooth="yes"/>
      <point x="60" y="176"/>
      <point x="86" y="152"/>
      <point x="115" y="152" type="curve" smooth="yes"/>
    </contour>
    <component base="comma" xOffset="3"/>
  </outline>
</glyph>
<glyph name="question" format="1">
  <advance width="400"/>
  <unicode hex="003F"/>
  <outline>
    <contour>
      <point x="235" y="137"/>
      <point x="248" y="163"/>
      <point x="249" y="190" type="curve" smooth="yes"/>
      <point x="250" y="231" type="line" smooth="yes"/>
      <point x="251" y="255"/>
      <point x="259" y="282"/>
      <point x="300" y="317" type="curve" smooth="yes"/>
      <point x="344" y="357"/>
      <point x="393" y="389"/>
      <point x="393" y="462" type="curve" smooth="yes"/>
      <point x="393" y="542"/>
      <point x="333" y="604"/>
      <point x="238" y="604" type="curve" smooth="yes"/>
      <point x="145" y="604"/>
      <point x="78" y="546"/>
      <point x="78" y="474" type="curve" smooth="yes"/>
      <point x="78" y="415"/>
      <point x="129" y="377"/>
      <point x="172" y="377" type="curve" smooth="yes"/>
      <point x="194" y="377"/>
      <point x="213" y="389"/>
      <point x="213" y="412" type="curve" smooth="yes"/>
      <point x="213" y="427"/>
      <point x="205" y="433"/>
      <point x="196" y="439" type="curve" smooth="yes"/>
      <point x="180" y="446"/>
      <point x="162" y="454"/>
      <point x="162" y="481" type="curve" smooth="yes"/>
      <point x="162" y="516"/>
      <point x="197" y="535"/>
      <point x="240" y="535" type="curve" smooth="yes"/>
      <point x="282" y="535"/>
      <point x="319" y="508"/>
      <point x="319" y="468" type="curve" smooth="yes"/>
      <point x="319" y="424"/>
      <point x="280" y="398"/>
      <point x="235" y="358" type="curve" smooth="yes"/>
      <point x="175" y="312"/>
      <point x="163" y="280"/>
      <point x="163" y="230" type="curve" smooth="yes"/>
      <point x="163" y="191" type="line" smooth="yes"/>
      <point x="163" y="161"/>
      <point x="178" y="137"/>
      <point x="207" y="137" type="curve" smooth="yes"/>
    </contour>
    <contour>
      <point x="235" y="-11"/>
      <point x="264" y="5"/>
      <point x="264" y="38" type="curve" smooth="yes"/>
      <point x="264" y="69"/>
      <point x="242" y="95"/>
      <point x="209" y="95" type="curve" smooth="yes"/>
      <point x="181" y="95"/>
      <point x="157" y="74"/>
      <point x="157" y="44" type="curve" smooth="yes"/>
      <point x="157" y="13"/>
      <point x="183" y="-11"/>
      <point x="212" y="-11" type="curve" smooth="yes"/>
    </contour>
  </outline>
</glyph>
<glyph name="bracketleft" format="1">
  <advance width="300"/>
  <unicode hex="005B"/>
  <outline>
    <contour>
      <point x="98" y="-77"/>
      <point x="115" y="-56"/>
      <point x="115" y="-29" type="curve" smooth="yes"/>
      <point x="115" y="626" type="line" smooth="yes"/>
      <point x="115" y="653"/>
      <point x="97" y="674"/>
      <point x="74" y="674" type="curve" smooth="yes"/>
      <point x="51" y="674"/>
      <point x="34" y="653"/>
      <point x="34" y="626" type="curve" smooth="yes"/>
      <point x="34" y="-29" type="line" smooth="yes"/>
      <point x="34" y="-56"/>
      <point x="51" y="-77"/>
      <point x="74" y="-77" type="curve" smooth="yes"/>
    </contour>
    <contour>
      <point x="74" y="602" type="line"/>
      <point x="166" y="602" type="line" smooth="yes"/>
      <point x="188" y="602"/>
      <point x="205" y="618"/>
      <point x="205" y="639" type="curve" smooth="yes"/>
      <point x="205" y="659"/>
      <point x="188" y="674"/>
      <point x="166" y="674" type="curve" smooth="yes"/>
      <point x="74" y="674" type="line"/>
    </contour>
    <contour>
      <point x="74" y="-77" type="line"/>
      <point x="166" y="-77" type="line" smooth="yes"/>
      <point x="188" y="-77"/>
      <point x="205" y="-62"/>
      <point x="205" y="-41" type="curve" smooth="yes"/>
      <point x="205" y="-20"/>
      <point x="188" y="-5"/>
      <point x="166" y="-5" type="curve" smooth="yes"/>
      <point x="74" y="-5" type="line"/>
    </contour>
  </outline>
</glyph>
<glyph name="bracketright" format="1">
  <advance width="300"/>
  <unicode hex="005D"/>
  <outline>
    <contour>
      <point x="249" y="-77"/>
      <point x="266" y="-56"/>
      <point x="266" y="-29" type="curve" smooth="yes"/>
      <point x="266" y="626" type="line" smooth="yes"/>
      <point x="266" y="653"/>
      <point x="249" y="674"/>
      <point x="226" y="674" type="curve" smooth="yes"/>
      <point x="203" y="674"/>
      <point x="185" y="653"/>
      <point x="185" y="626" type="curve" smooth="yes"/>
      <point x="185" y="-29" type="line" smooth="yes"/>
      <point x="185" y="-56"/>
      <point x="203" y="-77"/>
      <point x="226" y="-77" type="curve" smooth="yes"/>
    </contour>
    <contour>
      <point x="135" y="674" type="line" smooth="yes"/>
      <point x="112" y="674"/>
      <point x="95" y="659"/>
      <point x="95" y="639" type="curve" smooth="yes"/>
      <point x="95" y="618"/>
      <point x="112" y="602"/>
      <point x="135" y="602" type="curve" smooth="yes"/>
      <point x="226" y="602" type="line"/>
      <point x="226" y="674" type="line"/>
    </contour>
    <contour>
      <point x="135" y="-5" type="line" smooth="yes"/>
      <point x="112" y="-5"/>
      <point x="95" y="-20"/>
      <point x="95" y="-41" type="curve" smooth="yes"/>
      <point x="95" y="-62"/>
      <point x="112" y="-77"/>
      <point x="135" y="-77" type="curve" smooth="yes"/>
      <point x="226" y="-77" type="line"/>
      <point x="226" y="-5" type="line"/>
    </contour>
  </outline>
</glyph>
<glyph name="quoteleft" format="1">
  <advance width="300"/>
  <unicode hex="2018"/>
  <outline>
    <contour>
      <point x="182" y="486"/>
      <point x="189" y="497"/>
      <point x="189" y="509" type="curve" smooth="yes"/>
      <point x="189" y="522"/>
      <point x="177" y="529"/>
      <point x="165" y="536" type="curve" smooth="yes"/>
      <point x="134" y="551"/>
      <point x="110" y="567"/>
      <point x="110" y="601" type="curve" smooth="yes"/>
      <point x="110" y="618"/>
      <point x="115" y="630"/>
      <point x="134" y="642" type="curve"/>
      <point x="94" y="648" type="line"/>
      <point x="94" y="615"/>
      <point x="120" y="598"/>
      <point x="145" y="598" type="curve" smooth="yes"/>
      <point x="176" y="598"/>
      <point x="201" y="622"/>
      <point x="201" y="653" type="curve" smooth="yes"/>
      <point x="201" y="683"/>
      <point x="176" y="707"/>
      <point x="140" y="707" type="curve" smooth="yes"/>
      <point x="95" y="707"/>
      <point x="52" y="669"/>
      <point x="52" y="611" type="curve" smooth="yes"/>
      <point x="52" y="541"/>
      <point x="110" y="486"/>
      <point x="162" y="486" type="curve" smooth="yes"/>
    </contour>
  </outline>
</glyph>
<glyph name="quoteright" format="1">
  <advance width="300"/>
  <unicode hex="2019"/>
  <outline>
    <contour>
      <point x="191" y="486"/>
      <point x="250" y="541"/>
      <point x="250" y="611" type="curve" smooth="yes"/>
      <point x="250" y="669"/>
      <point x="207" y="707"/>
      <point x="162" y="707" type="curve" smooth="yes"/>
      <point x="126" y="707"/>
      <point x="101" y="683"/>
      <point x="101" y="653" type="curve" smooth="yes"/>
      <point x="101" y="622"/>
      <point x="126" y="598"/>
      <point x="156" y="598" type="curve" smooth="yes"/>
      <point x="182" y="598"/>
      <point x="208" y="615"/>
      <point x="208" y="648" type="curve"/>
      <point x="168" y="642" type="line"/>
      <point x="186" y="630"/>
      <point x="192" y="618"/>
      <point x="192" y="601" type="curve" smooth="yes"/>
      <point x="192" y="567"/>
      <point x="168" y="551"/>
      <point x="137" y="536" type="curve" smooth="yes"/>
      <point x="125" y="529"/>
      <point x="113" y="522"/>
      <point x="113" y="509" type="curve" smooth="yes"/>
      <point x="113" y="497"/>
      <point x="120" y="486"/>
      <point x="139" y="486" type="curve" smooth="yes"/>
    </contour>
  </outline>
</glyph>
<glyph name="ellipsis" format="1">
  <advance width="500"/>
  <unicode hex="2026"/>
  <outline>
    <contour>
      <point x="119" y="-12"/>
      <point x="147" y="3"/>
      <point x="147" y="38" type="curve" smooth="yes"/>
      <point x="147" y="66"/>
      <point x="126" y="93"/>
      <point x="93" y="93" type="curve" smooth="yes"/>
      <point x="66" y="93"/>
      <point x="42" y="72"/>
      <point x="42" y="43" type="curve" smooth="yes"/>
      <point x="42" y="11"/>
      <point x="67" y="-12"/>
      <point x="96" y="-12" type="curve" smooth="yes"/>
    </contour>
    <contour>
      <point x="274" y="-12"/>
      <point x="302" y="3"/>
      <point x="302" y="38" type="curve" smooth="yes"/>
      <point x="302" y="66"/>
      <point x="281" y="93"/>
      <point x="248" y="93" type="curve" smooth="yes"/>
      <point x="221" y="93"/>
      <point x="197" y="72"/>
      <point x="197" y="43" type="curve" smooth="yes"/>
      <point x="197" y="11"/>
      <point x="222" y="-12"/>
      <point x="251" y="-12" type="curve" smooth="yes"/>
    </contour>
    <contour>
      <point x="427" y="-12"/>
      <point x="455" y="3"/>
      <point x="455" y="38" type="curve" smooth="yes"/>
      <point x="455" y="66"/>
      <point x="434" y="93"/>
      <point x="401" y="93" type="curve" smooth="yes"/>
      <point x="374" y="93"/>
      <point x="350" y="72"/>
      <point x="350" y="43" type="curve" smooth="yes"/>
      <point x="350" y="11"/>
      <point x="375" y="-12"/>
      <point x="404" y="-12" type="curve" smooth="yes"/>
    </contour>
  </outline>
</glyph>
<glyph name="BASE" format="1">
  <advance width="623"/>
  <outline>
    <contour>
      <point x="311" y="451" type="curve" smooth="yes"/>
      <point x="338" y="451"/>
      <point x="356" y="469"/>
      <point x="356" y="497" type="curve" smooth="yes"/>
      <point x="356" y="526"/>
      <point x="336" y="542"/>
      <point x="311" y="542" type="curve" smooth="yes"/>
      <point x="288" y="542"/>
      <point x="269" y="526"/>
      <point x="269" y="497" type="curve" smooth="yes"/>
      <point x="269" y="469"/>
      <point x="288" y="451"/>
    </contour>
    <contour>
      <point x="311" y="-18" type="curve" smooth="yes"/>
      <point x="338" y="-18"/>
      <point x="356" y="-1"/>
      <point x="356" y="30" type="curve" smooth="yes"/>
      <point x="356" y="58"/>
      <point x="336" y="73"/>
      <point x="311" y="73" type="curve" smooth="yes"/>
      <point x="288" y="73"/>
      <point x="269" y="58"/>
      <point x="269" y="30" type="curve" smooth="yes"/>
      <point x="269" y="-1"/>
      <point x="288" y="-18"/>
    </contour>
    <contour>
      <point x="537" y="216" type="curve" smooth="yes"/>
      <point x="564" y="216"/>
      <point x="582" y="234"/>
      <point x="582" y="263" type="curve" smooth="yes"/>
      <point x="582" y="292"/>
      <point x="561" y="308"/>
      <point x="537" y="308" type="curve" smooth="yes"/>
      <point x="514" y="308"/>
      <point x="495" y="292"/>
      <point x="495" y="263" type="curve" smooth="yes"/>
      <point x="495" y="234"/>
      <point x="514" y="216"/>
    </contour>
    <contour>
      <point x="84" y="216" type="curve" smooth="yes"/>
      <point x="111" y="216"/>
      <point x="129" y="234"/>
      <point x="129" y="263" type="curve" smooth="yes"/>
      <point x="129" y="292"/>
      <point x="109" y="308"/>
      <point x="84" y="308" type="curve" smooth="yes"/>
      <point x="61" y="308"/>
      <point x="42" y="292"/>
      <point x="42" y="263" type="curve" smooth="yes"/>
      <point x="42" y="234"/>
      <point x="61" y="216"/>
    </contour>
    <contour>
      <point x="197" y="422" type="curve" smooth="yes"/>
      <point x="224" y="422"/>
      <point x="242" y="440"/>
      <point x="242" y="468" type="curve" smooth="yes"/>
      <point x="242" y="498"/>
      <point x="222" y="513"/>
      <point x="197" y="513" type="curve" smooth="yes"/>
      <point x="174" y="513"/>
      <point x="155" y="498"/>
      <point x="155" y="468" type="curve" smooth="yes"/>
      <point x="155" y="440"/>
      <point x="174" y="422"/>
    </contour>
    <contour>
      <point x="114" y="335" type="curve" smooth="yes"/>
      <point x="141" y="335"/>
      <point x="159" y="353"/>
      <point x="159" y="381" type="curve" smooth="yes"/>
      <point x="159" y="411"/>
      <point x="139" y="426"/>
      <point x="114" y="426" type="curve" smooth="yes"/>
      <point x="91" y="426"/>
      <point x="72" y="411"/>
      <point x="72" y="381" type="curve" smooth="yes"/>
      <point x="72" y="353"/>
      <point x="91" y="335"/>
    </contour>
    <contour>
      <point x="114" y="99" type="curve" smooth="yes"/>
      <point x="141" y="99"/>
      <point x="159" y="117"/>
      <point x="159" y="146" type="curve" smooth="yes"/>
      <point x="159" y="175"/>
      <point x="139" y="191"/>
      <point x="114" y="191" type="curve" smooth="yes"/>
      <point x="91" y="191"/>
      <point x="72" y="175"/>
      <point x="72" y="146" type="curve" smooth="yes"/>
      <point x="72" y="117"/>
      <point x="91" y="99"/>
    </contour>
    <contour>
      <point x="197" y="12" type="curve" smooth="yes"/>
      <point x="224" y="12"/>
      <point x="242" y="30"/>
      <point x="242" y="60" type="curve" smooth="yes"/>
      <point x="242" y="88"/>
      <point x="222" y="103"/>
      <point x="197" y="103" type="curve" smooth="yes"/>
      <point x="174" y="103"/>
      <point x="155" y="88"/>
      <point x="155" y="60" type="curve" smooth="yes"/>
      <point x="155" y="30"/>
      <point x="174" y="12"/>
    </contour>
    <contour>
      <point x="424" y="12" type="curve" smooth="yes"/>
      <point x="451" y="12"/>
      <point x="469" y="30"/>
      <point x="469" y="60" type="curve" smooth="yes"/>
      <point x="469" y="88"/>
      <point x="449" y="103"/>
      <point x="424" y="103" type="curve" smooth="yes"/>
      <point x="401" y="103"/>
      <point x="382" y="88"/>
      <point x="382" y="60" type="curve" smooth="yes"/>
      <point x="382" y="30"/>
      <point x="401" y="12"/>
    </contour>
    <contour>
      <point x="508" y="99" type="curve" smooth="yes"/>
      <point x="535" y="99"/>
      <point x="553" y="117"/>
      <point x="553" y="146" type="curve" smooth="yes"/>
      <point x="553" y="175"/>
      <point x="533" y="191"/>
      <point x="508" y="191" type="curve" smooth="yes"/>
      <point x="485" y="191"/>
      <point x="466" y="175"/>
      <point x="466" y="146" type="curve" smooth="yes"/>
      <point x="466" y="117"/>
      <point x="485" y="99"/>
    </contour>
    <contour>
      <point x="424" y="421" type="curve" smooth="yes"/>
      <point x="451" y="421"/>
      <point x="469" y="439"/>
      <point x="469" y="467" type="curve" smooth="yes"/>
      <point x="469" y="496"/>
      <point x="449" y="512"/>
      <point x="424" y="512" type="curve" smooth="yes"/>
      <point x="401" y="512"/>
      <point x="382" y="496"/>
      <point x="382" y="467" type="curve" smooth="yes"/>
      <point x="382" y="439"/>
      <point x="401" y="421"/>
    </contour>
    <contour>
      <point x="508" y="334" type="curve" smooth="yes"/>
      <point x="535" y="334"/>
      <point x="553" y="351"/>
      <point x="553" y="380" type="curve" smooth="yes"/>
      <point x="553" y="409"/>
      <point x="533" y="425"/>
      <point x="508" y="425" type="curve" smooth="yes"/>
      <point x="485" y="425"/>
      <point x="466" y="409"/>
      <point x="466" y="380" type="curve" smooth="yes"/>
      <point x="466" y="351"/>
      <point x="485" y="334"/>
    </contour>
  </outline>
</glyph>
<glyph name="Danda" format="1">
  <advance width="322"/>
  <outline>
    <contour>
      <point x="235" y="-12"/>
      <point x="252" y="9"/>
      <point x="252" y="36" type="curve" smooth="yes"/>
      <point x="252" y="601" type="line" smooth="yes"/>
      <point x="252" y="628"/>
      <point x="234" y="649"/>
      <point x="211" y="649" type="curve" smooth="yes"/>
      <point x="188" y="649"/>
      <point x="171" y="628"/>
      <point x="171" y="601" type="curve" smooth="yes"/>
      <point x="171" y="36" type="line" smooth="yes"/>
      <point x="171" y="9"/>
      <point x="188" y="-12"/>
      <point x="211" y="-12" type="curve" smooth="yes"/>
    </contour>
  </outline>
</glyph>
<glyph name="ZWJ" format="1">
  <advance width="0"/>
  <outline>
    <contour>
      <point x="0" y="720" type="line" smooth="yes"/>
      <point x="0" y="789"/>
      <point x="23" y="841"/>
      <point x="101" y="841" type="curve" smooth="yes"/>
      <point x="192" y="841" type="line" smooth="yes"/>
      <point x="214" y="841"/>
      <point x="232" y="826"/>
      <point x="232" y="805" type="curve" smooth="yes"/>
      <point x="232" y="785"/>
      <point x="214" y="769"/>
      <point x="192" y="769" type="curve" smooth="yes"/>
      <point x="124" y="769" type="line" smooth="yes"/>
      <point x="88" y="769"/>
      <point x="81" y="754"/>
      <point x="81" y="720" type="curve" smooth="yes"/>
      <point x="81" y="-201" type="line" smooth="yes"/>
      <point x="81" y="-226"/>
      <point x="62" y="-243"/>
      <point x="41" y="-243" type="curve" smooth="yes"/>
      <point x="18" y="-243"/>
      <point x="0" y="-224"/>
      <point x="0" y="-201" type="curve" smooth="yes"/>
    </contour>
  </outline>
</glyph>
<glyph name="ZWNJ" format="1">
  <advance width="0"/>
  <outline>
    <contour>
      <point x="0" y="799" type="line" smooth="yes"/>
      <point x="0" y="822"/>
      <point x="16" y="841"/>
      <point x="41" y="841" type="curve" smooth="yes"/>
      <point x="65" y="841"/>
      <point x="81" y="821"/>
      <point x="81" y="798" type="curve" smooth="yes"/>
      <point x="81" y="-201" type="line" smooth="yes"/>
      <point x="81" y="-226"/>
      <point x="65" y="-243"/>
      <point x="41" y="-243" type="curve" smooth="yes"/>
      <point x="16" y="-243"/>
      <point x="0" y="-224"/>
      <point x="0" y="-201" type="curve" smooth="yes"/>
    </contour>
  </outline>
</glyph>
<glyph name="bA" format="1">
  <advance width="732"/>
  <outline>
    <contour>
      <point x="639" y="-11"/>
      <point x="657" y="10"/>
      <point x="657" y="37" type="curve" smooth="yes"/>
      <point x="657" y="444" type="line" smooth="yes"/>
      <point x="657" y="504"/>
      <point x="659" y="515"/>
      <point x="693" y="515" type="curve" smooth="yes"/>
      <point x="732" y="515" type="line" smooth="yes"/>
      <point x="754" y="515"/>
      <point x="771" y="530"/>
      <point x="771" y="552" type="curve" smooth="yes"/>
      <point x="771" y="572"/>
      <point x="754" y="587"/>
      <point x="732" y="587" type="curve" smooth="yes"/>
      <point x="673" y="587" type="line" smooth="yes"/>
      <point x="623" y="587"/>
      <point x="588" y="560"/>
      <point x="588" y="501" type="curve"/>
      <point x="609" y="505" type="line"/>
      <point x="609" y="562"/>
      <point x="573" y="587"/>
      <point x="518" y="587" type="curve" smooth="yes"/>
      <point x="-1" y="587" type="line" smooth="yes"/>
      <point x="-23" y="587"/>
      <point x="-40" y="572"/>
      <point x="-40" y="552" type="curve" smooth="yes"/>
      <point x="-40" y="530"/>
      <point x="-23" y="515"/>
      <point x="-1" y="515" type="curve" smooth="yes"/>
      <point x="508" y="515" type="line" smooth="yes"/>
      <point x="562" y="515"/>
      <point x="576" y="496"/>
      <point x="576" y="450" type="curve" smooth="yes"/>
      <point x="576" y="37" type="line" smooth="yes"/>
      <point x="576" y="10"/>
      <point x="593" y="-11"/>
      <point x="616" y="-11" type="curve" smooth="yes"/>
    </contour>
    <contour>
      <point x="433" y="71"/>
      <point x="514" y="161"/>
      <point x="514" y="275" type="curve" smooth="yes"/>
      <point x="514" y="393"/>
      <point x="425" y="478"/>
      <point x="319" y="478" type="curve" smooth="yes"/>
      <point x="247" y="478"/>
      <point x="194" y="436"/>
      <point x="194" y="369" type="curve" smooth="yes"/>
      <point x="194" y="308"/>
      <point x="240" y="262"/>
      <point x="302" y="262" type="curve" smooth="yes"/>
      <point x="366" y="262"/>
      <point x="400" y="311"/>
      <point x="400" y="359" type="curve" smooth="yes"/>
      <point x="400" y="413"/>
      <point x="364" y="449"/>
      <point x="308" y="450" type="curve"/>
      <point x="321" y="418" type="line"/>
      <point x="368" y="418"/>
      <point x="437" y="386"/>
      <point x="437" y="299" type="curve" smooth="yes"/>
      <point x="437" y="227"/>
      <point x="387" y="169"/>
      <point x="306" y="169" type="curve" smooth="yes"/>
      <point x="181" y="169"/>
      <point x="126" y="306"/>
      <point x="86" y="419" type="curve" smooth="yes"/>
      <point x="78" y="443"/>
      <point x="67" y="454"/>
      <point x="49" y="454" type="curve" smooth="yes"/>
      <point x="23" y="454"/>
      <point x="13" y="433"/>
      <point x="13" y="411" type="curve" smooth="yes"/>
      <point x="13" y="360"/>
      <point x="95" y="71"/>
      <point x="311" y="71" type="curve" smooth="yes"/>
    </contour>
    <contour>
      <point x="621" y="60" type="line"/>
      <point x="616" y="155"/>
      <point x="536" y="243"/>
      <point x="491" y="277" type="curve"/>
      <point x="462" y="192" type="line"/>
      <point x="516" y="158"/>
      <point x="576" y="110"/>
      <point x="576" y="46" type="curve"/>
    </contour>
    <contour>
      <point x="295" y="338"/>
      <point x="280" y="354"/>
      <point x="280" y="371" type="curve" smooth="yes"/>
      <point x="280" y="388"/>
      <point x="295" y="403"/>
      <point x="313" y="403" type="curve" smooth="yes"/>
      <point x="330" y="403"/>
      <point x="344" y="388"/>
      <point x="344" y="371" type="curve" smooth="yes"/>
      <point x="344" y="354"/>
      <point x="330" y="338"/>
      <point x="313" y="338" type="curve" smooth="yes"/>
    </contour>
  </outline>
</glyph>
<glyph name="bAi" format="1">
  <advance width="700"/>
  <outline>
    <contour>
      <point x="572" y="260"/>
      <point x="676" y="365"/>
      <point x="676" y="483" type="curve" smooth="yes"/>
      <point x="676" y="626"/>
      <point x="569" y="684"/>
      <point x="459" y="731" type="curve" smooth="yes"/>
      <point x="371" y="767"/>
      <point x="312" y="790"/>
      <point x="298" y="848" type="curve" smooth="yes"/>
      <point x="292" y="872"/>
      <point x="289" y="906"/>
      <point x="260" y="906" type="curve" smooth="yes"/>
      <point x="238" y="906"/>
      <point x="224" y="887"/>
      <point x="224" y="854" type="curve" smooth="yes"/>
      <point x="224" y="768"/>
      <point x="301" y="710"/>
      <point x="401" y="669" type="curve" smooth="yes"/>
      <point x="518" y="620"/>
      <point x="605" y="588"/>
      <point x="605" y="497" type="curve" smooth="yes"/>
      <point x="605" y="422"/>
      <point x="541" y="362"/>
      <point x="474" y="362" type="curve"/>
      <point x="474" y="260" type="line"/>
    </contour>
    <component base="bE"/>
  </outline>
</glyph>
<glyph name="bAnusvara" format="1">
  <advance width="342"/>
  <outline>
    <contour>
      <point x="354" y="-12"/>
      <point x="365" y="5"/>
      <point x="365" y="26" type="curve" smooth="yes"/>
      <point x="365" y="42"/>
      <point x="357" y="53"/>
      <point x="346" y="68" type="curve" smooth="yes"/>
      <point x="324" y="93"/>
      <point x="297" y="134"/>
      <point x="265" y="197" type="curve" smooth="yes"/>
      <point x="235" y="255"/>
      <point x="196" y="321"/>
      <point x="100" y="321" type="curve" smooth="yes"/>
      <point x="50" y="321"/>
      <point x="39" y="299"/>
      <point x="39" y="280" type="curve" smooth="yes"/>
      <point x="39" y="247"/>
      <point x="70" y="239"/>
      <point x="91" y="236" type="curve" smooth="yes"/>
      <point x="147" y="228"/>
      <point x="174" y="210"/>
      <point x="207" y="139" type="curve" smooth="yes"/>
      <point x="236" y="78"/>
      <point x="272" y="-12"/>
      <point x="329" y="-12" type="curve" smooth="yes"/>
    </contour>
    <contour>
      <point x="216" y="351"/>
      <point x="276" y="388"/>
      <point x="276" y="459" type="curve" smooth="yes"/>
      <point x="276" y="522"/>
      <point x="228" y="578"/>
      <point x="159" y="578" type="curve" smooth="yes"/>
      <point x="94" y="578"/>
      <point x="47" y="529"/>
      <point x="47" y="468" type="curve" smooth="yes"/>
      <point x="47" y="401"/>
      <point x="104" y="351"/>
      <point x="164" y="351" type="curve" smooth="yes"/>
    </contour>
    <contour>
      <point x="145" y="426"/>
      <point x="122" y="440"/>
      <point x="122" y="466" type="curve" smooth="yes"/>
      <point x="122" y="489"/>
      <point x="139" y="506"/>
      <point x="161" y="506" type="curve" smooth="yes"/>
      <point x="182" y="506"/>
      <point x="201" y="489"/>
      <point x="201" y="465" type="curve" smooth="yes"/>
      <point x="201" y="439"/>
      <point x="182" y="426"/>
      <point x="164" y="426" type="curve" smooth="yes"/>
    </contour>
  </outline>
</glyph>
<glyph name="bAu" format="1">
  <advance width="660"/>
  <outline>
    <contour>
      <point x="551" y="278"/>
      <point x="646" y="365"/>
      <point x="646" y="483" type="curve" smooth="yes"/>
      <point x="646" y="626"/>
      <point x="539" y="684"/>
      <point x="429" y="731" type="curve" smooth="yes"/>
      <point x="341" y="767"/>
      <point x="281" y="790"/>
      <point x="267" y="848" type="curve" smooth="yes"/>
      <point x="262" y="871"/>
      <point x="259" y="906"/>
      <point x="229" y="906" type="curve" smooth="yes"/>
      <point x="208" y="906"/>
      <point x="194" y="887"/>
      <point x="194" y="854" type="curve" smooth="yes"/>
      <point x="194" y="768"/>
      <point x="271" y="710"/>
      <point x="371" y="669" type="curve" smooth="yes"/>
      <point x="488" y="620"/>
      <point x="575" y="588"/>
      <point x="575" y="486" type="curve" smooth="yes"/>
      <point x="575" y="416"/>
      <point x="511" y="364"/>
      <point x="448" y="364" type="curve"/>
      <point x="453" y="278" type="line"/>
    </contour>
    <component base="bO"/>
  </outline>
</glyph>
<glyph name="bAuMark" format="1">
  <advance width="220"/>
  <outline>
    <contour>
      <point x="143" y="452" type="line"/>
      <point x="143" y="517"/>
      <point x="154" y="558"/>
      <point x="154" y="601" type="curve" smooth="yes"/>
      <point x="154" y="738"/>
      <point x="69" y="757"/>
      <point x="-94" y="787" type="curve" smooth="yes"/>
      <point x="-165" y="799"/>
      <point x="-183" y="830"/>
      <point x="-189" y="867" type="curve" smooth="yes"/>
      <point x="-195" y="894"/>
      <point x="-211" y="902"/>
      <point x="-227" y="902" type="curve" smooth="yes"/>
      <point x="-241" y="902"/>
      <point x="-260" y="890"/>
      <point x="-260" y="860" type="curve" smooth="yes"/>
      <point x="-260" y="777"/>
      <point x="-191" y="725"/>
      <point x="-98" y="705" type="curve" smooth="yes"/>
      <point x="16" y="678"/>
      <point x="84" y="686"/>
      <point x="84" y="592" type="curve" smooth="yes"/>
      <point x="84" y="552"/>
      <point x="71" y="520"/>
      <point x="71" y="452" type="curve"/>
    </contour>
    <contour>
      <point x="127" y="-11"/>
      <point x="145" y="10"/>
      <point x="145" y="37" type="curve" smooth="yes"/>
      <point x="145" y="444" type="line" smooth="yes"/>
      <point x="145" y="504"/>
      <point x="147" y="515"/>
      <point x="181" y="515" type="curve" smooth="yes"/>
      <point x="220" y="515" type="line" smooth="yes"/>
      <point x="242" y="515"/>
      <point x="259" y="530"/>
      <point x="259" y="552" type="curve" smooth="yes"/>
      <point x="259" y="572"/>
      <point x="242" y="587"/>
      <point x="220" y="587" type="curve" smooth="yes"/>
      <point x="161" y="587" type="line" smooth="yes"/>
      <point x="111" y="587"/>
      <point x="84" y="560"/>
      <point x="84" y="501" type="curve"/>
      <point x="97" y="505" type="line"/>
      <point x="97" y="562"/>
      <point x="61" y="587"/>
      <point x="21" y="587" type="curve" smooth="yes"/>
      <point x="-1" y="587" type="line" smooth="yes"/>
      <point x="-23" y="587"/>
      <point x="-40" y="572"/>
      <point x="-40" y="552" type="curve" smooth="yes"/>
      <point x="-40" y="530"/>
      <point x="-23" y="515"/>
      <point x="-1" y="515" type="curve" smooth="yes"/>
      <point x="26" y="515" type="line" smooth="yes"/>
      <point x="55" y="515"/>
      <point x="64" y="502"/>
      <point x="64" y="450" type="curve" smooth="yes"/>
      <point x="64" y="37" type="line" smooth="yes"/>
      <point x="64" y="10"/>
      <point x="81" y="-11"/>
      <point x="104" y="-11" type="curve" smooth="yes"/>
    </contour>
  </outline>
</glyph>
<glyph name="bAvagraha" format="1">
  <advance width="502"/>
  <outline>
    <contour>
      <point x="448" y="45"/>
      <point x="464" y="59"/>
      <point x="464" y="80" type="curve" smooth="yes"/>
      <point x="464" y="101"/>
      <point x="447" y="113"/>
      <point x="412" y="124" type="curve" smooth="yes"/>
      <point x="353" y="141"/>
      <point x="325" y="184"/>
      <point x="293" y="226" type="curve" smooth="yes"/>
      <point x="249" y="283"/>
      <point x="212" y="323"/>
      <point x="149" y="323" type="curve" smooth="yes"/>
      <point x="98" y="323"/>
      <point x="64" y="287"/>
      <point x="64" y="245" type="curve" smooth="yes"/>
      <point x="64" y="195"/>
      <point x="107" y="157"/>
      <point x="178" y="157" type="curve" smooth="yes"/>
      <point x="297" y="157"/>
      <point x="414" y="257"/>
      <point x="414" y="374" type="curve" smooth="yes"/>
      <point x="414" y="487"/>
      <point x="332" y="563"/>
      <point x="223" y="563" type="curve" smooth="yes"/>
      <point x="148" y="563"/>
      <point x="69" y="528"/>
      <point x="69" y="448" type="curve" smooth="yes"/>
      <point x="69" y="400"/>
      <point x="106" y="359"/>
      <point x="164" y="359" type="curve" smooth="yes"/>
      <point x="219" y="359"/>
      <point x="251" y="401"/>
      <point x="251" y="445" type="curve" smooth="yes"/>
      <point x="251" y="495"/>
      <point x="210" y="518"/>
      <point x="182" y="518" type="curve" smooth="yes"/>
      <point x="160" y="518"/>
      <point x="138" y="511"/>
      <point x="126" y="491" type="curve"/>
      <point x="162" y="490" type="line"/>
      <point x="180" y="501"/>
      <point x="204" y="507"/>
      <point x="223" y="507" type="curve" smooth="yes"/>
      <point x="281" y="507"/>
      <point x="333" y="455"/>
      <point x="333" y="391" type="curve" smooth="yes"/>
      <point x="333" y="297"/>
      <point x="255" y="230"/>
      <point x="167" y="230" type="curve" smooth="yes"/>
      <point x="144" y="230"/>
      <point x="131" y="239"/>
      <point x="131" y="247" type="curve" smooth="yes"/>
      <point x="131" y="251"/>
      <point x="137" y="255"/>
      <point x="147" y="255" type="curve" smooth="yes"/>
      <point x="174" y="255"/>
      <point x="207" y="201"/>
      <point x="228" y="175" type="curve" smooth="yes"/>
      <point x="274" y="121"/>
      <point x="336" y="45"/>
      <point x="418" y="45" type="curve" smooth="yes"/>
    </contour>
    <contour>
      <point x="150" y="424"/>
      <point x="137" y="437"/>
      <point x="137" y="452" type="curve" smooth="yes"/>
      <point x="137" y="468"/>
      <point x="150" y="481"/>
      <point x="166" y="481" type="curve" smooth="yes"/>
      <point x="181" y="481"/>
      <point x="194" y="468"/>
      <point x="194" y="452" type="curve" smooth="yes"/>
      <point x="194" y="437"/>
      <point x="181" y="424"/>
      <point x="166" y="424" type="curve" smooth="yes"/>
    </contour>
  </outline>
</glyph>
<glyph name="bBBa" format="1">
  <advance width="815"/>
  <outline>
    <contour>
      <point x="714" y="76" type="line"/>
      <point x="714" y="202"/>
      <point x="502" y="309"/>
      <point x="399" y="317" type="curve"/>
      <point x="434" y="291" type="line"/>
      <point x="649" y="369"/>
      <point x="699" y="428"/>
      <point x="699" y="487" type="curve" smooth="yes"/>
      <point x="699" y="537"/>
      <point x="660" y="587"/>
      <point x="585" y="587" type="curve" smooth="yes"/>
      <point x="457" y="587" type="line"/>
      <point x="457" y="515" type="line"/>
      <point x="564" y="515" type="line" smooth="yes"/>
      <point x="595" y="515"/>
      <point x="639" y="514"/>
      <point x="639" y="495" type="curve" smooth="yes"/>
      <point x="639" y="468"/>
      <point x="542" y="429"/>
      <point x="371" y="357" type="curve"/>
      <point x="371" y="248" type="line"/>
      <point x="442" y="231"/>
      <point x="659" y="161"/>
      <point x="659" y="49" type="curve"/>
    </contour>
    <contour>
      <point x="722" y="-12"/>
      <point x="740" y="9"/>
      <point x="740" y="36" type="curve" smooth="yes"/>
      <point x="740" y="444" type="line" smooth="yes"/>
      <point x="740" y="504"/>
      <point x="742" y="515"/>
      <point x="776" y="515" type="curve" smooth="yes"/>
      <point x="815" y="515" type="line" smooth="yes"/>
      <point x="837" y="515"/>
      <point x="854" y="530"/>
      <point x="854" y="552" type="curve" smooth="yes"/>
      <point x="854" y="572"/>
      <point x="837" y="587"/>
      <point x="815" y="587" type="curve" smooth="yes"/>
      <point x="756" y="587" type="line" smooth="yes"/>
      <point x="697" y="587"/>
      <point x="659" y="548"/>
      <point x="659" y="463" type="curve" smooth="yes"/>
      <point x="659" y="36" type="line" smooth="yes"/>
      <point x="659" y="9"/>
      <point x="676" y="-12"/>
      <point x="699" y="-12" type="curve" smooth="yes"/>
    </contour>
    <component base="bBa"/>
  </outline>
</glyph>
<glyph name="bBBha" format="1">
  <advance width="616"/>
  <outline>
    <contour>
      <point x="516" y="-118"/>
      <point x="586" y="-6"/>
      <point x="586" y="86" type="curve" smooth="yes"/>
      <point x="586" y="143"/>
      <point x="560" y="196"/>
      <point x="533" y="222" type="curve"/>
      <point x="461" y="173" type="line"/>
      <point x="461" y="126"/>
      <point x="416" y="106"/>
      <point x="375" y="106" type="curve" smooth="yes"/>
      <point x="344" y="106"/>
      <point x="312" y="117"/>
      <point x="292" y="135" type="curve"/>
      <point x="256" y="124" type="line"/>
      <point x="269" y="109"/>
      <point x="286" y="102"/>
      <point x="307" y="102" type="curve" smooth="yes"/>
      <point x="360" y="102"/>
      <point x="387" y="147"/>
      <point x="387" y="184" type="curve" smooth="yes"/>
      <point x="387" y="229"/>
      <point x="348" y="272"/>
      <point x="296" y="272" type="curve" smooth="yes"/>
      <point x="250" y="272"/>
      <point x="198" y="238"/>
      <point x="198" y="177" type="curve" smooth="yes"/>
      <point x="198" y="107"/>
      <point x="265" y="30"/>
      <point x="365" y="30" type="curve" smooth="yes"/>
      <point x="469" y="30"/>
      <point x="524" y="116"/>
      <point x="524" y="158" type="curve"/>
      <point x="498" y="151" type="line"/>
      <point x="508" y="134"/>
      <point x="518" y="114"/>
      <point x="518" y="89" type="curve" smooth="yes"/>
      <point x="518" y="17"/>
      <point x="454" y="-38"/>
      <point x="367" y="-38" type="curve" smooth="yes"/>
      <point x="160" y="-38"/>
      <point x="108" y="268"/>
      <point x="90" y="391" type="curve" smooth="yes"/>
      <point x="87" y="416"/>
      <point x="74" y="432"/>
      <point x="53" y="432" type="curve" smooth="yes"/>
      <point x="31" y="432"/>
      <point x="20" y="414"/>
      <point x="20" y="380" type="curve" smooth="yes"/>
      <point x="20" y="297"/>
      <point x="84" y="-118"/>
      <point x="368" y="-118" type="curve" smooth="yes"/>
    </contour>
    <contour>
      <point x="280" y="146"/>
      <point x="266" y="156"/>
      <point x="266" y="172" type="curve" smooth="yes"/>
      <point x="266" y="189"/>
      <point x="280" y="198"/>
      <point x="293" y="198" type="curve" smooth="yes"/>
      <point x="305" y="198"/>
      <point x="318" y="189"/>
      <point x="318" y="171" type="curve" smooth="yes"/>
      <point x="318" y="153"/>
      <point x="304" y="146"/>
      <point x="293" y="146" type="curve" smooth="yes"/>
    </contour>
    <contour>
      <point x="532" y="223" type="line"/>
      <point x="471" y="304"/>
      <point x="303" y="345"/>
      <point x="235" y="349" type="curve"/>
      <point x="229" y="323" type="line"/>
      <point x="405" y="370"/>
      <point x="507" y="414"/>
      <point x="507" y="490" type="curve" smooth="yes"/>
      <point x="507" y="548"/>
      <point x="455" y="587"/>
      <point x="379" y="587" type="curve" smooth="yes"/>
      <point x="0" y="587" type="line" smooth="yes"/>
      <point x="-15" y="587"/>
      <point x="-34" y="577"/>
      <point x="-34" y="552" type="curve" smooth="yes"/>
      <point x="-34" y="528"/>
      <point x="-17" y="515"/>
      <point x="0" y="515" type="curve" smooth="yes"/>
      <point x="358" y="515" type="line" smooth="yes"/>
      <point x="377" y="515"/>
      <point x="442" y="514"/>
      <point x="442" y="489" type="curve" smooth="yes"/>
      <point x="442" y="452"/>
      <point x="292" y="427"/>
      <point x="201" y="390" type="curve" smooth="yes"/>
      <point x="181" y="382"/>
      <point x="159" y="370"/>
      <point x="159" y="337" type="curve" smooth="yes"/>
      <point x="159" y="302"/>
      <point x="185" y="287"/>
      <point x="216" y="280" type="curve" smooth="yes"/>
      <point x="275" y="266"/>
      <point x="462" y="253"/>
      <point x="462" y="174" type="curve"/>
    </contour>
    <contour>
      <point x="534" y="199" type="line"/>
      <point x="534" y="444" type="line" smooth="yes"/>
      <point x="534" y="504"/>
      <point x="536" y="515"/>
      <point x="570" y="515" type="curve" smooth="yes"/>
      <point x="626" y="515" type="line" smooth="yes"/>
      <point x="649" y="515"/>
      <point x="666" y="530"/>
      <point x="666" y="552" type="curve" smooth="yes"/>
      <point x="666" y="572"/>
      <point x="649" y="587"/>
      <point x="626" y="587" type="curve" smooth="yes"/>
      <point x="550" y="587" type="line" smooth="yes"/>
      <point x="491" y="587"/>
      <point x="453" y="548"/>
      <point x="453" y="463" type="curve" smooth="yes"/>
      <point x="453" y="199" type="line"/>
    </contour>
  </outline>
</glyph>
<glyph name="bBDa" format="1">
  <advance width="730"/>
  <outline>
    <contour>
      <point x="643" y="-42"/>
      <point x="654" y="-15"/>
      <point x="654" y="25" type="curve" smooth="yes"/>
      <point x="654" y="107"/>
      <point x="639" y="170"/>
      <point x="639" y="233" type="curve" smooth="yes"/>
      <point x="639" y="314"/>
      <point x="668" y="374"/>
      <point x="668" y="411" type="curve" smooth="yes"/>
      <point x="668" y="428"/>
      <point x="660" y="448"/>
      <point x="630" y="448" type="curve" smooth="yes"/>
      <point x="588" y="448"/>
      <point x="447" y="342"/>
      <point x="351" y="242" type="curve"/>
      <point x="371" y="222" type="line"/>
      <point x="371" y="419" type="line" smooth="yes"/>
      <point x="371" y="466"/>
      <point x="370" y="515"/>
      <point x="420" y="515" type="curve" smooth="yes"/>
      <point x="729" y="515" type="line" smooth="yes"/>
      <point x="751" y="515"/>
      <point x="769" y="531"/>
      <point x="769" y="552" type="curve" smooth="yes"/>
      <point x="769" y="572"/>
      <point x="751" y="587"/>
      <point x="729" y="587" type="curve" smooth="yes"/>
      <point x="402" y="587" type="line" smooth="yes"/>
      <point x="356" y="587"/>
      <point x="290" y="567"/>
      <point x="290" y="482" type="curve" smooth="yes"/>
      <point x="290" y="177" type="line" smooth="yes"/>
      <point x="290" y="146"/>
      <point x="306" y="131"/>
      <point x="329" y="131" type="curve" smooth="yes"/>
      <point x="354" y="131"/>
      <point x="369" y="144"/>
      <point x="412" y="188" type="curve" smooth="yes"/>
      <point x="456" y="232"/>
      <point x="554" y="316"/>
      <point x="608" y="346" type="curve"/>
      <point x="604" y="357" type="line"/>
      <point x="569" y="324"/>
      <point x="560" y="272"/>
      <point x="560" y="229" type="curve" smooth="yes"/>
      <point x="560" y="171"/>
      <point x="571" y="112"/>
      <point x="572" y="24" type="curve" smooth="yes"/>
      <point x="572" y="-19"/>
      <point x="589" y="-42"/>
      <point x="615" y="-42" type="curve" smooth="yes"/>
    </contour>
    <contour>
      <point x="341" y="198" type="line"/>
      <point x="326" y="286"/>
      <point x="199" y="354"/>
      <point x="124" y="354" type="curve"/>
      <point x="123" y="326" type="line"/>
      <point x="198" y="359"/>
      <point x="347" y="394"/>
      <point x="345" y="495" type="curve" smooth="yes"/>
      <point x="344" y="548"/>
      <point x="300" y="587"/>
      <point x="227" y="587" type="curve" smooth="yes"/>
      <point x="-1" y="587" type="line" smooth="yes"/>
      <point x="-23" y="587"/>
      <point x="-40" y="572"/>
      <point x="-40" y="552" type="curve" smooth="yes"/>
      <point x="-40" y="531"/>
      <point x="-23" y="515"/>
      <point x="-1" y="515" type="curve" smooth="yes"/>
      <point x="219" y="515" type="line" smooth="yes"/>
      <point x="272" y="515"/>
      <point x="289" y="514"/>
      <point x="289" y="495" type="curve" smooth="yes"/>
      <point x="289" y="463"/>
      <point x="186" y="430"/>
      <point x="85" y="388" type="curve" smooth="yes"/>
      <point x="53" y="374"/>
      <point x="44" y="359"/>
      <point x="44" y="339" type="curve" smooth="yes"/>
      <point x="44" y="318"/>
      <point x="61" y="304"/>
      <point x="84" y="298" type="curve" smooth="yes"/>
      <point x="163" y="275"/>
      <point x="290" y="226"/>
      <point x="290" y="177" type="curve"/>
    </contour>
  </outline>
</glyph>
<glyph name="bBDda" format="1">
  <advance width="620"/>
  <outline>
    <contour>
      <point x="518" y="-12"/>
      <point x="589" y="109"/>
      <point x="589" y="224" type="curve" smooth="yes"/>
      <point x="589" y="307"/>
      <point x="551" y="349"/>
      <point x="521" y="349" type="curve" smooth="yes"/>
      <point x="504" y="349"/>
      <point x="496" y="339"/>
      <point x="494" y="322" type="curve" smooth="yes"/>
      <point x="491" y="286"/>
      <point x="472" y="262"/>
      <point x="440" y="262" type="curve" smooth="yes"/>
      <point x="397" y="262"/>
      <point x="374" y="303"/>
      <point x="374" y="371" type="curve" smooth="yes"/>
      <point x="374" y="449"/>
      <point x="406" y="515"/>
      <point x="468" y="515" type="curve" smooth="yes"/>
      <point x="620" y="515" type="line" smooth="yes"/>
      <point x="643" y="515"/>
      <point x="660" y="531"/>
      <point x="660" y="552" type="curve" smooth="yes"/>
      <point x="660" y="572"/>
      <point x="643" y="587"/>
      <point x="620" y="587" type="curve" smooth="yes"/>
      <point x="470" y="587" type="line" smooth="yes"/>
      <point x="368" y="587"/>
      <point x="303" y="474"/>
      <point x="303" y="356" type="curve" smooth="yes"/>
      <point x="303" y="283"/>
      <point x="332" y="185"/>
      <point x="428" y="185" type="curve" smooth="yes"/>
      <point x="498" y="185"/>
      <point x="518" y="247"/>
      <point x="523" y="279" type="curve"/>
      <point x="497" y="291" type="line"/>
      <point x="511" y="273"/>
      <point x="519" y="247"/>
      <point x="519" y="224" type="curve" smooth="yes"/>
      <point x="519" y="154"/>
      <point x="461" y="76"/>
      <point x="373" y="76" type="curve" smooth="yes"/>
      <point x="200" y="76"/>
      <point x="120" y="225"/>
      <point x="81" y="385" type="curve" smooth="yes"/>
      <point x="74" y="409"/>
      <point x="61" y="427"/>
      <point x="39" y="427" type="curve" smooth="yes"/>
      <point x="23" y="427"/>
      <point x="8" y="413"/>
      <point x="8" y="386" type="curve" smooth="yes"/>
      <point x="8" y="270"/>
      <point x="124" y="-12"/>
      <point x="370" y="-12" type="curve" smooth="yes"/>
    </contour>
    <contour>
      <point x="389" y="253" type="line"/>
      <point x="347" y="315"/>
      <point x="237" y="357"/>
      <point x="178" y="357" type="curve"/>
      <point x="188" y="342" type="line"/>
      <point x="315" y="387"/>
      <point x="360" y="449"/>
      <point x="360" y="499" type="curve" smooth="yes"/>
      <point x="360" y="543"/>
      <point x="328" y="587"/>
      <point x="250" y="587" type="curve" smooth="yes"/>
      <point x="-1" y="587" type="line" smooth="yes"/>
      <point x="-23" y="587"/>
      <point x="-40" y="572"/>
      <point x="-40" y="552" type="curve" smooth="yes"/>
      <point x="-40" y="531"/>
      <point x="-23" y="515"/>
      <point x="-1" y="515" type="curve" smooth="yes"/>
      <point x="226" y="515" type="line" smooth="yes"/>
      <point x="253" y="515"/>
      <point x="307" y="517"/>
      <point x="307" y="489" type="curve" smooth="yes"/>
      <point x="307" y="462"/>
      <point x="248" y="437"/>
      <point x="172" y="400" type="curve" smooth="yes"/>
      <point x="142" y="383"/>
      <point x="132" y="369"/>
      <point x="132" y="350" type="curve" smooth="yes"/>
      <point x="132" y="331"/>
      <point x="144" y="315"/>
      <point x="175" y="308" type="curve" smooth="yes"/>
      <point x="271" y="285"/>
      <point x="316" y="257"/>
      <point x="338" y="230" type="curve"/>
    </contour>
  </outline>
</glyph>
<glyph name="bBDdha" format="1">
  <advance width="738"/>
  <outline>
    <contour>
      <point x="580" y="-12"/>
      <point x="689" y="192"/>
      <point x="689" y="315" type="curve" smooth="yes"/>
      <point x="689" y="372"/>
      <point x="657" y="435"/>
      <point x="581" y="435" type="curve" smooth="yes"/>
      <point x="523" y="435"/>
      <point x="473" y="396"/>
      <point x="473" y="333" type="curve" smooth="yes"/>
      <point x="473" y="261"/>
      <point x="529" y="230"/>
      <point x="574" y="230" type="curve" smooth="yes"/>
      <point x="614" y="230"/>
      <point x="657" y="263"/>
      <point x="660" y="305" type="curve"/>
      <point x="599" y="273" type="line"/>
      <point x="598" y="187"/>
      <point x="501" y="80"/>
      <point x="445" y="80" type="curve" smooth="yes"/>
      <point x="413" y="80"/>
      <point x="405" y="105"/>
      <point x="405" y="156" type="curve" smooth="yes"/>
      <point x="405" y="459" type="line" smooth="yes"/>
      <point x="405" y="514"/>
      <point x="428" y="515"/>
      <point x="465" y="515" type="curve" smooth="yes"/>
      <point x="738" y="515" type="line" smooth="yes"/>
      <point x="760" y="515"/>
      <point x="777" y="531"/>
      <point x="777" y="552" type="curve" smooth="yes"/>
      <point x="777" y="572"/>
      <point x="760" y="587"/>
      <point x="738" y="587" type="curve" smooth="yes"/>
      <point x="417" y="587" type="line" smooth="yes"/>
      <point x="359" y="587"/>
      <point x="324" y="550"/>
      <point x="324" y="480" type="curve" smooth="yes"/>
      <point x="324" y="121" type="line" smooth="yes"/>
      <point x="324" y="76"/>
      <point x="333" y="-12"/>
      <point x="436" y="-12" type="curve" smooth="yes"/>
    </contour>
    <contour>
      <point x="383" y="107" type="line"/>
      <point x="384" y="217"/>
      <point x="173" y="310"/>
      <point x="70" y="317" type="curve"/>
      <point x="105" y="291" type="line"/>
      <point x="319" y="369"/>
      <point x="369" y="428"/>
      <point x="369" y="487" type="curve" smooth="yes"/>
      <point x="369" y="537"/>
      <point x="331" y="587"/>
      <point x="255" y="587" type="curve" smooth="yes"/>
      <point x="0" y="587" type="line" smooth="yes"/>
      <point x="-15" y="587"/>
      <point x="-34" y="577"/>
      <point x="-34" y="552" type="curve" smooth="yes"/>
      <point x="-34" y="528"/>
      <point x="-17" y="515"/>
      <point x="0" y="515" type="curve" smooth="yes"/>
      <point x="234" y="515" type="line" smooth="yes"/>
      <point x="266" y="515"/>
      <point x="310" y="514"/>
      <point x="310" y="495" type="curve" smooth="yes"/>
      <point x="310" y="468"/>
      <point x="213" y="429"/>
      <point x="44" y="357" type="curve" smooth="yes"/>
      <point x="14" y="345"/>
      <point x="3" y="326"/>
      <point x="3" y="304" type="curve" smooth="yes"/>
      <point x="3" y="270"/>
      <point x="29" y="257"/>
      <point x="59" y="248" type="curve" smooth="yes"/>
      <point x="114" y="233"/>
      <point x="318" y="168"/>
      <point x="328" y="79" type="curve"/>
    </contour>
    <contour>
      <point x="558" y="290"/>
      <point x="544" y="305"/>
      <point x="544" y="322" type="curve" smooth="yes"/>
      <point x="544" y="340"/>
      <point x="558" y="354"/>
      <point x="576" y="354" type="curve" smooth="yes"/>
      <point x="593" y="354"/>
      <point x="608" y="340"/>
      <point x="608" y="322" type="curve" smooth="yes"/>
      <point x="608" y="305"/>
      <point x="593" y="290"/>
      <point x="576" y="290" type="curve" smooth="yes"/>
    </contour>
  </outline>
</glyph>
<glyph name="bBDha" format="1">
  <advance width="622"/>
  <outline>
    <contour>
      <point x="392" y="-82"/>
      <point x="410" y="-61"/>
      <point x="410" y="-34" type="curve" smooth="yes"/>
      <point x="410" y="444" type="line" smooth="yes"/>
      <point x="410" y="504"/>
      <point x="412" y="515"/>
      <point x="446" y="515" type="curve" smooth="yes"/>
      <point x="622" y="515" type="line" smooth="yes"/>
      <point x="644" y="515"/>
      <point x="661" y="530"/>
      <point x="661" y="552" type="curve" smooth="yes"/>
      <point x="661" y="572"/>
      <point x="644" y="587"/>
      <point x="622" y="587" type="curve" smooth="yes"/>
      <point x="426" y="587" type="line" smooth="yes"/>
      <point x="367" y="587"/>
      <point x="329" y="548"/>
      <point x="329" y="463" type="curve" smooth="yes"/>
      <point x="329" y="-34" type="line" smooth="yes"/>
      <point x="329" y="-61"/>
      <point x="346" y="-82"/>
      <point x="369" y="-82" type="curve" smooth="yes"/>
    </contour>
    <contour>
      <point x="378" y="10" type="line"/>
      <point x="348" y="101"/>
      <point x="210" y="160"/>
      <point x="170" y="160" type="curve"/>
      <point x="161" y="129" type="line"/>
      <point x="519" y="305" type="line"/>
      <point x="513" y="315" type="line"/>
      <point x="475" y="287"/>
      <point x="466" y="233"/>
      <point x="466" y="177" type="curve" smooth="yes"/>
      <point x="466" y="44" type="line" smooth="yes"/>
      <point x="466" y="-2"/>
      <point x="490" y="-12"/>
      <point x="505" y="-12" type="curve" smooth="yes"/>
      <point x="520" y="-12"/>
      <point x="540" y="-1"/>
      <point x="540" y="44" type="curve" smooth="yes"/>
      <point x="540" y="188" type="line" smooth="yes"/>
      <point x="540" y="296"/>
      <point x="567" y="325"/>
      <point x="567" y="359" type="curve" smooth="yes"/>
      <point x="567" y="373"/>
      <point x="556" y="393"/>
      <point x="534" y="393" type="curve" smooth="yes"/>
      <point x="516" y="393"/>
      <point x="491" y="377"/>
      <point x="466" y="366" type="curve" smooth="yes"/>
      <point x="112" y="195" type="line" smooth="yes"/>
      <point x="79" y="179"/>
      <point x="69" y="164"/>
      <point x="69" y="144" type="curve" smooth="yes"/>
      <point x="69" y="121"/>
      <point x="85" y="106"/>
      <point x="109" y="102" type="curve" smooth="yes"/>
      <point x="174" y="86"/>
      <point x="329" y="31"/>
      <point x="329" y="-27" type="curve"/>
    </contour>
    <contour>
      <point x="263" y="251" type="line"/>
      <point x="210" y="285"/>
      <point x="151" y="307"/>
      <point x="106" y="317" type="curve"/>
      <point x="105" y="291" type="line"/>
      <point x="319" y="369"/>
      <point x="369" y="428"/>
      <point x="369" y="487" type="curve" smooth="yes"/>
      <point x="369" y="537"/>
      <point x="331" y="587"/>
      <point x="255" y="587" type="curve" smooth="yes"/>
      <point x="0" y="587" type="line" smooth="yes"/>
      <point x="-15" y="587"/>
      <point x="-34" y="577"/>
      <point x="-34" y="552" type="curve" smooth="yes"/>
      <point x="-34" y="528"/>
      <point x="-17" y="515"/>
      <point x="0" y="515" type="curve" smooth="yes"/>
      <point x="234" y="515" type="line" smooth="yes"/>
      <point x="266" y="515"/>
      <point x="310" y="514"/>
      <point x="310" y="495" type="curve" smooth="yes"/>
      <point x="310" y="468"/>
      <point x="213" y="429"/>
      <point x="44" y="357" type="curve" smooth="yes"/>
      <point x="14" y="345"/>
      <point x="3" y="326"/>
      <point x="3" y="304" type="curve" smooth="yes"/>
      <point x="3" y="270"/>
      <point x="29" y="257"/>
      <point x="59" y="248" type="curve" smooth="yes"/>
      <point x="82" y="241"/>
      <point x="128" y="226"/>
      <point x="177" y="203" type="curve"/>
    </contour>
  </outline>
</glyph>
<glyph name="bBJa" format="1">
  <advance width="725"/>
  <outline>
    <contour>
      <point x="513" y="-18"/>
      <point x="575" y="96"/>
      <point x="575" y="186" type="curve" smooth="yes"/>
      <point x="575" y="280"/>
      <point x="526" y="313"/>
      <point x="506" y="313" type="curve" smooth="yes"/>
      <point x="461" y="313"/>
      <point x="481" y="232"/>
      <point x="412" y="232" type="curve" smooth="yes"/>
      <point x="371" y="232"/>
      <point x="347" y="276"/>
      <point x="347" y="340" type="curve" smooth="yes"/>
      <point x="347" y="422"/>
      <point x="372" y="515"/>
      <point x="434" y="515" type="curve" smooth="yes"/>
      <point x="725" y="515" type="line" smooth="yes"/>
      <point x="748" y="515"/>
      <point x="765" y="531"/>
      <point x="765" y="552" type="curve" smooth="yes"/>
      <point x="765" y="572"/>
      <point x="748" y="587"/>
      <point x="725" y="587" type="curve" smooth="yes"/>
      <point x="426" y="587" type="line" smooth="yes"/>
      <point x="344" y="587"/>
      <point x="274" y="473"/>
      <point x="274" y="344" type="curve" smooth="yes"/>
      <point x="274" y="256"/>
      <point x="298" y="153"/>
      <point x="406" y="153" type="curve" smooth="yes"/>
      <point x="485" y="153"/>
      <point x="517" y="227"/>
      <point x="517" y="260" type="curve"/>
      <point x="484" y="250" type="line"/>
      <point x="499" y="232"/>
      <point x="507" y="215"/>
      <point x="507" y="186" type="curve" smooth="yes"/>
      <point x="507" y="140"/>
      <point x="464" y="68"/>
      <point x="363" y="68" type="curve" smooth="yes"/>
      <point x="171" y="68"/>
      <point x="96" y="295"/>
      <point x="75" y="399" type="curve" smooth="yes"/>
      <point x="72" y="419"/>
      <point x="62" y="436"/>
      <point x="41" y="436" type="curve" smooth="yes"/>
      <point x="24" y="436"/>
      <point x="9" y="426"/>
      <point x="9" y="404" type="curve" smooth="yes"/>
      <point x="9" y="286"/>
      <point x="119" y="-18"/>
      <point x="360" y="-18" type="curve" smooth="yes"/>
    </contour>
    <contour>
      <point x="332" y="242" type="line"/>
      <point x="291" y="300"/>
      <point x="203" y="341"/>
      <point x="160" y="342" type="curve"/>
      <point x="170" y="327" type="line"/>
      <point x="297" y="372"/>
      <point x="342" y="445"/>
      <point x="342" y="499" type="curve" smooth="yes"/>
      <point x="342" y="543"/>
      <point x="312" y="587"/>
      <point x="240" y="587" type="curve" smooth="yes"/>
      <point x="-1" y="587" type="line" smooth="yes"/>
      <point x="-23" y="587"/>
      <point x="-40" y="572"/>
      <point x="-40" y="552" type="curve" smooth="yes"/>
      <point x="-40" y="531"/>
      <point x="-23" y="515"/>
      <point x="-1" y="515" type="curve" smooth="yes"/>
      <point x="216" y="515" type="line" smooth="yes"/>
      <point x="243" y="515"/>
      <point x="297" y="517"/>
      <point x="297" y="489" type="curve" smooth="yes"/>
      <point x="297" y="457"/>
      <point x="236" y="430"/>
      <point x="154" y="385" type="curve" smooth="yes"/>
      <point x="124" y="368"/>
      <point x="114" y="354"/>
      <point x="114" y="335" type="curve" smooth="yes"/>
      <point x="114" y="316"/>
      <point x="126" y="299"/>
      <point x="158" y="287" type="curve" smooth="yes"/>
      <point x="218" y="266"/>
      <point x="283" y="240"/>
      <point x="305" y="206" type="curve"/>
    </contour>
    <contour>
      <point x="678" y="-50"/>
      <point x="691" y="-28"/>
      <point x="691" y="16" type="curve" smooth="yes"/>
      <point x="691" y="79"/>
      <point x="679" y="220"/>
      <point x="679" y="277" type="curve" smooth="yes"/>
      <point x="679" y="368"/>
      <point x="713" y="406"/>
      <point x="713" y="436" type="curve" smooth="yes"/>
      <point x="713" y="457"/>
      <point x="698" y="472"/>
      <point x="674" y="472" type="curve" smooth="yes"/>
      <point x="639" y="472"/>
      <point x="603" y="436"/>
      <point x="539" y="436" type="curve" smooth="yes"/>
      <point x="471" y="436"/>
      <point x="422" y="479"/>
      <point x="420" y="533" type="curve"/>
      <point x="371" y="516" type="line"/>
      <point x="372" y="430"/>
      <point x="445" y="358"/>
      <point x="536" y="358" type="curve" smooth="yes"/>
      <point x="581" y="358"/>
      <point x="637" y="377"/>
      <point x="660" y="392" type="curve"/>
      <point x="652" y="403" type="line"/>
      <point x="607" y="365"/>
      <point x="600" y="310"/>
      <point x="600" y="251" type="curve" smooth="yes"/>
      <point x="600" y="167"/>
      <point x="609" y="92"/>
      <point x="609" y="12" type="curve" smooth="yes"/>
      <point x="609" y="-21"/>
      <point x="625" y="-50"/>
      <point x="652" y="-50" type="curve" smooth="yes"/>
    </contour>
  </outline>
</glyph>
<glyph name="bBJha" format="1">
  <advance width="655"/>
  <outline>
    <contour>
      <point x="319" y="227" type="line"/>
      <point x="259" y="273"/>
      <point x="162" y="313"/>
      <point x="110" y="317" type="curve"/>
      <point x="125" y="291" type="line"/>
      <point x="340" y="369"/>
      <point x="390" y="428"/>
      <point x="390" y="487" type="curve" smooth="yes"/>
      <point x="390" y="537"/>
      <point x="351" y="587"/>
      <point x="276" y="587" type="curve" smooth="yes"/>
      <point x="0" y="587" type="line" smooth="yes"/>
      <point x="-15" y="587"/>
      <point x="-34" y="577"/>
      <point x="-34" y="552" type="curve" smooth="yes"/>
      <point x="-34" y="528"/>
      <point x="-17" y="515"/>
      <point x="0" y="515" type="curve" smooth="yes"/>
      <point x="255" y="515" type="line" smooth="yes"/>
      <point x="269" y="515"/>
      <point x="330" y="514"/>
      <point x="330" y="495" type="curve" smooth="yes"/>
      <point x="330" y="468"/>
      <point x="233" y="429"/>
      <point x="65" y="357" type="curve" smooth="yes"/>
      <point x="34" y="345"/>
      <point x="23" y="326"/>
      <point x="23" y="304" type="curve" smooth="yes"/>
      <point x="23" y="270"/>
      <point x="50" y="257"/>
      <point x="80" y="248" type="curve" smooth="yes"/>
      <point x="109" y="239"/>
      <point x="184" y="221"/>
      <point x="248" y="184" type="curve"/>
    </contour>
    <contour>
      <point x="398" y="-28" type="line"/>
      <point x="368" y="63"/>
      <point x="230" y="122"/>
      <point x="190" y="122" type="curve"/>
      <point x="181" y="91" type="line"/>
      <point x="396" y="207" type="line"/>
      <point x="396" y="294" type="line"/>
      <point x="132" y="157" type="line" smooth="yes"/>
      <point x="99" y="140"/>
      <point x="89" y="126"/>
      <point x="89" y="107" type="curve" smooth="yes"/>
      <point x="89" y="84"/>
      <point x="105" y="68"/>
      <point x="129" y="64" type="curve" smooth="yes"/>
      <point x="194" y="49"/>
      <point x="349" y="-7"/>
      <point x="349" y="-64" type="curve"/>
    </contour>
    <contour>
      <point x="543" y="15" type="line"/>
      <point x="543" y="126"/>
      <point x="431" y="126"/>
      <point x="431" y="233" type="curve"/>
      <point x="403" y="151" type="line"/>
      <point x="403" y="85"/>
      <point x="499" y="78"/>
      <point x="499" y="-8" type="curve"/>
    </contour>
    <contour>
      <point x="413" y="-126"/>
      <point x="431" y="-105"/>
      <point x="431" y="-77" type="curve" smooth="yes"/>
      <point x="431" y="561" type="line" smooth="yes"/>
      <point x="431" y="588"/>
      <point x="414" y="609"/>
      <point x="391" y="609" type="curve" smooth="yes"/>
      <point x="367" y="609"/>
      <point x="350" y="588"/>
      <point x="350" y="561" type="curve" smooth="yes"/>
      <point x="350" y="-77" type="line" smooth="yes"/>
      <point x="350" y="-105"/>
      <point x="367" y="-126"/>
      <point x="390" y="-126" type="curve" smooth="yes"/>
    </contour>
    <contour>
      <point x="562" y="-65"/>
      <point x="580" y="-44"/>
      <point x="580" y="-16" type="curve" smooth="yes"/>
      <point x="580" y="444" type="line" smooth="yes"/>
      <point x="580" y="504"/>
      <point x="582" y="515"/>
      <point x="616" y="515" type="curve" smooth="yes"/>
      <point x="655" y="515" type="line" smooth="yes"/>
      <point x="677" y="515"/>
      <point x="694" y="530"/>
      <point x="694" y="552" type="curve" smooth="yes"/>
      <point x="694" y="572"/>
      <point x="677" y="587"/>
      <point x="655" y="587" type="curve" smooth="yes"/>
      <point x="596" y="587" type="line" smooth="yes"/>
      <point x="537" y="587"/>
      <point x="499" y="548"/>
      <point x="499" y="463" type="curve" smooth="yes"/>
      <point x="499" y="-16" type="line" smooth="yes"/>
      <point x="499" y="-44"/>
      <point x="516" y="-65"/>
      <point x="539" y="-65" type="curve" smooth="yes"/>
    </contour>
  </outline>
</glyph>
<glyph name="bBLa" format="1">
  <advance width="485"/>
  <outline>
    <contour>
      <point x="385" y="91" type="line"/>
      <point x="385" y="209"/>
      <point x="172" y="309"/>
      <point x="70" y="317" type="curve"/>
      <point x="105" y="291" type="line"/>
      <point x="319" y="369"/>
      <point x="369" y="428"/>
      <point x="369" y="487" type="curve" smooth="yes"/>
      <point x="369" y="537"/>
      <point x="331" y="587"/>
      <point x="255" y="587" type="curve" smooth="yes"/>
      <point x="0" y="587" type="line" smooth="yes"/>
      <point x="-15" y="587"/>
      <point x="-34" y="577"/>
      <point x="-34" y="552" type="curve" smooth="yes"/>
      <point x="-34" y="528"/>
      <point x="-17" y="515"/>
      <point x="0" y="515" type="curve" smooth="yes"/>
      <point x="234" y="515" type="line" smooth="yes"/>
      <point x="266" y="515"/>
      <point x="310" y="514"/>
      <point x="310" y="495" type="curve" smooth="yes"/>
      <point x="310" y="468"/>
      <point x="213" y="429"/>
      <point x="44" y="357" type="curve" smooth="yes"/>
      <point x="14" y="345"/>
      <point x="3" y="326"/>
      <point x="3" y="304" type="curve" smooth="yes"/>
      <point x="3" y="270"/>
      <point x="29" y="257"/>
      <point x="59" y="248" type="curve" smooth="yes"/>
      <point x="114" y="232"/>
      <point x="329" y="167"/>
      <point x="329" y="64" type="curve"/>
    </contour>
    <contour>
      <point x="392" y="-97"/>
      <point x="410" y="-76"/>
      <point x="410" y="-49" type="curve" smooth="yes"/>
      <point x="410" y="444" type="line" smooth="yes"/>
      <point x="410" y="504"/>
      <point x="412" y="515"/>
      <point x="446" y="515" type="curve" smooth="yes"/>
      <point x="485" y="515" type="line" smooth="yes"/>
      <point x="507" y="515"/>
      <point x="524" y="530"/>
      <point x="524" y="552" type="curve" smooth="yes"/>
      <point x="524" y="572"/>
      <point x="507" y="587"/>
      <point x="485" y="587" type="curve" smooth="yes"/>
      <point x="426" y="587" type="line" smooth="yes"/>
      <point x="367" y="587"/>
      <point x="329" y="548"/>
      <point x="329" y="463" type="curve" smooth="yes"/>
      <point x="329" y="-49" type="line" smooth="yes"/>
      <point x="329" y="-76"/>
      <point x="346" y="-97"/>
      <point x="369" y="-97" type="curve" smooth="yes"/>
    </contour>
    <contour>
      <point x="123" y="-112"/>
      <point x="150" y="-80"/>
      <point x="150" y="-43" type="curve" smooth="yes"/>
      <point x="150" y="-4"/>
      <point x="119" y="28"/>
      <point x="80" y="28" type="curve" smooth="yes"/>
      <point x="41" y="28"/>
      <point x="21" y="-6"/>
      <point x="21" y="-33" type="curve" smooth="yes"/>
      <point x="21" y="-47"/>
      <point x="26" y="-65"/>
      <point x="35" y="-75" type="curve"/>
      <point x="51" y="-65" type="line"/>
      <point x="41" y="-53"/>
      <point x="35" y="-34"/>
      <point x="35" y="-19" type="curve" smooth="yes"/>
      <point x="35" y="31"/>
      <point x="83" y="68"/>
      <point x="140" y="68" type="curve" smooth="yes"/>
      <point x="179" y="68"/>
      <point x="227" y="46"/>
      <point x="227" y="13" type="curve" smooth="yes"/>
      <point x="227" y="4"/>
      <point x="224" y="-5"/>
      <point x="215" y="-5" type="curve" smooth="yes"/>
      <point x="208" y="-5"/>
      <point x="202" y="1"/>
      <point x="202" y="10" type="curve" smooth="yes"/>
      <point x="202" y="34"/>
      <point x="237" y="53"/>
      <point x="266" y="53" type="curve" smooth="yes"/>
      <point x="306" y="53"/>
      <point x="331" y="20"/>
      <point x="330" y="-44" type="curve"/>
      <point x="372" y="-23" type="line"/>
      <point x="373" y="21"/>
      <point x="345" y="109"/>
      <point x="263" y="109" type="curve" smooth="yes"/>
      <point x="203" y="109"/>
      <point x="158" y="62"/>
      <point x="158" y="9" type="curve" smooth="yes"/>
      <point x="158" y="-26"/>
      <point x="178" y="-57"/>
      <point x="216" y="-57" type="curve" smooth="yes"/>
      <point x="249" y="-57"/>
      <point x="272" y="-35"/>
      <point x="272" y="4" type="curve" smooth="yes"/>
      <point x="272" y="72"/>
      <point x="210" y="133"/>
      <point x="127" y="133" type="curve" smooth="yes"/>
      <point x="42" y="133"/>
      <point x="-20" y="70"/>
      <point x="-20" y="-6" type="curve" smooth="yes"/>
      <point x="-20" y="-74"/>
      <point x="30" y="-112"/>
      <point x="79" y="-112" type="curve" smooth="yes"/>
    </contour>
    <contour>
      <point x="65" y="-59"/>
      <point x="55" y="-51"/>
      <point x="55" y="-38" type="curve" smooth="yes"/>
      <point x="55" y="-25"/>
      <point x="65" y="-16"/>
      <point x="76" y="-16" type="curve" smooth="yes"/>
      <point x="87" y="-16"/>
      <point x="98" y="-25"/>
      <point x="98" y="-38" type="curve" smooth="yes"/>
      <point x="98" y="-51"/>
      <point x="87" y="-59"/>
      <point x="76" y="-59" type="curve" smooth="yes"/>
    </contour>
  </outline>
</glyph>
<glyph name="bBRa" format="1">
  <advance width="485"/>
  <outline>
    <contour>
      <point x="385" y="76" type="line"/>
      <point x="385" y="202"/>
      <point x="208" y="296"/>
      <point x="106" y="317" type="curve"/>
      <point x="105" y="291" type="line"/>
      <point x="319" y="369"/>
      <point x="369" y="428"/>
      <point x="369" y="487" type="curve" smooth="yes"/>
      <point x="369" y="537"/>
      <point x="331" y="587"/>
      <point x="255" y="587" type="curve" smooth="yes"/>
      <point x="0" y="587" type="line" smooth="yes"/>
      <point x="-15" y="587"/>
      <point x="-34" y="577"/>
      <point x="-34" y="552" type="curve" smooth="yes"/>
      <point x="-34" y="528"/>
      <point x="-17" y="515"/>
      <point x="0" y="515" type="curve" smooth="yes"/>
      <point x="234" y="515" type="line" smooth="yes"/>
      <point x="266" y="515"/>
      <point x="310" y="514"/>
      <point x="310" y="495" type="curve" smooth="yes"/>
      <point x="310" y="468"/>
      <point x="213" y="429"/>
      <point x="44" y="357" type="curve" smooth="yes"/>
      <point x="14" y="345"/>
      <point x="3" y="326"/>
      <point x="3" y="304" type="curve" smooth="yes"/>
      <point x="3" y="270"/>
      <point x="29" y="257"/>
      <point x="59" y="248" type="curve" smooth="yes"/>
      <point x="114" y="231"/>
      <point x="329" y="161"/>
      <point x="329" y="49" type="curve"/>
    </contour>
    <contour>
      <point x="367" y="-23" type="line"/>
      <point x="357" y="20"/>
      <point x="318" y="67"/>
      <point x="249" y="67" type="curve" smooth="yes"/>
      <point x="209" y="67"/>
      <point x="158" y="52"/>
      <point x="125" y="52" type="curve" smooth="yes"/>
      <point x="92" y="52"/>
      <point x="79" y="67"/>
      <point x="79" y="90" type="curve" smooth="yes"/>
      <point x="79" y="107"/>
      <point x="86" y="122"/>
      <point x="86" y="136" type="curve" smooth="yes"/>
      <point x="86" y="156"/>
      <point x="73" y="167"/>
      <point x="54" y="167" type="curve" smooth="yes"/>
      <point x="20" y="167"/>
      <point x="4" y="127"/>
      <point x="4" y="89" type="curve" smooth="yes"/>
      <point x="4" y="30"/>
      <point x="41" y="-28"/>
      <point x="122" y="-28" type="curve" smooth="yes"/>
      <point x="174" y="-28"/>
      <point x="225" y="-5"/>
      <point x="269" y="-5" type="curve" smooth="yes"/>
      <point x="307" y="-5"/>
      <point x="329" y="-22"/>
      <point x="329" y="-56" type="curve"/>
    </contour>
    <contour>
      <point x="392" y="-105"/>
      <point x="410" y="-84"/>
      <point x="410" y="-56" type="curve" smooth="yes"/>
      <point x="410" y="444" type="line" smooth="yes"/>
      <point x="410" y="504"/>
      <point x="412" y="515"/>
      <point x="446" y="515" type="curve" smooth="yes"/>
      <point x="485" y="515" type="line" smooth="yes"/>
      <point x="507" y="515"/>
      <point x="524" y="530"/>
      <point x="524" y="552" type="curve" smooth="yes"/>
      <point x="524" y="572"/>
      <point x="507" y="587"/>
      <point x="485" y="587" type="curve" smooth="yes"/>
      <point x="426" y="587" type="line" smooth="yes"/>
      <point x="367" y="587"/>
      <point x="329" y="548"/>
      <point x="329" y="463" type="curve" smooth="yes"/>
      <point x="329" y="-56" type="line" smooth="yes"/>
      <point x="329" y="-84"/>
      <point x="346" y="-105"/>
      <point x="369" y="-105" type="curve" smooth="yes"/>
    </contour>
  </outline>
</glyph>
<glyph name="bBRa_bSignU" format="1">
  <advance width="709"/>
  <outline>
    <contour>
      <point x="621" y="164"/>
      <point x="688" y="221"/>
      <point x="688" y="311" type="curve" smooth="yes"/>
      <point x="688" y="389"/>
      <point x="637" y="451"/>
      <point x="563" y="451" type="curve" smooth="yes"/>
      <point x="503" y="451"/>
      <point x="465" y="411"/>
      <point x="465" y="364" type="curve" smooth="yes"/>
      <point x="465" y="310"/>
      <point x="515" y="277"/>
      <point x="559" y="277" type="curve" smooth="yes"/>
      <point x="604" y="277"/>
      <point x="636" y="313"/>
      <point x="636" y="352" type="curve" smooth="yes"/>
      <point x="636" y="378"/>
      <point x="622" y="407"/>
      <point x="592" y="419" type="curve"/>
      <point x="581" y="391" type="line"/>
      <point x="613" y="379"/>
      <point x="629" y="343"/>
      <point x="629" y="316" type="curve" smooth="yes"/>
      <point x="629" y="276"/>
      <point x="595" y="238"/>
      <point x="542" y="238" type="curve" smooth="yes"/>
      <point x="480" y="238"/>
      <point x="410" y="289"/>
      <point x="410" y="377" type="curve"/>
      <point x="365" y="354" type="line"/>
      <point x="365" y="269"/>
      <point x="430" y="164"/>
      <point x="540" y="164" type="curve" smooth="yes"/>
    </contour>
    <contour>
      <point x="552" y="336"/>
      <point x="541" y="347"/>
      <point x="541" y="361" type="curve" smooth="yes"/>
      <point x="541" y="377"/>
      <point x="552" y="386"/>
      <point x="567" y="386" type="curve" smooth="yes"/>
      <point x="580" y="386"/>
      <point x="592" y="377"/>
      <point x="592" y="361" type="curve" smooth="yes"/>
      <point x="592" y="346"/>
      <point x="580" y="336"/>
      <point x="567" y="336" type="curve" smooth="yes"/>
    </contour>
    <contour>
      <point x="709" y="515" type="line" smooth="yes"/>
      <point x="731" y="515"/>
      <point x="748" y="531"/>
      <point x="748" y="552" type="curve" smooth="yes"/>
      <point x="748" y="572"/>
      <point x="731" y="587"/>
      <point x="709" y="587" type="curve" smooth="yes"/>
      <point x="485" y="587" type="line" smooth="yes"/>
      <point x="462" y="587"/>
      <point x="445" y="572"/>
      <point x="445" y="552" type="curve" smooth="yes"/>
      <point x="445" y="531"/>
      <point x="462" y="515"/>
      <point x="485" y="515" type="curve" smooth="yes"/>
    </contour>
    <component base="bBRa"/>
  </outline>
</glyph>
<glyph name="bBa" format="1">
  <advance width="485"/>
  <outline>
    <contour>
      <point x="385" y="76" type="line"/>
      <point x="385" y="202"/>
      <point x="172" y="309"/>
      <point x="70" y="317" type="curve"/>
      <point x="105" y="291" type="line"/>
      <point x="319" y="369"/>
      <point x="369" y="428"/>
      <point x="369" y="487" type="curve" smooth="yes"/>
      <point x="369" y="537"/>
      <point x="331" y="587"/>
      <point x="255" y="587" type="curve" smooth="yes"/>
      <point x="0" y="587" type="line" smooth="yes"/>
      <point x="-15" y="587"/>
      <point x="-34" y="577"/>
      <point x="-34" y="552" type="curve" smooth="yes"/>
      <point x="-34" y="528"/>
      <point x="-17" y="515"/>
      <point x="0" y="515" type="curve" smooth="yes"/>
      <point x="234" y="515" type="line" smooth="yes"/>
      <point x="266" y="515"/>
      <point x="310" y="514"/>
      <point x="310" y="495" type="curve" smooth="yes"/>
      <point x="310" y="468"/>
      <point x="213" y="429"/>
      <point x="44" y="357" type="curve" smooth="yes"/>
      <point x="14" y="345"/>
      <point x="3" y="326"/>
      <point x="3" y="304" type="curve" smooth="yes"/>
      <point x="3" y="270"/>
      <point x="29" y="257"/>
      <point x="59" y="248" type="curve" smooth="yes"/>
      <point x="114" y="231"/>
      <point x="329" y="161"/>
      <point x="329" y="49" type="curve"/>
    </contour>
    <contour>
      <point x="392" y="-12"/>
      <point x="410" y="9"/>
      <point x="410" y="36" type="curve" smooth="yes"/>
      <point x="410" y="444" type="line" smooth="yes"/>
      <point x="410" y="504"/>
      <point x="412" y="515"/>
      <point x="446" y="515" type="curve" smooth="yes"/>
      <point x="485" y="515" type="line" smooth="yes"/>
      <point x="507" y="515"/>
      <point x="525" y="530"/>
      <point x="525" y="552" type="curve" smooth="yes"/>
      <point x="525" y="572"/>
      <point x="507" y="587"/>
      <point x="485" y="587" type="curve" smooth="yes"/>
      <point x="426" y="587" type="line" smooth="yes"/>
      <point x="367" y="587"/>
      <point x="329" y="548"/>
      <point x="329" y="463" type="curve" smooth="yes"/>
      <point x="329" y="36" type="line" smooth="yes"/>
      <point x="329" y="9"/>
      <point x="346" y="-12"/>
      <point x="369" y="-12" type="curve" smooth="yes"/>
    </contour>
  </outline>
</glyph>
<glyph name="bBaphala" format="1">
  <advance width="0"/>
  <outline>
    <contour>
      <point x="-88" y="-165"/>
      <point x="-74" y="-142"/>
      <point x="-74" y="-111" type="curve" smooth="yes"/>
      <point x="-73" y="118" type="line" smooth="yes"/>
      <point x="-73" y="140"/>
      <point x="-79" y="158"/>
      <point x="-104" y="158" type="curve" smooth="yes"/>
      <point x="-122" y="158"/>
      <point x="-145" y="144"/>
      <point x="-174" y="127" type="curve" smooth="yes"/>
      <point x="-316" y="41" type="line" smooth="yes"/>
      <point x="-341" y="26"/>
      <point x="-353" y="13"/>
      <point x="-353" y="-6" type="curve" smooth="yes"/>
      <point x="-353" y="-18"/>
      <point x="-348" y="-43"/>
      <point x="-317" y="-50" type="curve" smooth="yes"/>
      <point x="-261" y="-63"/>
      <point x="-164" y="-83"/>
      <point x="-153" y="-127" type="curve"/>
      <point x="-104" y="-96" type="line"/>
      <point x="-131" y="-33"/>
      <point x="-229" y="10"/>
      <point x="-303" y="10" type="curve"/>
      <point x="-275" y="-17" type="line"/>
      <point x="-128" y="73" type="line"/>
      <point x="-155" y="100" type="line"/>
      <point x="-155" y="-111" type="line" smooth="yes"/>
      <point x="-155" y="-142"/>
      <point x="-139" y="-165"/>
      <point x="-112" y="-165" type="curve" smooth="yes"/>
    </contour>
  </outline>
</glyph>
<glyph name="bBhBa" format="1">
  <advance width="558"/>
  <outline>
    <contour>
      <point x="475" y="-126"/>
      <point x="492" y="-105"/>
      <point x="492" y="-77" type="curve" smooth="yes"/>
      <point x="492" y="250" type="line" smooth="yes"/>
      <point x="492" y="352"/>
      <point x="435" y="409"/>
      <point x="388" y="409" type="curve" smooth="yes"/>
      <point x="370" y="409"/>
      <point x="355" y="397"/>
      <point x="350" y="369" type="curve" smooth="yes"/>
      <point x="345" y="323"/>
      <point x="290" y="279"/>
      <point x="231" y="279" type="curve" smooth="yes"/>
      <point x="205" y="279"/>
      <point x="157" y="280"/>
      <point x="130" y="328" type="curve"/>
      <point x="105" y="321" type="line"/>
      <point x="115" y="288"/>
      <point x="156" y="276"/>
      <point x="178" y="276" type="curve" smooth="yes"/>
      <point x="227" y="276"/>
      <point x="267" y="314"/>
      <point x="267" y="367" type="curve" smooth="yes"/>
      <point x="267" y="428"/>
      <point x="223" y="463"/>
      <point x="167" y="463" type="curve" smooth="yes"/>
      <point x="116" y="463"/>
      <point x="62" y="427"/>
      <point x="62" y="358" type="curve" smooth="yes"/>
      <point x="62" y="266"/>
      <point x="143" y="201"/>
      <point x="229" y="201" type="curve" smooth="yes"/>
      <point x="350" y="201"/>
      <point x="409" y="306"/>
      <point x="409" y="331" type="curve"/>
      <point x="375" y="327" type="line"/>
      <point x="393" y="327"/>
      <point x="409" y="304"/>
      <point x="409" y="261" type="curve" smooth="yes"/>
      <point x="409" y="-77" type="line" smooth="yes"/>
      <point x="409" y="-105"/>
      <point x="428" y="-126"/>
      <point x="451" y="-126" type="curve" smooth="yes"/>
    </contour>
    <contour>
      <point x="459" y="-67" type="line"/>
      <point x="425" y="40"/>
      <point x="289" y="77"/>
      <point x="202" y="77" type="curve"/>
      <point x="210" y="43" type="line"/>
      <point x="449" y="173" type="line"/>
      <point x="434" y="258" type="line"/>
      <point x="163" y="111" type="line" smooth="yes"/>
      <point x="132" y="94"/>
      <point x="122" y="78"/>
      <point x="122" y="59" type="curve" smooth="yes"/>
      <point x="122" y="37"/>
      <point x="139" y="22"/>
      <point x="162" y="15" type="curve" smooth="yes"/>
      <point x="238" y="-9"/>
      <point x="393" y="-38"/>
      <point x="414" y="-98" type="curve"/>
    </contour>
    <contour>
      <point x="150" y="327"/>
      <point x="133" y="339"/>
      <point x="133" y="359" type="curve" smooth="yes"/>
      <point x="133" y="379"/>
      <point x="150" y="390"/>
      <point x="165" y="390" type="curve" smooth="yes"/>
      <point x="180" y="390"/>
      <point x="197" y="379"/>
      <point x="197" y="358" type="curve" smooth="yes"/>
      <point x="197" y="336"/>
      <point x="177" y="327"/>
      <point x="165" y="327" type="curve" smooth="yes"/>
    </contour>
    <contour>
      <point x="558" y="515" type="line" smooth="yes"/>
      <point x="580" y="515"/>
      <point x="597" y="531"/>
      <point x="597" y="552" type="curve" smooth="yes"/>
      <point x="597" y="572"/>
      <point x="580" y="587"/>
      <point x="558" y="587" type="curve" smooth="yes"/>
      <point x="-1" y="587" type="line" smooth="yes"/>
      <point x="-23" y="587"/>
      <point x="-40" y="572"/>
      <point x="-40" y="552" type="curve" smooth="yes"/>
      <point x="-40" y="531"/>
      <point x="-23" y="515"/>
      <point x="-1" y="515" type="curve" smooth="yes"/>
    </contour>
  </outline>
</glyph>
<glyph name="bBhLa" format="1">
  <advance width="558"/>
  <outline>
    <contour>
      <point x="475" y="-92"/>
      <point x="492" y="-72"/>
      <point x="492" y="-44" type="curve" smooth="yes"/>
      <point x="492" y="250" type="line" smooth="yes"/>
      <point x="492" y="352"/>
      <point x="435" y="409"/>
      <point x="388" y="409" type="curve" smooth="yes"/>
      <point x="370" y="409"/>
      <point x="355" y="395"/>
      <point x="350" y="362" type="curve" smooth="yes"/>
      <point x="345" y="326"/>
      <point x="294" y="275"/>
      <point x="232" y="275" type="curve" smooth="yes"/>
      <point x="211" y="275"/>
      <point x="193" y="281"/>
      <point x="175" y="295" type="curve"/>
      <point x="134" y="282" type="line"/>
      <point x="147" y="277"/>
      <point x="159" y="275"/>
      <point x="170" y="275" type="curve" smooth="yes"/>
      <point x="232" y="275"/>
      <point x="267" y="323"/>
      <point x="267" y="367" type="curve" smooth="yes"/>
      <point x="267" y="428"/>
      <point x="223" y="463"/>
      <point x="167" y="463" type="curve" smooth="yes"/>
      <point x="116" y="463"/>
      <point x="62" y="427"/>
      <point x="62" y="358" type="curve" smooth="yes"/>
      <point x="62" y="266"/>
      <point x="143" y="201"/>
      <point x="229" y="201" type="curve" smooth="yes"/>
      <point x="350" y="201"/>
      <point x="409" y="306"/>
      <point x="409" y="331" type="curve"/>
      <point x="375" y="327" type="line"/>
      <point x="393" y="327"/>
      <point x="409" y="304"/>
      <point x="409" y="261" type="curve" smooth="yes"/>
      <point x="409" y="-44" type="line" smooth="yes"/>
      <point x="409" y="-72"/>
      <point x="428" y="-92"/>
      <point x="451" y="-92" type="curve" smooth="yes"/>
    </contour>
    <contour>
      <point x="150" y="327"/>
      <point x="133" y="339"/>
      <point x="133" y="359" type="curve" smooth="yes"/>
      <point x="133" y="379"/>
      <point x="150" y="390"/>
      <point x="165" y="390" type="curve" smooth="yes"/>
      <point x="180" y="390"/>
      <point x="197" y="379"/>
      <point x="197" y="358" type="curve" smooth="yes"/>
      <point x="197" y="336"/>
      <point x="177" y="327"/>
      <point x="165" y="327" type="curve" smooth="yes"/>
    </contour>
    <contour>
      <point x="558" y="515" type="line" smooth="yes"/>
      <point x="580" y="515"/>
      <point x="597" y="531"/>
      <point x="597" y="552" type="curve" smooth="yes"/>
      <point x="597" y="572"/>
      <point x="580" y="587"/>
      <point x="558" y="587" type="curve" smooth="yes"/>
      <point x="-1" y="587" type="line" smooth="yes"/>
      <point x="-23" y="587"/>
      <point x="-40" y="572"/>
      <point x="-40" y="552" type="curve" smooth="yes"/>
      <point x="-40" y="531"/>
      <point x="-23" y="515"/>
      <point x="-1" y="515" type="curve" smooth="yes"/>
    </contour>
    <contour>
      <point x="201" y="-91"/>
      <point x="229" y="-59"/>
      <point x="229" y="-22" type="curve" smooth="yes"/>
      <point x="229" y="17"/>
      <point x="198" y="49"/>
      <point x="159" y="49" type="curve" smooth="yes"/>
      <point x="120" y="49"/>
      <point x="99" y="15"/>
      <point x="99" y="-12" type="curve" smooth="yes"/>
      <point x="99" y="-26"/>
      <point x="104" y="-43"/>
      <point x="114" y="-54" type="curve"/>
      <point x="130" y="-44" type="line"/>
      <point x="119" y="-32"/>
      <point x="114" y="-13"/>
      <point x="114" y="3" type="curve" smooth="yes"/>
      <point x="114" y="52"/>
      <point x="162" y="90"/>
      <point x="218" y="90" type="curve" smooth="yes"/>
      <point x="257" y="90"/>
      <point x="306" y="67"/>
      <point x="306" y="35" type="curve" smooth="yes"/>
      <point x="306" y="26"/>
      <point x="302" y="17"/>
      <point x="294" y="17" type="curve" smooth="yes"/>
      <point x="287" y="17"/>
      <point x="281" y="23"/>
      <point x="281" y="32" type="curve" smooth="yes"/>
      <point x="281" y="56"/>
      <point x="315" y="74"/>
      <point x="344" y="74" type="curve" smooth="yes"/>
      <point x="384" y="74"/>
      <point x="410" y="42"/>
      <point x="409" y="-23" type="curve"/>
      <point x="450" y="-1" type="line"/>
      <point x="452" y="42"/>
      <point x="423" y="130"/>
      <point x="341" y="130" type="curve" smooth="yes"/>
      <point x="281" y="130"/>
      <point x="236" y="83"/>
      <point x="236" y="31" type="curve" smooth="yes"/>
      <point x="236" y="-5"/>
      <point x="256" y="-36"/>
      <point x="295" y="-36" type="curve" smooth="yes"/>
      <point x="328" y="-36"/>
      <point x="351" y="-14"/>
      <point x="351" y="26" type="curve" smooth="yes"/>
      <point x="351" y="93"/>
      <point x="288" y="154"/>
      <point x="205" y="154" type="curve" smooth="yes"/>
      <point x="121" y="154"/>
      <point x="59" y="91"/>
      <point x="59" y="16" type="curve" smooth="yes"/>
      <point x="59" y="-53"/>
      <point x="109" y="-91"/>
      <point x="157" y="-91" type="curve" smooth="yes"/>
    </contour>
    <contour>
      <point x="144" y="-37"/>
      <point x="134" y="-30"/>
      <point x="134" y="-16" type="curve" smooth="yes"/>
      <point x="134" y="-3"/>
      <point x="144" y="5"/>
      <point x="155" y="5" type="curve" smooth="yes"/>
      <point x="166" y="5"/>
      <point x="177" y="-3"/>
      <point x="177" y="-16" type="curve" smooth="yes"/>
      <point x="177" y="-30"/>
      <point x="166" y="-37"/>
      <point x="155" y="-37" type="curve" smooth="yes"/>
    </contour>
  </outline>
</glyph>
<glyph name="bBhRa" format="1">
  <advance width="558"/>
  <outline>
    <contour>
      <point x="480" y="-95"/>
      <point x="491" y="-66"/>
      <point x="491" y="-42" type="curve" smooth="yes"/>
      <point x="491" y="250" type="line" smooth="yes"/>
      <point x="491" y="352"/>
      <point x="434" y="409"/>
      <point x="388" y="409" type="curve" smooth="yes"/>
      <point x="370" y="409"/>
      <point x="355" y="395"/>
      <point x="354" y="365" type="curve" smooth="yes"/>
      <point x="351" y="326"/>
      <point x="308" y="275"/>
      <point x="253" y="275" type="curve" smooth="yes"/>
      <point x="232" y="275"/>
      <point x="215" y="282"/>
      <point x="197" y="295" type="curve"/>
      <point x="137" y="289" type="line"/>
      <point x="157" y="280"/>
      <point x="177" y="275"/>
      <point x="193" y="275" type="curve" smooth="yes"/>
      <point x="254" y="275"/>
      <point x="289" y="326"/>
      <point x="289" y="367" type="curve" smooth="yes"/>
      <point x="289" y="428"/>
      <point x="245" y="463"/>
      <point x="189" y="463" type="curve" smooth="yes"/>
      <point x="138" y="463"/>
      <point x="84" y="427"/>
      <point x="84" y="358" type="curve" smooth="yes"/>
      <point x="84" y="266"/>
      <point x="165" y="201"/>
      <point x="252" y="201" type="curve" smooth="yes"/>
      <point x="374" y="201"/>
      <point x="406" y="301"/>
      <point x="416" y="331" type="curve"/>
      <point x="366" y="316" type="line"/>
      <point x="398" y="316"/>
      <point x="409" y="296"/>
      <point x="409" y="249" type="curve" smooth="yes"/>
      <point x="409" y="-42" type="line" smooth="yes"/>
      <point x="409" y="-66"/>
      <point x="420" y="-95"/>
      <point x="453" y="-95" type="curve" smooth="yes"/>
    </contour>
    <contour>
      <point x="172" y="327"/>
      <point x="155" y="339"/>
      <point x="155" y="359" type="curve" smooth="yes"/>
      <point x="155" y="379"/>
      <point x="172" y="390"/>
      <point x="187" y="390" type="curve" smooth="yes"/>
      <point x="202" y="390"/>
      <point x="219" y="379"/>
      <point x="219" y="358" type="curve" smooth="yes"/>
      <point x="219" y="336"/>
      <point x="199" y="327"/>
      <point x="187" y="327" type="curve" smooth="yes"/>
    </contour>
    <contour>
      <point x="558" y="515" type="line" smooth="yes"/>
      <point x="580" y="515"/>
      <point x="597" y="531"/>
      <point x="597" y="552" type="curve" smooth="yes"/>
      <point x="597" y="572"/>
      <point x="580" y="587"/>
      <point x="558" y="587" type="curve" smooth="yes"/>
      <point x="-1" y="587" type="line" smooth="yes"/>
      <point x="-23" y="587"/>
      <point x="-40" y="572"/>
      <point x="-40" y="552" type="curve" smooth="yes"/>
      <point x="-40" y="531"/>
      <point x="-23" y="515"/>
      <point x="-1" y="515" type="curve" smooth="yes"/>
    </contour>
    <contour>
      <point x="446" y="3" type="line"/>
      <point x="424" y="73"/>
      <point x="368" y="96"/>
      <point x="317" y="96" type="curve" smooth="yes"/>
      <point x="254" y="96"/>
      <point x="202" y="72"/>
      <point x="161" y="72" type="curve" smooth="yes"/>
      <point x="127" y="72"/>
      <point x="104" y="89"/>
      <point x="104" y="120" type="curve" smooth="yes"/>
      <point x="104" y="134"/>
      <point x="109" y="147"/>
      <point x="109" y="159" type="curve" smooth="yes"/>
      <point x="109" y="178"/>
      <point x="97" y="194"/>
      <point x="76" y="194" type="curve" smooth="yes"/>
      <point x="45" y="194"/>
      <point x="29" y="155"/>
      <point x="29" y="120" type="curve" smooth="yes"/>
      <point x="29" y="54"/>
      <point x="73" y="-9"/>
      <point x="160" y="-9" type="curve" smooth="yes"/>
      <point x="213" y="-9"/>
      <point x="287" y="17"/>
      <point x="337" y="17" type="curve" smooth="yes"/>
      <point x="375" y="17"/>
      <point x="409" y="-4"/>
      <point x="409" y="-42" type="curve"/>
    </contour>
  </outline>
</glyph>
<glyph name="bBhRa_bSignU" format="1">
  <advance width="778"/>
  <outline>
    <contour>
      <point x="700" y="63"/>
      <point x="768" y="119"/>
      <point x="768" y="210" type="curve" smooth="yes"/>
      <point x="768" y="288"/>
      <point x="717" y="350"/>
      <point x="643" y="350" type="curve" smooth="yes"/>
      <point x="583" y="350"/>
      <point x="544" y="310"/>
      <point x="544" y="262" type="curve" smooth="yes"/>
      <point x="544" y="209"/>
      <point x="595" y="176"/>
      <point x="638" y="176" type="curve" smooth="yes"/>
      <point x="683" y="176"/>
      <point x="715" y="212"/>
      <point x="715" y="251" type="curve" smooth="yes"/>
      <point x="715" y="276"/>
      <point x="702" y="306"/>
      <point x="671" y="317" type="curve"/>
      <point x="661" y="289" type="line"/>
      <point x="692" y="278"/>
      <point x="709" y="241"/>
      <point x="709" y="214" type="curve" smooth="yes"/>
      <point x="709" y="174"/>
      <point x="675" y="136"/>
      <point x="622" y="136" type="curve" smooth="yes"/>
      <point x="557" y="136"/>
      <point x="491" y="190"/>
      <point x="491" y="265" type="curve"/>
      <point x="447" y="241" type="line"/>
      <point x="447" y="165"/>
      <point x="512" y="63"/>
      <point x="621" y="63" type="curve" smooth="yes"/>
    </contour>
    <contour>
      <point x="632" y="234"/>
      <point x="621" y="245"/>
      <point x="621" y="259" type="curve" smooth="yes"/>
      <point x="621" y="276"/>
      <point x="632" y="285"/>
      <point x="647" y="285" type="curve" smooth="yes"/>
      <point x="660" y="285"/>
      <point x="672" y="276"/>
      <point x="672" y="259" type="curve" smooth="yes"/>
      <point x="672" y="244"/>
      <point x="660" y="234"/>
      <point x="647" y="234" type="curve" smooth="yes"/>
    </contour>
    <contour>
      <point x="778" y="515" type="line" smooth="yes"/>
      <point x="800" y="515"/>
      <point x="817" y="531"/>
      <point x="817" y="552" type="curve" smooth="yes"/>
      <point x="817" y="572"/>
      <point x="800" y="587"/>
      <point x="778" y="587" type="curve" smooth="yes"/>
      <point x="552" y="587" type="line" smooth="yes"/>
      <point x="545" y="587"/>
      <point x="522" y="582"/>
      <point x="522" y="552" type="curve" smooth="yes"/>
      <point x="522" y="523"/>
      <point x="543" y="515"/>
      <point x="552" y="515" type="curve" smooth="yes"/>
    </contour>
    <component base="bBhRa"/>
  </outline>
</glyph>
<glyph name="bBhRa_bSignUu" format="1">
  <advance width="725"/>
  <outline>
    <contour>
      <point x="725" y="515" type="line" smooth="yes"/>
      <point x="747" y="515"/>
      <point x="764" y="531"/>
      <point x="764" y="552" type="curve" smooth="yes"/>
      <point x="764" y="572"/>
      <point x="747" y="587"/>
      <point x="725" y="587" type="curve" smooth="yes"/>
      <point x="531" y="587" type="line" smooth="yes"/>
      <point x="524" y="587"/>
      <point x="501" y="582"/>
      <point x="501" y="552" type="curve" smooth="yes"/>
      <point x="501" y="523"/>
      <point x="522" y="515"/>
      <point x="531" y="515" type="curve" smooth="yes"/>
    </contour>
    <contour>
      <point x="633" y="-11"/>
      <point x="647" y="12"/>
      <point x="647" y="55" type="curve" smooth="yes"/>
      <point x="647" y="196" type="line" smooth="yes"/>
      <point x="647" y="297"/>
      <point x="674" y="322"/>
      <point x="674" y="362" type="curve" smooth="yes"/>
      <point x="674" y="382"/>
      <point x="664" y="402"/>
      <point x="635" y="402" type="curve" smooth="yes"/>
      <point x="603" y="402"/>
      <point x="461" y="311"/>
      <point x="430" y="273" type="curve"/>
      <point x="431" y="178" type="line"/>
      <point x="480" y="223"/>
      <point x="569" y="288"/>
      <point x="617" y="315" type="curve"/>
      <point x="613" y="332" type="line"/>
      <point x="579" y="296"/>
      <point x="566" y="249"/>
      <point x="566" y="208" type="curve" smooth="yes"/>
      <point x="566" y="55" type="line" smooth="yes"/>
      <point x="566" y="6"/>
      <point x="587" y="-11"/>
      <point x="607" y="-11" type="curve" smooth="yes"/>
    </contour>
    <component base="bBhRa"/>
  </outline>
</glyph>
<glyph name="bBha" format="1">
  <advance width="571"/>
  <outline>
    <contour>
      <point x="465" y="30"/>
      <point x="539" y="141"/>
      <point x="539" y="246" type="curve" smooth="yes"/>
      <point x="539" y="320"/>
      <point x="510" y="408"/>
      <point x="464" y="408" type="curve" smooth="yes"/>
      <point x="443" y="408"/>
      <point x="432" y="393"/>
      <point x="432" y="364" type="curve" smooth="yes"/>
      <point x="431" y="330"/>
      <point x="390" y="283"/>
      <point x="333" y="283" type="curve" smooth="yes"/>
      <point x="306" y="283"/>
      <point x="269" y="295"/>
      <point x="242" y="331" type="curve"/>
      <point x="210" y="318" type="line"/>
      <point x="219" y="298"/>
      <point x="247" y="285"/>
      <point x="276" y="285" type="curve" smooth="yes"/>
      <point x="326" y="285"/>
      <point x="369" y="329"/>
      <point x="369" y="377" type="curve" smooth="yes"/>
      <point x="369" y="431"/>
      <point x="328" y="470"/>
      <point x="270" y="470" type="curve" smooth="yes"/>
      <point x="218" y="470"/>
      <point x="164" y="434"/>
      <point x="164" y="365" type="curve" smooth="yes"/>
      <point x="164" y="273"/>
      <point x="245" y="205"/>
      <point x="332" y="205" type="curve" smooth="yes"/>
      <point x="424" y="205"/>
      <point x="478" y="283"/>
      <point x="478" y="334" type="curve"/>
      <point x="462" y="322" type="line"/>
      <point x="468" y="306"/>
      <point x="472" y="288"/>
      <point x="472" y="271" type="curve" smooth="yes"/>
      <point x="472" y="192"/>
      <point x="417" y="122"/>
      <point x="322" y="122" type="curve" smooth="yes"/>
      <point x="203" y="122"/>
      <point x="114" y="261"/>
      <point x="86" y="395" type="curve" smooth="yes"/>
      <point x="80" y="423"/>
      <point x="66" y="440"/>
      <point x="44" y="440" type="curve" smooth="yes"/>
      <point x="23" y="440"/>
      <point x="11" y="417"/>
      <point x="11" y="400" type="curve" smooth="yes"/>
      <point x="11" y="297"/>
      <point x="117" y="30"/>
      <point x="326" y="30" type="curve" smooth="yes"/>
    </contour>
    <contour>
      <point x="249" y="335"/>
      <point x="232" y="347"/>
      <point x="232" y="367" type="curve" smooth="yes"/>
      <point x="232" y="388"/>
      <point x="249" y="398"/>
      <point x="264" y="398" type="curve" smooth="yes"/>
      <point x="279" y="398"/>
      <point x="296" y="387"/>
      <point x="296" y="366" type="curve" smooth="yes"/>
      <point x="296" y="344"/>
      <point x="276" y="335"/>
      <point x="264" y="335" type="curve" smooth="yes"/>
    </contour>
    <contour>
      <point x="571" y="515" type="line" smooth="yes"/>
      <point x="582" y="515"/>
      <point x="607" y="522"/>
      <point x="607" y="552" type="curve" smooth="yes"/>
      <point x="607" y="579"/>
      <point x="584" y="587"/>
      <point x="571" y="587" type="curve" smooth="yes"/>
      <point x="0" y="587" type="line" smooth="yes"/>
      <point x="-16" y="587"/>
      <point x="-39" y="579"/>
      <point x="-39" y="552" type="curve" smooth="yes"/>
      <point x="-39" y="522"/>
      <point x="-16" y="515"/>
      <point x="0" y="515" type="curve" smooth="yes"/>
    </contour>
  </outline>
</glyph>
<glyph name="bCBa" format="1">
  <advance width="465"/>
  <outline>
    <contour>
      <point x="312" y="48"/>
      <point x="444" y="206"/>
      <point x="444" y="299" type="curve" smooth="yes"/>
      <point x="443" y="357"/>
      <point x="400" y="370"/>
      <point x="307" y="387" type="curve" smooth="yes"/>
      <point x="229" y="402"/>
      <point x="176" y="424"/>
      <point x="176" y="473" type="curve" smooth="yes"/>
      <point x="176" y="508"/>
      <point x="199" y="515"/>
      <point x="242" y="515" type="curve" smooth="yes"/>
      <point x="465" y="515" type="line" smooth="yes"/>
      <point x="487" y="515"/>
      <point x="504" y="531"/>
      <point x="504" y="552" type="curve" smooth="yes"/>
      <point x="504" y="572"/>
      <point x="487" y="587"/>
      <point x="465" y="587" type="curve" smooth="yes"/>
      <point x="188" y="587" type="line" smooth="yes"/>
      <point x="137" y="587"/>
      <point x="107" y="550"/>
      <point x="107" y="519" type="curve"/>
      <point x="119" y="523" type="line"/>
      <point x="117" y="550"/>
      <point x="82" y="587"/>
      <point x="36" y="587" type="curve" smooth="yes"/>
      <point x="-1" y="587" type="line" smooth="yes"/>
      <point x="-23" y="587"/>
      <point x="-40" y="572"/>
      <point x="-40" y="552" type="curve" smooth="yes"/>
      <point x="-40" y="531"/>
      <point x="-23" y="515"/>
      <point x="-1" y="515" type="curve" smooth="yes"/>
      <point x="34" y="515" type="line" smooth="yes"/>
      <point x="85" y="515"/>
      <point x="93" y="486"/>
      <point x="93" y="421" type="curve" smooth="yes"/>
      <point x="92" y="194" type="line" smooth="yes"/>
      <point x="92" y="106"/>
      <point x="109" y="48"/>
      <point x="186" y="48" type="curve" smooth="yes"/>
    </contour>
    <contour>
      <point x="345" y="-126" type="line"/>
      <point x="331" y="-69"/>
      <point x="224" y="14"/>
      <point x="155" y="14" type="curve"/>
      <point x="180" y="-14" type="line"/>
      <point x="321" y="89" type="line"/>
      <point x="278" y="144" type="line"/>
      <point x="136" y="42" type="line" smooth="yes"/>
      <point x="109" y="23"/>
      <point x="97" y="14"/>
      <point x="97" y="-6" type="curve" smooth="yes"/>
      <point x="97" y="-18"/>
      <point x="103" y="-38"/>
      <point x="133" y="-45" type="curve" smooth="yes"/>
      <point x="189" y="-60"/>
      <point x="278" y="-99"/>
      <point x="295" y="-153" type="curve"/>
    </contour>
    <contour>
      <point x="360" y="-186"/>
      <point x="373" y="-166"/>
      <point x="373" y="-138" type="curve" smooth="yes"/>
      <point x="373" y="167" type="line"/>
      <point x="292" y="138" type="line"/>
      <point x="292" y="-138" type="line" smooth="yes"/>
      <point x="292" y="-166"/>
      <point x="309" y="-186"/>
      <point x="336" y="-186" type="curve" smooth="yes"/>
    </contour>
    <contour>
      <point x="177" y="145"/>
      <point x="174" y="176"/>
      <point x="174" y="208" type="curve" smooth="yes"/>
      <point x="174" y="398" type="line"/>
      <point x="152" y="390" type="line"/>
      <point x="175" y="344"/>
      <point x="243" y="327"/>
      <point x="296" y="320" type="curve" smooth="yes"/>
      <point x="340" y="315"/>
      <point x="351" y="300"/>
      <point x="351" y="279" type="curve" smooth="yes"/>
      <point x="351" y="239"/>
      <point x="257" y="145"/>
      <point x="207" y="145" type="curve" smooth="yes"/>
    </contour>
  </outline>
</glyph>
<glyph name="bCCa" format="1">
  <advance width="734"/>
  <outline>
    <contour>
      <point x="287" y="62"/>
      <point x="409" y="203"/>
      <point x="409" y="290" type="curve" smooth="yes"/>
      <point x="409" y="332"/>
      <point x="405" y="364"/>
      <point x="301" y="384" type="curve" smooth="yes"/>
      <point x="224" y="399"/>
      <point x="161" y="430"/>
      <point x="161" y="482" type="curve" smooth="yes"/>
      <point x="161" y="517"/>
      <point x="189" y="515"/>
      <point x="210" y="515" type="curve" smooth="yes"/>
      <point x="279" y="515" type="line"/>
      <point x="279" y="587" type="line"/>
      <point x="167" y="587" type="line" smooth="yes"/>
      <point x="124" y="587"/>
      <point x="96" y="565"/>
      <point x="96" y="524" type="curve"/>
      <point x="104" y="524" type="line"/>
      <point x="101" y="561"/>
      <point x="78" y="587"/>
      <point x="28" y="587" type="curve" smooth="yes"/>
      <point x="-1" y="587" type="line" smooth="yes"/>
      <point x="-23" y="587"/>
      <point x="-40" y="572"/>
      <point x="-40" y="552" type="curve" smooth="yes"/>
      <point x="-40" y="531"/>
      <point x="-23" y="515"/>
      <point x="-1" y="515" type="curve" smooth="yes"/>
      <point x="29" y="515" type="line" smooth="yes"/>
      <point x="74" y="515"/>
      <point x="84" y="484"/>
      <point x="84" y="430" type="curve" smooth="yes"/>
      <point x="84" y="199" type="line" smooth="yes"/>
      <point x="84" y="117"/>
      <point x="102" y="62"/>
      <point x="183" y="62" type="curve" smooth="yes"/>
    </contour>
    <contour>
      <point x="176" y="144"/>
      <point x="166" y="159"/>
      <point x="166" y="205" type="curve" smooth="yes"/>
      <point x="166" y="390" type="line"/>
      <point x="131" y="389" type="line"/>
      <point x="184" y="326"/>
      <point x="272" y="313"/>
      <point x="302" y="304" type="curve" smooth="yes"/>
      <point x="321" y="299"/>
      <point x="331" y="287"/>
      <point x="331" y="273" type="curve" smooth="yes"/>
      <point x="331" y="228"/>
      <point x="252" y="144"/>
      <point x="195" y="144" type="curve" smooth="yes"/>
    </contour>
    <component base="bCa" xOffset="269"/>
  </outline>
</glyph>
<glyph name="bCChBa" format="1">
  <advance width="772"/>
  <outline>
    <contour>
      <point x="770" y="-6"/>
      <point x="786" y="8"/>
      <point x="786" y="29" type="curve" smooth="yes"/>
      <point x="786" y="49"/>
      <point x="771" y="61"/>
      <point x="742" y="67" type="curve" smooth="yes"/>
      <point x="707" y="73"/>
      <point x="660" y="80"/>
      <point x="615" y="118" type="curve" smooth="yes"/>
      <point x="556" y="170"/>
      <point x="508" y="194"/>
      <point x="464" y="194" type="curve" smooth="yes"/>
      <point x="403" y="194"/>
      <point x="373" y="156"/>
      <point x="373" y="115" type="curve" smooth="yes"/>
      <point x="373" y="69"/>
      <point x="418" y="38"/>
      <point x="471" y="38" type="curve" smooth="yes"/>
      <point x="595" y="38"/>
      <point x="745" y="147"/>
      <point x="745" y="281" type="curve" smooth="yes"/>
      <point x="745" y="382"/>
      <point x="685" y="456"/>
      <point x="561" y="456" type="curve" smooth="yes"/>
      <point x="515" y="456"/>
      <point x="454" y="462"/>
      <point x="454" y="491" type="curve" smooth="yes"/>
      <point x="454" y="510"/>
      <point x="467" y="515"/>
      <point x="495" y="515" type="curve" smooth="yes"/>
      <point x="772" y="515" type="line" smooth="yes"/>
      <point x="794" y="515"/>
      <point x="811" y="531"/>
      <point x="811" y="552" type="curve" smooth="yes"/>
      <point x="811" y="572"/>
      <point x="794" y="587"/>
      <point x="772" y="587" type="curve" smooth="yes"/>
      <point x="470" y="587" type="line" smooth="yes"/>
      <point x="419" y="587"/>
      <point x="393" y="553"/>
      <point x="393" y="519" type="curve"/>
      <point x="407" y="522" type="line"/>
      <point x="403" y="559"/>
      <point x="363" y="587"/>
      <point x="318" y="587" type="curve" smooth="yes"/>
      <point x="167" y="587" type="line" smooth="yes"/>
      <point x="122" y="587"/>
      <point x="97" y="564"/>
      <point x="97" y="514" type="curve"/>
      <point x="112" y="514" type="line"/>
      <point x="108" y="559"/>
      <point x="78" y="587"/>
      <point x="28" y="587" type="curve" smooth="yes"/>
      <point x="-1" y="587" type="line" smooth="yes"/>
      <point x="-23" y="587"/>
      <point x="-40" y="572"/>
      <point x="-40" y="552" type="curve" smooth="yes"/>
      <point x="-40" y="531"/>
      <point x="-23" y="515"/>
      <point x="-1" y="515" type="curve" smooth="yes"/>
      <point x="29" y="515" type="line" smooth="yes"/>
      <point x="74" y="515"/>
      <point x="84" y="484"/>
      <point x="84" y="430" type="curve" smooth="yes"/>
      <point x="84" y="187" type="line" smooth="yes"/>
      <point x="84" y="117"/>
      <point x="108" y="62"/>
      <point x="176" y="62" type="curve" smooth="yes"/>
      <point x="308" y="62"/>
      <point x="425" y="225"/>
      <point x="425" y="287" type="curve" smooth="yes"/>
      <point x="425" y="330"/>
      <point x="413" y="371"/>
      <point x="301" y="390" type="curve" smooth="yes"/>
      <point x="230" y="403"/>
      <point x="161" y="430"/>
      <point x="161" y="480" type="curve" smooth="yes"/>
      <point x="161" y="515"/>
      <point x="189" y="515"/>
      <point x="217" y="515" type="curve" smooth="yes"/>
      <point x="307" y="515" type="line" smooth="yes"/>
      <point x="366" y="515"/>
      <point x="372" y="496"/>
      <point x="372" y="460" type="curve" smooth="yes"/>
      <point x="372" y="309" type="line" smooth="yes"/>
      <point x="372" y="252"/>
      <point x="394" y="213"/>
      <point x="465" y="213" type="curve" smooth="yes"/>
      <point x="559" y="213"/>
      <point x="651" y="303"/>
      <point x="647" y="376" type="curve"/>
      <point x="629" y="387" type="line"/>
      <point x="651" y="369"/>
      <point x="672" y="342"/>
      <point x="672" y="296" type="curve" smooth="yes"/>
      <point x="672" y="202"/>
      <point x="548" y="108"/>
      <point x="468" y="108" type="curve" smooth="yes"/>
      <point x="447" y="108"/>
      <point x="438" y="116"/>
      <point x="438" y="122" type="curve" smooth="yes"/>
      <point x="438" y="127"/>
      <point x="443" y="130"/>
      <point x="451" y="130" type="curve" smooth="yes"/>
      <point x="473" y="130"/>
      <point x="511" y="112"/>
      <point x="544" y="81" type="curve" smooth="yes"/>
      <point x="605" y="25"/>
      <point x="700" y="-6"/>
      <point x="744" y="-6" type="curve" smooth="yes"/>
    </contour>
    <contour>
      <point x="177" y="144"/>
      <point x="166" y="160"/>
      <point x="166" y="207" type="curve" smooth="yes"/>
      <point x="166" y="390" type="line"/>
      <point x="131" y="391" type="line"/>
      <point x="184" y="320"/>
      <point x="279" y="320"/>
      <point x="310" y="311" type="curve" smooth="yes"/>
      <point x="328" y="306"/>
      <point x="338" y="295"/>
      <point x="338" y="281" type="curve" smooth="yes"/>
      <point x="338" y="235"/>
      <point x="242" y="144"/>
      <point x="203" y="144" type="curve" smooth="yes"/>
    </contour>
    <contour>
      <point x="692" y="-138" type="line"/>
      <point x="672" y="-64"/>
      <point x="582" y="-31"/>
      <point x="523" y="-31" type="curve"/>
      <point x="540" y="-56" type="line"/>
      <point x="681" y="20" type="line"/>
      <point x="648" y="72" type="line"/>
      <point x="503" y="-2" type="line" smooth="yes"/>
      <point x="481" y="-13"/>
      <point x="466" y="-26"/>
      <point x="466" y="-46" type="curve" smooth="yes"/>
      <point x="466" y="-63"/>
      <point x="478" y="-76"/>
      <point x="500" y="-82" type="curve" smooth="yes"/>
      <point x="554" y="-96"/>
      <point x="640" y="-113"/>
      <point x="650" y="-151" type="curve"/>
    </contour>
    <contour>
      <point x="711" y="-184"/>
      <point x="722" y="-164"/>
      <point x="722" y="-139" type="curve" smooth="yes"/>
      <point x="722" y="45" type="line"/>
      <point x="648" y="44" type="line"/>
      <point x="648" y="-139" type="line" smooth="yes"/>
      <point x="648" y="-164"/>
      <point x="665" y="-184"/>
      <point x="689" y="-184" type="curve" smooth="yes"/>
    </contour>
    <contour>
      <point x="454" y="285"/>
      <point x="453" y="308"/>
      <point x="453" y="342" type="curve" smooth="yes"/>
      <point x="453" y="444" type="line"/>
      <point x="438" y="423" type="line"/>
      <point x="449" y="407"/>
      <point x="478" y="400"/>
      <point x="521" y="400" type="curve" smooth="yes"/>
      <point x="555" y="400"/>
      <point x="579" y="400"/>
      <point x="579" y="373" type="curve" smooth="yes"/>
      <point x="579" y="334"/>
      <point x="522" y="285"/>
      <point x="480" y="285" type="curve" smooth="yes"/>
    </contour>
  </outline>
</glyph>
<glyph name="bCChRa" format="1">
  <advance width="772"/>
  <outline>
    <contour>
      <point x="764" y="-20"/>
      <point x="786" y="-5"/>
      <point x="786" y="18" type="curve" smooth="yes"/>
      <point x="786" y="37"/>
      <point x="771" y="53"/>
      <point x="742" y="53" type="curve" smooth="yes"/>
      <point x="709" y="55"/>
      <point x="667" y="79"/>
      <point x="622" y="112" type="curve" smooth="yes"/>
      <point x="559" y="159"/>
      <point x="516" y="187"/>
      <point x="472" y="187" type="curve" smooth="yes"/>
      <point x="410" y="187"/>
      <point x="380" y="149"/>
      <point x="380" y="108" type="curve" smooth="yes"/>
      <point x="380" y="62"/>
      <point x="425" y="31"/>
      <point x="478" y="31" type="curve" smooth="yes"/>
      <point x="602" y="31"/>
      <point x="745" y="130"/>
      <point x="745" y="268" type="curve" smooth="yes"/>
      <point x="745" y="353"/>
      <point x="685" y="445"/>
      <point x="561" y="445" type="curve" smooth="yes"/>
      <point x="515" y="445"/>
      <point x="454" y="448"/>
      <point x="454" y="487" type="curve" smooth="yes"/>
      <point x="454" y="510"/>
      <point x="467" y="515"/>
      <point x="495" y="515" type="curve" smooth="yes"/>
      <point x="772" y="515" type="line" smooth="yes"/>
      <point x="794" y="515"/>
      <point x="811" y="531"/>
      <point x="811" y="552" type="curve" smooth="yes"/>
      <point x="811" y="572"/>
      <point x="794" y="587"/>
      <point x="772" y="587" type="curve" smooth="yes"/>
      <point x="470" y="587" type="line" smooth="yes"/>
      <point x="419" y="587"/>
      <point x="393" y="553"/>
      <point x="393" y="519" type="curve"/>
      <point x="407" y="522" type="line"/>
      <point x="403" y="559"/>
      <point x="363" y="587"/>
      <point x="318" y="587" type="curve" smooth="yes"/>
      <point x="167" y="587" type="line" smooth="yes"/>
      <point x="126" y="587"/>
      <point x="97" y="564"/>
      <point x="97" y="514" type="curve"/>
      <point x="112" y="514" type="line"/>
      <point x="108" y="559"/>
      <point x="78" y="587"/>
      <point x="28" y="587" type="curve" smooth="yes"/>
      <point x="-1" y="587" type="line" smooth="yes"/>
      <point x="-23" y="587"/>
      <point x="-40" y="572"/>
      <point x="-40" y="552" type="curve" smooth="yes"/>
      <point x="-40" y="531"/>
      <point x="-23" y="515"/>
      <point x="-1" y="515" type="curve" smooth="yes"/>
      <point x="29" y="515" type="line" smooth="yes"/>
      <point x="74" y="515"/>
      <point x="84" y="484"/>
      <point x="84" y="430" type="curve" smooth="yes"/>
      <point x="84" y="187" type="line" smooth="yes"/>
      <point x="84" y="117"/>
      <point x="108" y="62"/>
      <point x="176" y="62" type="curve" smooth="yes"/>
      <point x="308" y="62"/>
      <point x="425" y="225"/>
      <point x="425" y="287" type="curve" smooth="yes"/>
      <point x="425" y="330"/>
      <point x="413" y="371"/>
      <point x="301" y="390" type="curve" smooth="yes"/>
      <point x="230" y="403"/>
      <point x="161" y="430"/>
      <point x="161" y="480" type="curve" smooth="yes"/>
      <point x="161" y="515"/>
      <point x="188" y="515"/>
      <point x="220" y="515" type="curve" smooth="yes"/>
      <point x="307" y="515" type="line" smooth="yes"/>
      <point x="360" y="515"/>
      <point x="372" y="496"/>
      <point x="372" y="460" type="curve" smooth="yes"/>
      <point x="372" y="280" type="line" smooth="yes"/>
      <point x="372" y="223"/>
      <point x="394" y="184"/>
      <point x="465" y="184" type="curve" smooth="yes"/>
      <point x="559" y="184"/>
      <point x="662" y="291"/>
      <point x="650" y="357" type="curve"/>
      <point x="629" y="358" type="line"/>
      <point x="660" y="342"/>
      <point x="677" y="310"/>
      <point x="677" y="269" type="curve" smooth="yes"/>
      <point x="677" y="171"/>
      <point x="555" y="102"/>
      <point x="476" y="102" type="curve" smooth="yes"/>
      <point x="455" y="102"/>
      <point x="445" y="110"/>
      <point x="445" y="116" type="curve" smooth="yes"/>
      <point x="445" y="121"/>
      <point x="450" y="124"/>
      <point x="458" y="124" type="curve" smooth="yes"/>
      <point x="481" y="124"/>
      <point x="515" y="101"/>
      <point x="566" y="63" type="curve" smooth="yes"/>
      <point x="640" y="8"/>
      <point x="699" y="-20"/>
      <point x="737" y="-20" type="curve" smooth="yes"/>
    </contour>
    <contour>
      <point x="177" y="144"/>
      <point x="166" y="160"/>
      <point x="166" y="207" type="curve" smooth="yes"/>
      <point x="166" y="390" type="line"/>
      <point x="131" y="391" type="line"/>
      <point x="184" y="320"/>
      <point x="279" y="320"/>
      <point x="310" y="311" type="curve" smooth="yes"/>
      <point x="328" y="306"/>
      <point x="338" y="295"/>
      <point x="338" y="281" type="curve" smooth="yes"/>
      <point x="338" y="235"/>
      <point x="242" y="144"/>
      <point x="203" y="144" type="curve" smooth="yes"/>
    </contour>
    <contour>
      <point x="454" y="256"/>
      <point x="453" y="279"/>
      <point x="453" y="313" type="curve" smooth="yes"/>
      <point x="453" y="444" type="line"/>
      <point x="438" y="434" type="line"/>
      <point x="445" y="399"/>
      <point x="478" y="384"/>
      <point x="521" y="384" type="curve" smooth="yes"/>
      <point x="555" y="384"/>
      <point x="579" y="374"/>
      <point x="579" y="347" type="curve" smooth="yes"/>
      <point x="579" y="308"/>
      <point x="522" y="256"/>
      <point x="480" y="256" type="curve" smooth="yes"/>
    </contour>
    <contour>
      <point x="661" y="-109" type="line"/>
      <point x="657" y="-64"/>
      <point x="615" y="3"/>
      <point x="539" y="3" type="curve" smooth="yes"/>
      <point x="485" y="3"/>
      <point x="434" y="-24"/>
      <point x="386" y="-24" type="curve" smooth="yes"/>
      <point x="354" y="-24"/>
      <point x="338" y="-9"/>
      <point x="338" y="14" type="curve" smooth="yes"/>
      <point x="338" y="28"/>
      <point x="345" y="43"/>
      <point x="345" y="58" type="curve" smooth="yes"/>
      <point x="345" y="83"/>
      <point x="330" y="93"/>
      <point x="313" y="93" type="curve" smooth="yes"/>
      <point x="280" y="93"/>
      <point x="258" y="53"/>
      <point x="258" y="11" type="curve" smooth="yes"/>
      <point x="258" y="-44"/>
      <point x="292" y="-110"/>
      <point x="383" y="-110" type="curve" smooth="yes"/>
      <point x="450" y="-110"/>
      <point x="511" y="-78"/>
      <point x="560" y="-78" type="curve" smooth="yes"/>
      <point x="597" y="-78"/>
      <point x="622" y="-98"/>
      <point x="622" y="-129" type="curve"/>
    </contour>
    <contour>
      <point x="696" y="-185"/>
      <point x="711" y="-161"/>
      <point x="711" y="-130" type="curve" smooth="yes"/>
      <point x="711" y="42" type="line"/>
      <point x="622" y="42" type="line"/>
      <point x="622" y="-129" type="line" smooth="yes"/>
      <point x="622" y="-154"/>
      <point x="635" y="-185"/>
      <point x="670" y="-185" type="curve" smooth="yes"/>
    </contour>
  </outline>
</glyph>
<glyph name="bCCha" format="1">
  <advance width="772"/>
  <outline>
    <contour>
      <point x="308" y="62"/>
      <point x="425" y="225"/>
      <point x="425" y="287" type="curve" smooth="yes"/>
      <point x="425" y="330"/>
      <point x="413" y="371"/>
      <point x="301" y="390" type="curve" smooth="yes"/>
      <point x="230" y="403"/>
      <point x="161" y="430"/>
      <point x="161" y="480" type="curve" smooth="yes"/>
      <point x="161" y="515"/>
      <point x="189" y="515"/>
      <point x="217" y="515" type="curve" smooth="yes"/>
      <point x="283" y="515" type="line"/>
      <point x="283" y="587" type="line"/>
      <point x="167" y="587" type="line" smooth="yes"/>
      <point x="122" y="587"/>
      <point x="97" y="564"/>
      <point x="97" y="514" type="curve"/>
      <point x="112" y="514" type="line"/>
      <point x="108" y="559"/>
      <point x="78" y="587"/>
      <point x="28" y="587" type="curve" smooth="yes"/>
      <point x="-1" y="587" type="line" smooth="yes"/>
      <point x="-23" y="587"/>
      <point x="-40" y="572"/>
      <point x="-40" y="552" type="curve" smooth="yes"/>
      <point x="-40" y="531"/>
      <point x="-23" y="515"/>
      <point x="-1" y="515" type="curve" smooth="yes"/>
      <point x="29" y="515" type="line" smooth="yes"/>
      <point x="74" y="515"/>
      <point x="84" y="484"/>
      <point x="84" y="430" type="curve" smooth="yes"/>
      <point x="84" y="187" type="line" smooth="yes"/>
      <point x="84" y="117"/>
      <point x="108" y="62"/>
      <point x="176" y="62" type="curve" smooth="yes"/>
    </contour>
    <contour>
      <point x="177" y="144"/>
      <point x="166" y="160"/>
      <point x="166" y="207" type="curve" smooth="yes"/>
      <point x="166" y="390" type="line"/>
      <point x="131" y="391" type="line"/>
      <point x="184" y="320"/>
      <point x="279" y="320"/>
      <point x="310" y="311" type="curve" smooth="yes"/>
      <point x="328" y="306"/>
      <point x="338" y="295"/>
      <point x="338" y="281" type="curve" smooth="yes"/>
      <point x="338" y="235"/>
      <point x="242" y="144"/>
      <point x="203" y="144" type="curve" smooth="yes"/>
    </contour>
    <component base="bCha" xOffset="272"/>
  </outline>
</glyph>
<glyph name="bCNa" format="1">
  <advance width="465"/>
  <outline>
    <contour>
      <point x="312" y="56"/>
      <point x="444" y="209"/>
      <point x="444" y="299" type="curve" smooth="yes"/>
      <point x="443" y="357"/>
      <point x="400" y="370"/>
      <point x="307" y="387" type="curve" smooth="yes"/>
      <point x="229" y="402"/>
      <point x="176" y="424"/>
      <point x="176" y="473" type="curve" smooth="yes"/>
      <point x="176" y="508"/>
      <point x="199" y="515"/>
      <point x="242" y="515" type="curve" smooth="yes"/>
      <point x="465" y="515" type="line" smooth="yes"/>
      <point x="487" y="515"/>
      <point x="504" y="531"/>
      <point x="504" y="552" type="curve" smooth="yes"/>
      <point x="504" y="572"/>
      <point x="487" y="587"/>
      <point x="465" y="587" type="curve" smooth="yes"/>
      <point x="188" y="587" type="line" smooth="yes"/>
      <point x="137" y="587"/>
      <point x="107" y="550"/>
      <point x="107" y="519" type="curve"/>
      <point x="119" y="523" type="line"/>
      <point x="117" y="550"/>
      <point x="82" y="587"/>
      <point x="36" y="587" type="curve" smooth="yes"/>
      <point x="-1" y="587" type="line" smooth="yes"/>
      <point x="-23" y="587"/>
      <point x="-40" y="572"/>
      <point x="-40" y="552" type="curve" smooth="yes"/>
      <point x="-40" y="531"/>
      <point x="-23" y="515"/>
      <point x="-1" y="515" type="curve" smooth="yes"/>
      <point x="34" y="515" type="line" smooth="yes"/>
      <point x="85" y="515"/>
      <point x="93" y="486"/>
      <point x="93" y="421" type="curve" smooth="yes"/>
      <point x="92" y="202" type="line" smooth="yes"/>
      <point x="92" y="114"/>
      <point x="109" y="56"/>
      <point x="186" y="56" type="curve" smooth="yes"/>
    </contour>
    <contour>
      <point x="355" y="-186"/>
      <point x="373" y="-166"/>
      <point x="373" y="-138" type="curve" smooth="yes"/>
      <point x="373" y="167" type="line"/>
      <point x="292" y="138" type="line"/>
      <point x="292" y="-138" type="line" smooth="yes"/>
      <point x="292" y="-166"/>
      <point x="309" y="-186"/>
      <point x="332" y="-186" type="curve" smooth="yes"/>
    </contour>
    <contour>
      <point x="126" y="-104"/>
      <point x="109" y="-93"/>
      <point x="109" y="-73" type="curve" smooth="yes"/>
      <point x="109" y="-54"/>
      <point x="123" y="-41"/>
      <point x="140" y="-41" type="curve" smooth="yes"/>
      <point x="157" y="-41"/>
      <point x="173" y="-53"/>
      <point x="173" y="-73" type="curve" smooth="yes"/>
      <point x="173" y="-92"/>
      <point x="158" y="-104"/>
      <point x="142" y="-104" type="curve" smooth="yes"/>
    </contour>
    <contour>
      <point x="184" y="-170"/>
      <point x="229" y="-133"/>
      <point x="229" y="-81" type="curve" smooth="yes"/>
      <point x="229" y="-40"/>
      <point x="201" y="6"/>
      <point x="157" y="7" type="curve"/>
      <point x="181" y="-32" type="line"/>
      <point x="232" y="-29"/>
      <point x="292" y="-72"/>
      <point x="292" y="-131" type="curve"/>
      <point x="342" y="-111" type="line"/>
      <point x="320" y="-24"/>
      <point x="245" y="38"/>
      <point x="156" y="38" type="curve" smooth="yes"/>
      <point x="70" y="38"/>
      <point x="33" y="-22"/>
      <point x="33" y="-71" type="curve" smooth="yes"/>
      <point x="33" y="-127"/>
      <point x="78" y="-170"/>
      <point x="134" y="-170" type="curve" smooth="yes"/>
    </contour>
    <contour>
      <point x="177" y="153"/>
      <point x="174" y="184"/>
      <point x="174" y="216" type="curve" smooth="yes"/>
      <point x="174" y="398" type="line"/>
      <point x="152" y="390" type="line"/>
      <point x="175" y="344"/>
      <point x="243" y="327"/>
      <point x="296" y="320" type="curve" smooth="yes"/>
      <point x="340" y="315"/>
      <point x="351" y="300"/>
      <point x="351" y="279" type="curve" smooth="yes"/>
      <point x="351" y="241"/>
      <point x="257" y="153"/>
      <point x="207" y="153" type="curve" smooth="yes"/>
    </contour>
  </outline>
</glyph>
<glyph name="bCNya" format="1">
  <advance width="860"/>
  <outline>
    <contour>
      <point x="287" y="105"/>
      <point x="409" y="242"/>
      <point x="409" y="328" type="curve" smooth="yes"/>
      <point x="409" y="367"/>
      <point x="387" y="396"/>
      <point x="296" y="417" type="curve" smooth="yes"/>
      <point x="224" y="433"/>
      <point x="161" y="455"/>
      <point x="161" y="491" type="curve" smooth="yes"/>
      <point x="161" y="517"/>
      <point x="189" y="515"/>
      <point x="210" y="515" type="curve" smooth="yes"/>
      <point x="860" y="515" type="line" smooth="yes"/>
      <point x="882" y="515"/>
      <point x="899" y="531"/>
      <point x="899" y="552" type="curve" smooth="yes"/>
      <point x="899" y="572"/>
      <point x="882" y="587"/>
      <point x="860" y="587" type="curve" smooth="yes"/>
      <point x="167" y="587" type="line" smooth="yes"/>
      <point x="124" y="587"/>
      <point x="96" y="565"/>
      <point x="96" y="524" type="curve"/>
      <point x="104" y="524" type="line"/>
      <point x="104" y="559"/>
      <point x="78" y="587"/>
      <point x="32" y="587" type="curve" smooth="yes"/>
      <point x="-1" y="587" type="line" smooth="yes"/>
      <point x="-23" y="587"/>
      <point x="-40" y="572"/>
      <point x="-40" y="552" type="curve" smooth="yes"/>
      <point x="-40" y="531"/>
      <point x="-23" y="515"/>
      <point x="-1" y="515" type="curve" smooth="yes"/>
      <point x="32" y="515" type="line" smooth="yes"/>
      <point x="74" y="515"/>
      <point x="84" y="486"/>
      <point x="84" y="439" type="curve" smooth="yes"/>
      <point x="84" y="213" type="line" smooth="yes"/>
      <point x="84" y="153"/>
      <point x="105" y="105"/>
      <point x="170" y="105" type="curve" smooth="yes"/>
    </contour>
    <contour>
      <point x="590" y="-178"/>
      <point x="601" y="-153"/>
      <point x="601" y="-125" type="curve" smooth="yes"/>
      <point x="602" y="290" type="line" smooth="yes"/>
      <point x="602" y="364"/>
      <point x="584" y="412"/>
      <point x="514" y="412" type="curve" smooth="yes"/>
      <point x="377" y="412"/>
      <point x="266" y="248"/>
      <point x="266" y="161" type="curve" smooth="yes"/>
      <point x="266" y="85"/>
      <point x="314" y="55"/>
      <point x="367" y="55" type="curve" smooth="yes"/>
      <point x="431" y="55"/>
      <point x="472" y="95"/>
      <point x="472" y="151" type="curve" smooth="yes"/>
      <point x="472" y="197"/>
      <point x="435" y="241"/>
      <point x="382" y="241" type="curve" smooth="yes"/>
      <point x="366" y="241"/>
      <point x="350" y="237"/>
      <point x="333" y="227" type="curve"/>
      <point x="368" y="217" type="line"/>
      <point x="392" y="281"/>
      <point x="451" y="333"/>
      <point x="491" y="333" type="curve" smooth="yes"/>
      <point x="523" y="333"/>
      <point x="520" y="299"/>
      <point x="520" y="255" type="curve" smooth="yes"/>
      <point x="520" y="-76" type="line"/>
      <point x="547" y="-71" type="line"/>
      <point x="526" y="-25"/>
      <point x="485" y="2"/>
      <point x="421" y="2" type="curve" smooth="yes"/>
      <point x="336" y="2"/>
      <point x="269" y="-51"/>
      <point x="186" y="-51" type="curve" smooth="yes"/>
      <point x="146" y="-51"/>
      <point x="114" y="-36"/>
      <point x="114" y="3" type="curve" smooth="yes"/>
      <point x="114" y="29"/>
      <point x="125" y="47"/>
      <point x="125" y="65" type="curve" smooth="yes"/>
      <point x="125" y="89"/>
      <point x="106" y="97"/>
      <point x="89" y="97" type="curve" smooth="yes"/>
      <point x="55" y="97"/>
      <point x="28" y="62"/>
      <point x="28" y="-1" type="curve" smooth="yes"/>
      <point x="28" y="-86"/>
      <point x="100" y="-140"/>
      <point x="185" y="-140" type="curve" smooth="yes"/>
      <point x="302" y="-140"/>
      <point x="370" y="-85"/>
      <point x="440" y="-85" type="curve" smooth="yes"/>
      <point x="468" y="-85"/>
      <point x="500" y="-89"/>
      <point x="513" y="-135" type="curve" smooth="yes"/>
      <point x="520" y="-154"/>
      <point x="532" y="-178"/>
      <point x="559" y="-178" type="curve" smooth="yes"/>
    </contour>
    <contour>
      <point x="176" y="186"/>
      <point x="166" y="201"/>
      <point x="166" y="247" type="curve" smooth="yes"/>
      <point x="166" y="422" type="line"/>
      <point x="130" y="411" type="line"/>
      <point x="178" y="352"/>
      <point x="256" y="348"/>
      <point x="287" y="339" type="curve" smooth="yes"/>
      <point x="306" y="334"/>
      <point x="316" y="322"/>
      <point x="316" y="308" type="curve" smooth="yes"/>
      <point x="316" y="265"/>
      <point x="237" y="186"/>
      <point x="195" y="186" type="curve" smooth="yes"/>
    </contour>
    <contour>
      <point x="356" y="124"/>
      <point x="342" y="136"/>
      <point x="342" y="154" type="curve" smooth="yes"/>
      <point x="342" y="171"/>
      <point x="355" y="183"/>
      <point x="372" y="183" type="curve" smooth="yes"/>
      <point x="389" y="183"/>
      <point x="401" y="171"/>
      <point x="401" y="154" type="curve" smooth="yes"/>
      <point x="401" y="136"/>
      <point x="388" y="124"/>
      <point x="372" y="124" type="curve" smooth="yes"/>
    </contour>
    <contour>
      <point x="793" y="-69"/>
      <point x="860" y="-23"/>
      <point x="860" y="59" type="curve" smooth="yes"/>
      <point x="860" y="129"/>
      <point x="805" y="205"/>
      <point x="729" y="205" type="curve" smooth="yes"/>
      <point x="687" y="205"/>
      <point x="653" y="173"/>
      <point x="653" y="129" type="curve" smooth="yes"/>
      <point x="653" y="87"/>
      <point x="688" y="58"/>
      <point x="730" y="58" type="curve" smooth="yes"/>
      <point x="805" y="58"/>
      <point x="856" y="147"/>
      <point x="856" y="223" type="curve" smooth="yes"/>
      <point x="856" y="280"/>
      <point x="810" y="345"/>
      <point x="726" y="345" type="curve" smooth="yes"/>
      <point x="601" y="345"/>
      <point x="541" y="223"/>
      <point x="541" y="133" type="curve" smooth="yes"/>
      <point x="541" y="41"/>
      <point x="604" y="-69"/>
      <point x="726" y="-69" type="curve" smooth="yes"/>
    </contour>
    <contour>
      <point x="661" y="5"/>
      <point x="602" y="47"/>
      <point x="602" y="129" type="curve" smooth="yes"/>
      <point x="602" y="206"/>
      <point x="653" y="269"/>
      <point x="723" y="269" type="curve" smooth="yes"/>
      <point x="758" y="269"/>
      <point x="788" y="244"/>
      <point x="788" y="204" type="curve" smooth="yes"/>
      <point x="788" y="152"/>
      <point x="759" y="120"/>
      <point x="733" y="120" type="curve" smooth="yes"/>
      <point x="721" y="120"/>
      <point x="716" y="127"/>
      <point x="716" y="133" type="curve" smooth="yes"/>
      <point x="716" y="139"/>
      <point x="721" y="146"/>
      <point x="733" y="146" type="curve" smooth="yes"/>
      <point x="763" y="146"/>
      <point x="792" y="114"/>
      <point x="792" y="79" type="curve" smooth="yes"/>
      <point x="792" y="32"/>
      <point x="756" y="5"/>
      <point x="713" y="5" type="curve" smooth="yes"/>
    </contour>
  </outline>
</glyph>
<glyph name="bCRa" format="1">
  <advance width="500"/>
  <outline>
    <contour>
      <point x="342" y="38"/>
      <point x="479" y="179"/>
      <point x="479" y="291" type="curve" smooth="yes"/>
      <point x="479" y="357"/>
      <point x="435" y="370"/>
      <point x="342" y="387" type="curve" smooth="yes"/>
      <point x="264" y="402"/>
      <point x="211" y="422"/>
      <point x="211" y="474" type="curve" smooth="yes"/>
      <point x="211" y="504"/>
      <point x="230" y="515"/>
      <point x="264" y="515" type="curve" smooth="yes"/>
      <point x="500" y="515" type="line" smooth="yes"/>
      <point x="522" y="515"/>
      <point x="539" y="531"/>
      <point x="539" y="552" type="curve" smooth="yes"/>
      <point x="539" y="572"/>
      <point x="522" y="587"/>
      <point x="500" y="587" type="curve" smooth="yes"/>
      <point x="223" y="587" type="line" smooth="yes"/>
      <point x="172" y="587"/>
      <point x="142" y="550"/>
      <point x="142" y="519" type="curve"/>
      <point x="154" y="523" type="line"/>
      <point x="152" y="550"/>
      <point x="117" y="587"/>
      <point x="71" y="587" type="curve" smooth="yes"/>
      <point x="-1" y="587" type="line" smooth="yes"/>
      <point x="-23" y="587"/>
      <point x="-40" y="572"/>
      <point x="-40" y="552" type="curve" smooth="yes"/>
      <point x="-40" y="531"/>
      <point x="-23" y="515"/>
      <point x="-1" y="515" type="curve" smooth="yes"/>
      <point x="69" y="515" type="line" smooth="yes"/>
      <point x="124" y="515"/>
      <point x="128" y="476"/>
      <point x="128" y="378" type="curve" smooth="yes"/>
      <point x="127" y="166" type="line" smooth="yes"/>
      <point x="127" y="81"/>
      <point x="144" y="38"/>
      <point x="217" y="38" type="curve" smooth="yes"/>
    </contour>
    <contour>
      <point x="212" y="128"/>
      <point x="209" y="159"/>
      <point x="209" y="191" type="curve" smooth="yes"/>
      <point x="209" y="391" type="line"/>
      <point x="187" y="383" type="line"/>
      <point x="209" y="336"/>
      <point x="271" y="319"/>
      <point x="324" y="312" type="curve" smooth="yes"/>
      <point x="375" y="307"/>
      <point x="386" y="293"/>
      <point x="386" y="270" type="curve" smooth="yes"/>
      <point x="386" y="223"/>
      <point x="289" y="128"/>
      <point x="242" y="128" type="curve" smooth="yes"/>
    </contour>
    <contour>
      <point x="429" y="-192"/>
      <point x="442" y="-168"/>
      <point x="442" y="-137" type="curve" smooth="yes"/>
      <point x="442" y="221" type="line"/>
      <point x="361" y="155" type="line"/>
      <point x="361" y="-136" type="line" smooth="yes"/>
      <point x="361" y="-161"/>
      <point x="373" y="-192"/>
      <point x="405" y="-192" type="curve" smooth="yes"/>
    </contour>
    <contour>
      <point x="396" y="-123" type="line"/>
      <point x="393" y="-79"/>
      <point x="361" y="0"/>
      <point x="287" y="0" type="curve" smooth="yes"/>
      <point x="243" y="0"/>
      <point x="191" y="-22"/>
      <point x="150" y="-22" type="curve" smooth="yes"/>
      <point x="116" y="-22"/>
      <point x="100" y="-1"/>
      <point x="100" y="21" type="curve" smooth="yes"/>
      <point x="100" y="37"/>
      <point x="107" y="51"/>
      <point x="107" y="66" type="curve" smooth="yes"/>
      <point x="107" y="91"/>
      <point x="91" y="101"/>
      <point x="74" y="101" type="curve" smooth="yes"/>
      <point x="41" y="101"/>
      <point x="20" y="61"/>
      <point x="20" y="19" type="curve" smooth="yes"/>
      <point x="20" y="-36"/>
      <point x="53" y="-107"/>
      <point x="151" y="-107" type="curve" smooth="yes"/>
      <point x="209" y="-107"/>
      <point x="271" y="-83"/>
      <point x="308" y="-83" type="curve" smooth="yes"/>
      <point x="336" y="-83"/>
      <point x="361" y="-100"/>
      <point x="361" y="-136" type="curve"/>
    </contour>
  </outline>
</glyph>
<glyph name="bCa" format="1">
  <advance width="465"/>
  <outline>
    <contour>
      <point x="307" y="-12"/>
      <point x="444" y="192"/>
      <point x="444" y="276" type="curve" smooth="yes"/>
      <point x="444" y="342"/>
      <point x="400" y="355"/>
      <point x="307" y="372" type="curve" smooth="yes"/>
      <point x="229" y="387"/>
      <point x="176" y="415"/>
      <point x="176" y="467" type="curve" smooth="yes"/>
      <point x="176" y="504"/>
      <point x="199" y="515"/>
      <point x="242" y="515" type="curve" smooth="yes"/>
      <point x="465" y="515" type="line" smooth="yes"/>
      <point x="487" y="515"/>
      <point x="504" y="531"/>
      <point x="504" y="552" type="curve" smooth="yes"/>
      <point x="504" y="572"/>
      <point x="487" y="587"/>
      <point x="465" y="587" type="curve" smooth="yes"/>
      <point x="188" y="587" type="line" smooth="yes"/>
      <point x="137" y="587"/>
      <point x="107" y="550"/>
      <point x="107" y="519" type="curve"/>
      <point x="119" y="523" type="line"/>
      <point x="117" y="550"/>
      <point x="82" y="587"/>
      <point x="36" y="587" type="curve" smooth="yes"/>
      <point x="-1" y="587" type="line" smooth="yes"/>
      <point x="-23" y="587"/>
      <point x="-40" y="572"/>
      <point x="-40" y="552" type="curve" smooth="yes"/>
      <point x="-40" y="531"/>
      <point x="-23" y="515"/>
      <point x="-1" y="515" type="curve" smooth="yes"/>
      <point x="34" y="515" type="line" smooth="yes"/>
      <point x="85" y="515"/>
      <point x="93" y="486"/>
      <point x="93" y="421" type="curve" smooth="yes"/>
      <point x="92" y="134" type="line" smooth="yes"/>
      <point x="92" y="46"/>
      <point x="109" y="-12"/>
      <point x="191" y="-12" type="curve" smooth="yes"/>
    </contour>
    <contour>
      <point x="177" y="85"/>
      <point x="174" y="116"/>
      <point x="174" y="148" type="curve" smooth="yes"/>
      <point x="174" y="383" type="line"/>
      <point x="152" y="375" type="line"/>
      <point x="175" y="329"/>
      <point x="243" y="312"/>
      <point x="296" y="305" type="curve" smooth="yes"/>
      <point x="340" y="300"/>
      <point x="351" y="278"/>
      <point x="351" y="258" type="curve" smooth="yes"/>
      <point x="351" y="213"/>
      <point x="257" y="85"/>
      <point x="207" y="85" type="curve" smooth="yes"/>
    </contour>
  </outline>
</glyph>
<glyph name="bChBa" format="1">
  <advance width="500"/>
  <outline>
    <contour>
      <point x="498" y="-12"/>
      <point x="514" y="3"/>
      <point x="514" y="23" type="curve" smooth="yes"/>
      <point x="514" y="42"/>
      <point x="499" y="55"/>
      <point x="470" y="61" type="curve" smooth="yes"/>
      <point x="435" y="67"/>
      <point x="388" y="73"/>
      <point x="343" y="111" type="curve" smooth="yes"/>
      <point x="284" y="163"/>
      <point x="236" y="187"/>
      <point x="192" y="187" type="curve" smooth="yes"/>
      <point x="131" y="187"/>
      <point x="101" y="149"/>
      <point x="101" y="108" type="curve" smooth="yes"/>
      <point x="101" y="62"/>
      <point x="146" y="31"/>
      <point x="199" y="31" type="curve" smooth="yes"/>
      <point x="323" y="31"/>
      <point x="473" y="140"/>
      <point x="473" y="274" type="curve" smooth="yes"/>
      <point x="473" y="375"/>
      <point x="413" y="452"/>
      <point x="289" y="452" type="curve" smooth="yes"/>
      <point x="243" y="452"/>
      <point x="182" y="452"/>
      <point x="182" y="487" type="curve" smooth="yes"/>
      <point x="182" y="510"/>
      <point x="195" y="515"/>
      <point x="223" y="515" type="curve" smooth="yes"/>
      <point x="500" y="515" type="line" smooth="yes"/>
      <point x="522" y="515"/>
      <point x="539" y="531"/>
      <point x="539" y="552" type="curve" smooth="yes"/>
      <point x="539" y="572"/>
      <point x="522" y="587"/>
      <point x="500" y="587" type="curve" smooth="yes"/>
      <point x="198" y="587" type="line" smooth="yes"/>
      <point x="147" y="587"/>
      <point x="121" y="553"/>
      <point x="121" y="519" type="curve"/>
      <point x="135" y="522" type="line"/>
      <point x="131" y="559"/>
      <point x="91" y="587"/>
      <point x="46" y="587" type="curve" smooth="yes"/>
      <point x="-1" y="587" type="line" smooth="yes"/>
      <point x="-23" y="587"/>
      <point x="-40" y="572"/>
      <point x="-40" y="552" type="curve" smooth="yes"/>
      <point x="-40" y="531"/>
      <point x="-23" y="515"/>
      <point x="-1" y="515" type="curve" smooth="yes"/>
      <point x="35" y="515" type="line" smooth="yes"/>
      <point x="94" y="515"/>
      <point x="100" y="496"/>
      <point x="100" y="460" type="curve" smooth="yes"/>
      <point x="100" y="302" type="line" smooth="yes"/>
      <point x="100" y="246"/>
      <point x="122" y="206"/>
      <point x="193" y="206" type="curve" smooth="yes"/>
      <point x="287" y="206"/>
      <point x="379" y="296"/>
      <point x="375" y="369" type="curve"/>
      <point x="357" y="381" type="line"/>
      <point x="379" y="362"/>
      <point x="400" y="335"/>
      <point x="400" y="289" type="curve" smooth="yes"/>
      <point x="400" y="195"/>
      <point x="276" y="101"/>
      <point x="196" y="101" type="curve" smooth="yes"/>
      <point x="175" y="101"/>
      <point x="166" y="109"/>
      <point x="166" y="115" type="curve" smooth="yes"/>
      <point x="166" y="120"/>
      <point x="171" y="123"/>
      <point x="179" y="123" type="curve" smooth="yes"/>
      <point x="201" y="123"/>
      <point x="239" y="105"/>
      <point x="272" y="74" type="curve" smooth="yes"/>
      <point x="333" y="18"/>
      <point x="428" y="-12"/>
      <point x="472" y="-12" type="curve" smooth="yes"/>
    </contour>
    <contour>
      <point x="436" y="-138" type="line"/>
      <point x="416" y="-64"/>
      <point x="326" y="-31"/>
      <point x="267" y="-31" type="curve"/>
      <point x="284" y="-56" type="line"/>
      <point x="425" y="20" type="line"/>
      <point x="392" y="72" type="line"/>
      <point x="247" y="-2" type="line" smooth="yes"/>
      <point x="226" y="-13"/>
      <point x="210" y="-26"/>
      <point x="210" y="-46" type="curve" smooth="yes"/>
      <point x="210" y="-63"/>
      <point x="222" y="-76"/>
      <point x="244" y="-82" type="curve" smooth="yes"/>
      <point x="298" y="-96"/>
      <point x="384" y="-113"/>
      <point x="394" y="-151" type="curve"/>
    </contour>
    <contour>
      <point x="455" y="-184"/>
      <point x="466" y="-164"/>
      <point x="466" y="-139" type="curve" smooth="yes"/>
      <point x="466" y="45" type="line"/>
      <point x="392" y="44" type="line"/>
      <point x="392" y="-139" type="line" smooth="yes"/>
      <point x="392" y="-164"/>
      <point x="409" y="-184"/>
      <point x="433" y="-184" type="curve" smooth="yes"/>
    </contour>
    <contour>
      <point x="182" y="278"/>
      <point x="181" y="301"/>
      <point x="181" y="335" type="curve" smooth="yes"/>
      <point x="181" y="444" type="line"/>
      <point x="166" y="434" type="line"/>
      <point x="173" y="406"/>
      <point x="206" y="391"/>
      <point x="249" y="391" type="curve" smooth="yes"/>
      <point x="283" y="391"/>
      <point x="307" y="396"/>
      <point x="307" y="369" type="curve" smooth="yes"/>
      <point x="307" y="330"/>
      <point x="250" y="278"/>
      <point x="208" y="278" type="curve" smooth="yes"/>
    </contour>
  </outline>
</glyph>
<glyph name="bChRa" format="1">
  <advance width="548"/>
  <outline>
    <contour>
      <point x="516" y="-20"/>
      <point x="538" y="-5"/>
      <point x="538" y="18" type="curve" smooth="yes"/>
      <point x="538" y="37"/>
      <point x="523" y="53"/>
      <point x="494" y="53" type="curve" smooth="yes"/>
      <point x="458" y="55"/>
      <point x="411" y="79"/>
      <point x="367" y="112" type="curve" smooth="yes"/>
      <point x="304" y="159"/>
      <point x="260" y="187"/>
      <point x="216" y="187" type="curve" smooth="yes"/>
      <point x="155" y="187"/>
      <point x="125" y="149"/>
      <point x="125" y="108" type="curve" smooth="yes"/>
      <point x="125" y="62"/>
      <point x="170" y="31"/>
      <point x="223" y="31" type="curve" smooth="yes"/>
      <point x="347" y="31"/>
      <point x="497" y="126"/>
      <point x="497" y="265" type="curve" smooth="yes"/>
      <point x="497" y="353"/>
      <point x="437" y="445"/>
      <point x="313" y="445" type="curve" smooth="yes"/>
      <point x="267" y="445"/>
      <point x="206" y="448"/>
      <point x="206" y="487" type="curve" smooth="yes"/>
      <point x="206" y="510"/>
      <point x="219" y="515"/>
      <point x="247" y="515" type="curve" smooth="yes"/>
      <point x="548" y="515" type="line" smooth="yes"/>
      <point x="570" y="515"/>
      <point x="587" y="531"/>
      <point x="587" y="552" type="curve" smooth="yes"/>
      <point x="587" y="572"/>
      <point x="570" y="587"/>
      <point x="548" y="587" type="curve" smooth="yes"/>
      <point x="222" y="587" type="line" smooth="yes"/>
      <point x="171" y="587"/>
      <point x="145" y="553"/>
      <point x="145" y="519" type="curve"/>
      <point x="159" y="522" type="line"/>
      <point x="155" y="559"/>
      <point x="115" y="587"/>
      <point x="70" y="587" type="curve" smooth="yes"/>
      <point x="-1" y="587" type="line" smooth="yes"/>
      <point x="-23" y="587"/>
      <point x="-40" y="572"/>
      <point x="-40" y="552" type="curve" smooth="yes"/>
      <point x="-40" y="531"/>
      <point x="-23" y="515"/>
      <point x="-1" y="515" type="curve" smooth="yes"/>
      <point x="59" y="515" type="line" smooth="yes"/>
      <point x="118" y="515"/>
      <point x="124" y="496"/>
      <point x="124" y="460" type="curve" smooth="yes"/>
      <point x="124" y="280" type="line" smooth="yes"/>
      <point x="124" y="223"/>
      <point x="146" y="184"/>
      <point x="217" y="184" type="curve" smooth="yes"/>
      <point x="311" y="184"/>
      <point x="415" y="294"/>
      <point x="403" y="367" type="curve"/>
      <point x="376" y="364" type="line"/>
      <point x="408" y="341"/>
      <point x="424" y="313"/>
      <point x="424" y="276" type="curve" smooth="yes"/>
      <point x="424" y="166"/>
      <point x="300" y="102"/>
      <point x="220" y="102" type="curve" smooth="yes"/>
      <point x="199" y="102"/>
      <point x="190" y="110"/>
      <point x="190" y="116" type="curve" smooth="yes"/>
      <point x="190" y="121"/>
      <point x="195" y="124"/>
      <point x="203" y="124" type="curve" smooth="yes"/>
      <point x="225" y="124"/>
      <point x="257" y="99"/>
      <point x="305" y="67" type="curve" smooth="yes"/>
      <point x="368" y="24"/>
      <point x="452" y="-20"/>
      <point x="489" y="-20" type="curve" smooth="yes"/>
    </contour>
    <contour>
      <point x="206" y="256"/>
      <point x="205" y="279"/>
      <point x="205" y="313" type="curve" smooth="yes"/>
      <point x="205" y="444" type="line"/>
      <point x="190" y="434" type="line"/>
      <point x="197" y="399"/>
      <point x="230" y="384"/>
      <point x="273" y="384" type="curve" smooth="yes"/>
      <point x="307" y="384"/>
      <point x="331" y="374"/>
      <point x="331" y="347" type="curve" smooth="yes"/>
      <point x="331" y="308"/>
      <point x="274" y="256"/>
      <point x="232" y="256" type="curve" smooth="yes"/>
    </contour>
    <contour>
      <point x="428" y="-109" type="line"/>
      <point x="423" y="-59"/>
      <point x="380" y="1"/>
      <point x="311" y="1" type="curve" smooth="yes"/>
      <point x="256" y="1"/>
      <point x="202" y="-24"/>
      <point x="152" y="-24" type="curve" smooth="yes"/>
      <point x="115" y="-24"/>
      <point x="99" y="-1"/>
      <point x="99" y="21" type="curve" smooth="yes"/>
      <point x="99" y="36"/>
      <point x="106" y="50"/>
      <point x="106" y="66" type="curve" smooth="yes"/>
      <point x="106" y="90"/>
      <point x="90" y="101"/>
      <point x="73" y="101" type="curve" smooth="yes"/>
      <point x="40" y="101"/>
      <point x="19" y="61"/>
      <point x="19" y="19" type="curve" smooth="yes"/>
      <point x="19" y="-48"/>
      <point x="65" y="-108"/>
      <point x="155" y="-108" type="curve" smooth="yes"/>
      <point x="238" y="-108"/>
      <point x="283" y="-79"/>
      <point x="328" y="-79" type="curve" smooth="yes"/>
      <point x="357" y="-79"/>
      <point x="382" y="-95"/>
      <point x="382" y="-129" type="curve"/>
    </contour>
    <contour>
      <point x="450" y="-185"/>
      <point x="463" y="-161"/>
      <point x="463" y="-130" type="curve" smooth="yes"/>
      <point x="463" y="53" type="line"/>
      <point x="382" y="53" type="line"/>
      <point x="382" y="-129" type="line" smooth="yes"/>
      <point x="382" y="-154"/>
      <point x="394" y="-185"/>
      <point x="426" y="-185" type="curve" smooth="yes"/>
    </contour>
  </outline>
</glyph>
<glyph name="bCha" format="1">
  <advance width="500"/>
  <outline>
    <contour>
      <point x="513" y="-82"/>
      <point x="529" y="-68"/>
      <point x="529" y="-47" type="curve" smooth="yes"/>
      <point x="529" y="-28"/>
      <point x="514" y="-15"/>
      <point x="485" y="-9" type="curve" smooth="yes"/>
      <point x="450" y="-3"/>
      <point x="410" y="40"/>
      <point x="365" y="82" type="curve" smooth="yes"/>
      <point x="310" y="136"/>
      <point x="259" y="165"/>
      <point x="215" y="165" type="curve" smooth="yes"/>
      <point x="153" y="165"/>
      <point x="123" y="127"/>
      <point x="123" y="86" type="curve" smooth="yes"/>
      <point x="123" y="40"/>
      <point x="168" y="9"/>
      <point x="221" y="9" type="curve" smooth="yes"/>
      <point x="345" y="9"/>
      <point x="473" y="118"/>
      <point x="473" y="252" type="curve" smooth="yes"/>
      <point x="473" y="353"/>
      <point x="413" y="445"/>
      <point x="289" y="445" type="curve" smooth="yes"/>
      <point x="229" y="445"/>
      <point x="182" y="450"/>
      <point x="182" y="487" type="curve" smooth="yes"/>
      <point x="182" y="510"/>
      <point x="195" y="515"/>
      <point x="223" y="515" type="curve" smooth="yes"/>
      <point x="500" y="515" type="line" smooth="yes"/>
      <point x="522" y="515"/>
      <point x="539" y="531"/>
      <point x="539" y="552" type="curve" smooth="yes"/>
      <point x="539" y="572"/>
      <point x="522" y="587"/>
      <point x="500" y="587" type="curve" smooth="yes"/>
      <point x="191" y="587" type="line" smooth="yes"/>
      <point x="138" y="587"/>
      <point x="114" y="553"/>
      <point x="114" y="519" type="curve"/>
      <point x="135" y="522" type="line"/>
      <point x="131" y="559"/>
      <point x="91" y="587"/>
      <point x="46" y="587" type="curve" smooth="yes"/>
      <point x="-1" y="587" type="line" smooth="yes"/>
      <point x="-23" y="587"/>
      <point x="-40" y="572"/>
      <point x="-40" y="552" type="curve" smooth="yes"/>
      <point x="-40" y="531"/>
      <point x="-23" y="515"/>
      <point x="-1" y="515" type="curve" smooth="yes"/>
      <point x="35" y="515" type="line" smooth="yes"/>
      <point x="94" y="515"/>
      <point x="100" y="496"/>
      <point x="100" y="460" type="curve" smooth="yes"/>
      <point x="100" y="280" type="line" smooth="yes"/>
      <point x="100" y="223"/>
      <point x="122" y="184"/>
      <point x="193" y="184" type="curve" smooth="yes"/>
      <point x="294" y="184"/>
      <point x="371" y="289"/>
      <point x="371" y="353" type="curve" smooth="yes"/>
      <point x="371" y="379"/>
      <point x="352" y="396"/>
      <point x="338" y="396" type="curve"/>
      <point x="336" y="375" type="line"/>
      <point x="365" y="368"/>
      <point x="400" y="328"/>
      <point x="400" y="267" type="curve" smooth="yes"/>
      <point x="400" y="173"/>
      <point x="298" y="79"/>
      <point x="219" y="79" type="curve" smooth="yes"/>
      <point x="198" y="79"/>
      <point x="188" y="87"/>
      <point x="188" y="93" type="curve" smooth="yes"/>
      <point x="188" y="98"/>
      <point x="193" y="101"/>
      <point x="201" y="101" type="curve" smooth="yes"/>
      <point x="224" y="101"/>
      <point x="264" y="77"/>
      <point x="294" y="44" type="curve" smooth="yes"/>
      <point x="353" y="-15"/>
      <point x="427" y="-82"/>
      <point x="488" y="-82" type="curve" smooth="yes"/>
    </contour>
    <contour>
      <point x="182" y="256"/>
      <point x="181" y="279"/>
      <point x="181" y="313" type="curve" smooth="yes"/>
      <point x="181" y="444" type="line"/>
      <point x="166" y="437" type="line"/>
      <point x="171" y="408"/>
      <point x="206" y="387"/>
      <point x="249" y="387" type="curve" smooth="yes"/>
      <point x="283" y="387"/>
      <point x="299" y="374"/>
      <point x="299" y="347" type="curve" smooth="yes"/>
      <point x="299" y="308"/>
      <point x="250" y="256"/>
      <point x="208" y="256" type="curve" smooth="yes"/>
    </contour>
  </outline>
</glyph>
<glyph name="bDBa" format="1">
  <advance width="528"/>
  <outline>
    <contour>
      <point x="441" y="-82"/>
      <point x="452" y="-55"/>
      <point x="452" y="-15" type="curve" smooth="yes"/>
      <point x="452" y="99"/>
      <point x="445" y="159"/>
      <point x="445" y="233" type="curve" smooth="yes"/>
      <point x="445" y="314"/>
      <point x="466" y="374"/>
      <point x="466" y="411" type="curve" smooth="yes"/>
      <point x="466" y="428"/>
      <point x="459" y="448"/>
      <point x="429" y="448" type="curve" smooth="yes"/>
      <point x="387" y="448"/>
      <point x="264" y="385"/>
      <point x="145" y="302" type="curve"/>
      <point x="170" y="282" type="line"/>
      <point x="170" y="419" type="line" smooth="yes"/>
      <point x="170" y="466"/>
      <point x="169" y="515"/>
      <point x="218" y="515" type="curve" smooth="yes"/>
      <point x="528" y="515" type="line" smooth="yes"/>
      <point x="550" y="515"/>
      <point x="567" y="531"/>
      <point x="567" y="552" type="curve" smooth="yes"/>
      <point x="567" y="572"/>
      <point x="550" y="587"/>
      <point x="528" y="587" type="curve" smooth="yes"/>
      <point x="191" y="587" type="line" smooth="yes"/>
      <point x="141" y="587"/>
      <point x="112" y="551"/>
      <point x="111" y="521" type="curve"/>
      <point x="125" y="523" type="line"/>
      <point x="125" y="557"/>
      <point x="80" y="587"/>
      <point x="41" y="587" type="curve" smooth="yes"/>
      <point x="-1" y="587" type="line" smooth="yes"/>
      <point x="-23" y="587"/>
      <point x="-40" y="572"/>
      <point x="-40" y="552" type="curve" smooth="yes"/>
      <point x="-40" y="531"/>
      <point x="-23" y="515"/>
      <point x="-1" y="515" type="curve" smooth="yes"/>
      <point x="42" y="515" type="line" smooth="yes"/>
      <point x="94" y="515"/>
      <point x="89" y="471"/>
      <point x="89" y="433" type="curve" smooth="yes"/>
      <point x="89" y="241" type="line" smooth="yes"/>
      <point x="89" y="206"/>
      <point x="104" y="193"/>
      <point x="127" y="196" type="curve" smooth="yes"/>
      <point x="150" y="199"/>
      <point x="163" y="209"/>
      <point x="213" y="243" type="curve" smooth="yes"/>
      <point x="270" y="283"/>
      <point x="352" y="338"/>
      <point x="407" y="361" type="curve"/>
      <point x="409" y="381" type="line"/>
      <point x="369" y="349"/>
      <point x="366" y="277"/>
      <point x="366" y="229" type="curve" smooth="yes"/>
      <point x="366" y="160"/>
      <point x="370" y="105"/>
      <point x="371" y="-16" type="curve" smooth="yes"/>
      <point x="371" y="-59"/>
      <point x="388" y="-82"/>
      <point x="414" y="-82" type="curve" smooth="yes"/>
    </contour>
    <contour>
      <point x="421" y="-3" type="line"/>
      <point x="391" y="70"/>
      <point x="274" y="120"/>
      <point x="231" y="119" type="curve"/>
      <point x="226" y="89" type="line"/>
      <point x="415" y="202" type="line"/>
      <point x="415" y="293" type="line"/>
      <point x="177" y="155" type="line" smooth="yes"/>
      <point x="145" y="136"/>
      <point x="134" y="124"/>
      <point x="134" y="104" type="curve" smooth="yes"/>
      <point x="134" y="81"/>
      <point x="150" y="66"/>
      <point x="174" y="62" type="curve" smooth="yes"/>
      <point x="239" y="46"/>
      <point x="362" y="4"/>
      <point x="373" y="-34" type="curve"/>
    </contour>
  </outline>
</glyph>
<glyph name="bDBhRa" format="1">
  <advance width="571"/>
  <outline>
    <contour>
      <point x="419" y="126" type="line"/>
      <point x="417" y="182"/>
      <point x="391" y="238"/>
      <point x="391" y="300" type="curve" smooth="yes"/>
      <point x="391" y="367"/>
      <point x="430" y="407"/>
      <point x="430" y="444" type="curve" smooth="yes"/>
      <point x="430" y="460"/>
      <point x="422" y="480"/>
      <point x="392" y="480" type="curve" smooth="yes"/>
      <point x="350" y="480"/>
      <point x="215" y="408"/>
      <point x="162" y="378" type="curve"/>
      <point x="196" y="368" type="line"/>
      <point x="196" y="436" type="line" smooth="yes"/>
      <point x="196" y="466"/>
      <point x="195" y="515"/>
      <point x="244" y="515" type="curve" smooth="yes"/>
      <point x="549" y="515" type="line" smooth="yes"/>
      <point x="572" y="515"/>
      <point x="589" y="531"/>
      <point x="589" y="552" type="curve" smooth="yes"/>
      <point x="589" y="572"/>
      <point x="572" y="587"/>
      <point x="549" y="587" type="curve" smooth="yes"/>
      <point x="217" y="587" type="line" smooth="yes"/>
      <point x="167" y="587"/>
      <point x="138" y="551"/>
      <point x="137" y="521" type="curve"/>
      <point x="151" y="523" type="line"/>
      <point x="151" y="557"/>
      <point x="106" y="587"/>
      <point x="67" y="587" type="curve" smooth="yes"/>
      <point x="-23" y="587" type="line" smooth="yes"/>
      <point x="-45" y="587"/>
      <point x="-62" y="572"/>
      <point x="-62" y="552" type="curve" smooth="yes"/>
      <point x="-62" y="531"/>
      <point x="-45" y="515"/>
      <point x="-23" y="515" type="curve" smooth="yes"/>
      <point x="68" y="515" type="line" smooth="yes"/>
      <point x="120" y="515"/>
      <point x="115" y="471"/>
      <point x="115" y="433" type="curve" smooth="yes"/>
      <point x="115" y="333" type="line" smooth="yes"/>
      <point x="115" y="300"/>
      <point x="133" y="290"/>
      <point x="147" y="290" type="curve" smooth="yes"/>
      <point x="163" y="290"/>
      <point x="175" y="297"/>
      <point x="215" y="320" type="curve" smooth="yes"/>
      <point x="258" y="347"/>
      <point x="331" y="384"/>
      <point x="380" y="408" type="curve"/>
      <point x="365" y="418" type="line"/>
      <point x="330" y="386"/>
      <point x="322" y="333"/>
      <point x="322" y="296" type="curve" smooth="yes"/>
      <point x="322" y="251"/>
      <point x="351" y="182"/>
      <point x="352" y="116" type="curve"/>
    </contour>
    <contour>
      <point x="519" y="-115"/>
      <point x="527" y="-86"/>
      <point x="527" y="-58" type="curve" smooth="yes"/>
      <point x="527" y="94" type="line" smooth="yes"/>
      <point x="527" y="177"/>
      <point x="504" y="272"/>
      <point x="449" y="272" type="curve" smooth="yes"/>
      <point x="427" y="272"/>
      <point x="412" y="250"/>
      <point x="411" y="226" type="curve" smooth="yes"/>
      <point x="410" y="186"/>
      <point x="368" y="126"/>
      <point x="297" y="126" type="curve" smooth="yes"/>
      <point x="274" y="126"/>
      <point x="240" y="137"/>
      <point x="217" y="151" type="curve"/>
      <point x="187" y="144" type="line"/>
      <point x="198" y="130"/>
      <point x="219" y="118"/>
      <point x="240" y="118" type="curve" smooth="yes"/>
      <point x="300" y="118"/>
      <point x="324" y="162"/>
      <point x="324" y="201" type="curve" smooth="yes"/>
      <point x="324" y="248"/>
      <point x="288" y="289"/>
      <point x="240" y="289" type="curve" smooth="yes"/>
      <point x="196" y="289"/>
      <point x="144" y="257"/>
      <point x="144" y="193" type="curve" smooth="yes"/>
      <point x="144" y="126"/>
      <point x="212" y="54"/>
      <point x="306" y="54" type="curve" smooth="yes"/>
      <point x="412" y="54"/>
      <point x="457" y="156"/>
      <point x="457" y="198" type="curve"/>
      <point x="422" y="178" type="line"/>
      <point x="446" y="159"/>
      <point x="446" y="110"/>
      <point x="446" y="70" type="curve" smooth="yes"/>
      <point x="446" y="-54" type="line"/>
      <point x="461" y="-57" type="line"/>
      <point x="459" y="-4"/>
      <point x="404" y="23"/>
      <point x="353" y="23" type="curve" smooth="yes"/>
      <point x="304" y="23"/>
      <point x="212" y="-2"/>
      <point x="172" y="-2" type="curve" smooth="yes"/>
      <point x="136" y="-2"/>
      <point x="116" y="18"/>
      <point x="116" y="48" type="curve" smooth="yes"/>
      <point x="116" y="68"/>
      <point x="126" y="85"/>
      <point x="126" y="102" type="curve" smooth="yes"/>
      <point x="126" y="121"/>
      <point x="114" y="132"/>
      <point x="95" y="132" type="curve" smooth="yes"/>
      <point x="56" y="132"/>
      <point x="41" y="86"/>
      <point x="41" y="48" type="curve" smooth="yes"/>
      <point x="41" y="-12"/>
      <point x="75" y="-87"/>
      <point x="168" y="-87" type="curve" smooth="yes"/>
      <point x="224" y="-87"/>
      <point x="321" y="-60"/>
      <point x="371" y="-60" type="curve" smooth="yes"/>
      <point x="407" y="-60"/>
      <point x="429" y="-73"/>
      <point x="437" y="-88" type="curve" smooth="yes"/>
      <point x="446" y="-100"/>
      <point x="459" y="-115"/>
      <point x="483" y="-115" type="curve" smooth="yes"/>
    </contour>
    <contour>
      <point x="224" y="161"/>
      <point x="210" y="171"/>
      <point x="210" y="187" type="curve" smooth="yes"/>
      <point x="210" y="204"/>
      <point x="224" y="213"/>
      <point x="237" y="213" type="curve" smooth="yes"/>
      <point x="249" y="213"/>
      <point x="262" y="204"/>
      <point x="262" y="186" type="curve" smooth="yes"/>
      <point x="262" y="168"/>
      <point x="247" y="161"/>
      <point x="237" y="161" type="curve" smooth="yes"/>
    </contour>
  </outline>
</glyph>
<glyph name="bDBha" format="1">
  <advance width="571"/>
  <outline>
    <contour>
      <point x="453" y="126" type="line"/>
      <point x="451" y="182"/>
      <point x="426" y="238"/>
      <point x="426" y="296" type="curve" smooth="yes"/>
      <point x="426" y="367"/>
      <point x="464" y="407"/>
      <point x="464" y="444" type="curve" smooth="yes"/>
      <point x="464" y="460"/>
      <point x="457" y="480"/>
      <point x="427" y="480" type="curve" smooth="yes"/>
      <point x="385" y="480"/>
      <point x="250" y="408"/>
      <point x="196" y="378" type="curve"/>
      <point x="230" y="368" type="line"/>
      <point x="230" y="436" type="line" smooth="yes"/>
      <point x="230" y="466"/>
      <point x="229" y="515"/>
      <point x="279" y="515" type="curve" smooth="yes"/>
      <point x="581" y="515" type="line" smooth="yes"/>
      <point x="603" y="515"/>
      <point x="620" y="531"/>
      <point x="620" y="552" type="curve" smooth="yes"/>
      <point x="620" y="572"/>
      <point x="603" y="587"/>
      <point x="581" y="587" type="curve" smooth="yes"/>
      <point x="252" y="587" type="line" smooth="yes"/>
      <point x="202" y="587"/>
      <point x="172" y="551"/>
      <point x="172" y="521" type="curve"/>
      <point x="185" y="523" type="line"/>
      <point x="185" y="557"/>
      <point x="141" y="587"/>
      <point x="102" y="587" type="curve" smooth="yes"/>
      <point x="-1" y="587" type="line" smooth="yes"/>
      <point x="-23" y="587"/>
      <point x="-40" y="572"/>
      <point x="-40" y="552" type="curve" smooth="yes"/>
      <point x="-40" y="531"/>
      <point x="-23" y="515"/>
      <point x="-1" y="515" type="curve" smooth="yes"/>
      <point x="103" y="515" type="line" smooth="yes"/>
      <point x="154" y="515"/>
      <point x="149" y="471"/>
      <point x="149" y="433" type="curve" smooth="yes"/>
      <point x="149" y="333" type="line" smooth="yes"/>
      <point x="149" y="300"/>
      <point x="167" y="290"/>
      <point x="181" y="290" type="curve" smooth="yes"/>
      <point x="198" y="290"/>
      <point x="209" y="297"/>
      <point x="250" y="320" type="curve" smooth="yes"/>
      <point x="293" y="347"/>
      <point x="365" y="384"/>
      <point x="415" y="408" type="curve"/>
      <point x="400" y="418" type="line"/>
      <point x="368" y="388"/>
      <point x="361" y="337"/>
      <point x="361" y="302" type="curve" smooth="yes"/>
      <point x="361" y="242"/>
      <point x="386" y="203"/>
      <point x="387" y="116" type="curve"/>
    </contour>
    <contour>
      <point x="489" y="-92"/>
      <point x="559" y="16"/>
      <point x="559" y="123" type="curve" smooth="yes"/>
      <point x="559" y="200"/>
      <point x="532" y="272"/>
      <point x="485" y="272" type="curve" smooth="yes"/>
      <point x="463" y="272"/>
      <point x="448" y="250"/>
      <point x="448" y="227" type="curve" smooth="yes"/>
      <point x="447" y="188"/>
      <point x="404" y="127"/>
      <point x="333" y="127" type="curve" smooth="yes"/>
      <point x="309" y="127"/>
      <point x="276" y="137"/>
      <point x="252" y="151" type="curve"/>
      <point x="222" y="144" type="line"/>
      <point x="233" y="130"/>
      <point x="254" y="118"/>
      <point x="276" y="118" type="curve" smooth="yes"/>
      <point x="335" y="118"/>
      <point x="360" y="162"/>
      <point x="360" y="201" type="curve" smooth="yes"/>
      <point x="360" y="248"/>
      <point x="323" y="289"/>
      <point x="276" y="289" type="curve" smooth="yes"/>
      <point x="232" y="289"/>
      <point x="180" y="257"/>
      <point x="180" y="193" type="curve" smooth="yes"/>
      <point x="180" y="126"/>
      <point x="247" y="54"/>
      <point x="342" y="54" type="curve" smooth="yes"/>
      <point x="448" y="54"/>
      <point x="494" y="141"/>
      <point x="494" y="190" type="curve"/>
      <point x="471" y="176" type="line"/>
      <point x="482" y="159"/>
      <point x="487" y="136"/>
      <point x="487" y="114" type="curve" smooth="yes"/>
      <point x="487" y="43"/>
      <point x="429" y="-8"/>
      <point x="341" y="-8" type="curve" smooth="yes"/>
      <point x="155" y="-8"/>
      <point x="90" y="257"/>
      <point x="71" y="386" type="curve" smooth="yes"/>
      <point x="68" y="412"/>
      <point x="56" y="427"/>
      <point x="36" y="427" type="curve" smooth="yes"/>
      <point x="12" y="427"/>
      <point x="4" y="406"/>
      <point x="4" y="389" type="curve" smooth="yes"/>
      <point x="4" y="289"/>
      <point x="68" y="-92"/>
      <point x="340" y="-92" type="curve" smooth="yes"/>
    </contour>
    <contour>
      <point x="259" y="161"/>
      <point x="245" y="171"/>
      <point x="245" y="187" type="curve" smooth="yes"/>
      <point x="245" y="204"/>
      <point x="259" y="213"/>
      <point x="272" y="213" type="curve" smooth="yes"/>
      <point x="284" y="213"/>
      <point x="297" y="204"/>
      <point x="297" y="186" type="curve" smooth="yes"/>
      <point x="297" y="168"/>
      <point x="282" y="161"/>
      <point x="272" y="161" type="curve" smooth="yes"/>
    </contour>
  </outline>
</glyph>
<glyph name="bDDBa" format="1">
  <advance width="692"/>
  <outline>
    <contour>
      <point x="635" y="-140"/>
      <point x="645" y="-113"/>
      <point x="645" y="-91" type="curve" smooth="yes"/>
      <point x="645" y="86"/>
      <point x="629" y="115"/>
      <point x="629" y="188" type="curve" smooth="yes"/>
      <point x="629" y="282"/>
      <point x="658" y="342"/>
      <point x="658" y="379" type="curve" smooth="yes"/>
      <point x="658" y="395"/>
      <point x="651" y="419"/>
      <point x="620" y="419" type="curve" smooth="yes"/>
      <point x="577" y="419"/>
      <point x="467" y="338"/>
      <point x="367" y="243" type="curve"/>
      <point x="401" y="209" type="line"/>
      <point x="401" y="292" type="line" smooth="yes"/>
      <point x="401" y="378"/>
      <point x="434" y="403"/>
      <point x="434" y="436" type="curve" smooth="yes"/>
      <point x="434" y="453"/>
      <point x="426" y="476"/>
      <point x="396" y="476" type="curve" smooth="yes"/>
      <point x="354" y="476"/>
      <point x="241" y="384"/>
      <point x="151" y="283" type="curve"/>
      <point x="170" y="267" type="line"/>
      <point x="170" y="419" type="line" smooth="yes"/>
      <point x="170" y="466"/>
      <point x="168" y="515"/>
      <point x="226" y="515" type="curve" smooth="yes"/>
      <point x="692" y="515" type="line" smooth="yes"/>
      <point x="713" y="515"/>
      <point x="730" y="530"/>
      <point x="730" y="551" type="curve" smooth="yes"/>
      <point x="730" y="572"/>
      <point x="713" y="587"/>
      <point x="692" y="587" type="curve" smooth="yes"/>
      <point x="191" y="587" type="line" smooth="yes"/>
      <point x="136" y="587"/>
      <point x="103" y="550"/>
      <point x="104" y="518" type="curve"/>
      <point x="124" y="521" type="line"/>
      <point x="124" y="555"/>
      <point x="80" y="587"/>
      <point x="41" y="587" type="curve" smooth="yes"/>
      <point x="-1" y="587" type="line" smooth="yes"/>
      <point x="-23" y="587"/>
      <point x="-40" y="572"/>
      <point x="-40" y="551" type="curve" smooth="yes"/>
      <point x="-40" y="531"/>
      <point x="-23" y="515"/>
      <point x="-1" y="515" type="curve" smooth="yes"/>
      <point x="42" y="515" type="line" smooth="yes"/>
      <point x="94" y="515"/>
      <point x="89" y="471"/>
      <point x="89" y="433" type="curve" smooth="yes"/>
      <point x="89" y="178" type="line" smooth="yes"/>
      <point x="89" y="158"/>
      <point x="97" y="142"/>
      <point x="122" y="142" type="curve" smooth="yes"/>
      <point x="153" y="142"/>
      <point x="169" y="172"/>
      <point x="209" y="216" type="curve" smooth="yes"/>
      <point x="251" y="263"/>
      <point x="320" y="333"/>
      <point x="362" y="371" type="curve"/>
      <point x="350" y="374" type="line"/>
      <point x="330" y="350"/>
      <point x="319" y="313"/>
      <point x="319" y="272" type="curve" smooth="yes"/>
      <point x="319" y="196" type="line" smooth="yes"/>
      <point x="319" y="159"/>
      <point x="337" y="146"/>
      <point x="359" y="146" type="curve" smooth="yes"/>
      <point x="382" y="146"/>
      <point x="400" y="167"/>
      <point x="426" y="189" type="curve" smooth="yes"/>
      <point x="493" y="245"/>
      <point x="553" y="292"/>
      <point x="595" y="322" type="curve"/>
      <point x="583" y="329" type="line"/>
      <point x="556" y="291"/>
      <point x="552" y="235"/>
      <point x="552" y="185" type="curve" smooth="yes"/>
      <point x="552" y="114"/>
      <point x="563" y="83"/>
      <point x="564" y="-70" type="curve" smooth="yes"/>
      <point x="564" y="-117"/>
      <point x="582" y="-140"/>
      <point x="609" y="-140" type="curve" smooth="yes"/>
    </contour>
    <contour>
      <point x="618" y="-78" type="line"/>
      <point x="581" y="16"/>
      <point x="475" y="66"/>
      <point x="399" y="66" type="curve"/>
      <point x="424" y="33" type="line"/>
      <point x="603" y="138" type="line"/>
      <point x="603" y="235" type="line"/>
      <point x="375" y="101" type="line" smooth="yes"/>
      <point x="344" y="82"/>
      <point x="334" y="71"/>
      <point x="334" y="51" type="curve" smooth="yes"/>
      <point x="334" y="30"/>
      <point x="350" y="15"/>
      <point x="374" y="9" type="curve" smooth="yes"/>
      <point x="448" y="-14"/>
      <point x="559" y="-47"/>
      <point x="567" y="-96" type="curve"/>
    </contour>
  </outline>
</glyph>
<glyph name="bDDRa" format="1">
  <advance width="692"/>
  <outline>
    <contour>
      <point x="604" y="-117" type="line"/>
      <point x="598" y="-36"/>
      <point x="527" y="-8"/>
      <point x="466" y="-8" type="curve" smooth="yes"/>
      <point x="405" y="-8"/>
      <point x="338" y="-38"/>
      <point x="295" y="-38" type="curve" smooth="yes"/>
      <point x="269" y="-38"/>
      <point x="248" y="-26"/>
      <point x="248" y="1" type="curve" smooth="yes"/>
      <point x="248" y="17"/>
      <point x="255" y="33"/>
      <point x="255" y="47" type="curve" smooth="yes"/>
      <point x="255" y="67"/>
      <point x="242" y="78"/>
      <point x="223" y="78" type="curve" smooth="yes"/>
      <point x="189" y="78"/>
      <point x="173" y="38"/>
      <point x="173" y="0" type="curve" smooth="yes"/>
      <point x="173" y="-58"/>
      <point x="208" y="-117"/>
      <point x="293" y="-117" type="curve" smooth="yes"/>
      <point x="355" y="-117"/>
      <point x="426" y="-83"/>
      <point x="483" y="-83" type="curve" smooth="yes"/>
      <point x="536" y="-83"/>
      <point x="564" y="-105"/>
      <point x="564" y="-138" type="curve"/>
    </contour>
    <contour>
      <point x="633" y="-188"/>
      <point x="645" y="-162"/>
      <point x="645" y="-138" type="curve" smooth="yes"/>
      <point x="645" y="-69" type="line" smooth="yes"/>
      <point x="645" y="7"/>
      <point x="629" y="99"/>
      <point x="629" y="156" type="curve" smooth="yes"/>
      <point x="629" y="244"/>
      <point x="658" y="312"/>
      <point x="658" y="349" type="curve" smooth="yes"/>
      <point x="658" y="365"/>
      <point x="651" y="389"/>
      <point x="620" y="389" type="curve" smooth="yes"/>
      <point x="577" y="389"/>
      <point x="466" y="287"/>
      <point x="373" y="184" type="curve"/>
      <point x="402" y="167" type="line"/>
      <point x="400" y="270" type="line" smooth="yes"/>
      <point x="399" y="348"/>
      <point x="434" y="397"/>
      <point x="434" y="436" type="curve" smooth="yes"/>
      <point x="434" y="453"/>
      <point x="426" y="476"/>
      <point x="396" y="476" type="curve" smooth="yes"/>
      <point x="354" y="476"/>
      <point x="241" y="377"/>
      <point x="151" y="276" type="curve"/>
      <point x="170" y="260" type="line"/>
      <point x="170" y="419" type="line" smooth="yes"/>
      <point x="170" y="466"/>
      <point x="168" y="515"/>
      <point x="226" y="515" type="curve" smooth="yes"/>
      <point x="692" y="515" type="line" smooth="yes"/>
      <point x="714" y="515"/>
      <point x="731" y="531"/>
      <point x="731" y="552" type="curve" smooth="yes"/>
      <point x="731" y="572"/>
      <point x="714" y="587"/>
      <point x="692" y="587" type="curve" smooth="yes"/>
      <point x="191" y="587" type="line" smooth="yes"/>
      <point x="141" y="587"/>
      <point x="111" y="550"/>
      <point x="112" y="518" type="curve"/>
      <point x="124" y="521" type="line"/>
      <point x="124" y="555"/>
      <point x="79" y="587"/>
      <point x="39" y="587" type="curve" smooth="yes"/>
      <point x="-1" y="587" type="line" smooth="yes"/>
      <point x="-23" y="587"/>
      <point x="-40" y="572"/>
      <point x="-40" y="552" type="curve" smooth="yes"/>
      <point x="-40" y="531"/>
      <point x="-23" y="515"/>
      <point x="-1" y="515" type="curve" smooth="yes"/>
      <point x="42" y="515" type="line" smooth="yes"/>
      <point x="94" y="515"/>
      <point x="89" y="471"/>
      <point x="89" y="433" type="curve" smooth="yes"/>
      <point x="89" y="170" type="line" smooth="yes"/>
      <point x="89" y="150"/>
      <point x="97" y="135"/>
      <point x="122" y="135" type="curve" smooth="yes"/>
      <point x="153" y="135"/>
      <point x="169" y="165"/>
      <point x="209" y="209" type="curve" smooth="yes"/>
      <point x="251" y="255"/>
      <point x="320" y="332"/>
      <point x="362" y="371" type="curve"/>
      <point x="350" y="374" type="line"/>
      <point x="330" y="345"/>
      <point x="319" y="289"/>
      <point x="319" y="236" type="curve" smooth="yes"/>
      <point x="319" y="83" type="line" smooth="yes"/>
      <point x="319" y="63"/>
      <point x="328" y="47"/>
      <point x="351" y="47" type="curve" smooth="yes"/>
      <point x="382" y="47"/>
      <point x="398" y="76"/>
      <point x="437" y="122" type="curve" smooth="yes"/>
      <point x="477" y="171"/>
      <point x="552" y="250"/>
      <point x="595" y="292" type="curve"/>
      <point x="583" y="299" type="line"/>
      <point x="556" y="261"/>
      <point x="552" y="205"/>
      <point x="552" y="159" type="curve" smooth="yes"/>
      <point x="552" y="97"/>
      <point x="564" y="6"/>
      <point x="564" y="-69" type="curve" smooth="yes"/>
      <point x="564" y="-138" type="line" smooth="yes"/>
      <point x="564" y="-162"/>
      <point x="580" y="-188"/>
      <point x="606" y="-188" type="curve" smooth="yes"/>
    </contour>
  </outline>
</glyph>
<glyph name="bDDa" format="1">
  <advance width="692"/>
  <outline>
    <contour>
      <point x="635" y="-112"/>
      <point x="645" y="-88"/>
      <point x="645" y="-44" type="curve" smooth="yes"/>
      <point x="645" y="41"/>
      <point x="629" y="97"/>
      <point x="629" y="156" type="curve" smooth="yes"/>
      <point x="629" y="244"/>
      <point x="658" y="312"/>
      <point x="658" y="349" type="curve" smooth="yes"/>
      <point x="658" y="365"/>
      <point x="651" y="389"/>
      <point x="620" y="389" type="curve" smooth="yes"/>
      <point x="577" y="389"/>
      <point x="466" y="287"/>
      <point x="373" y="184" type="curve"/>
      <point x="402" y="167" type="line"/>
      <point x="400" y="270" type="line" smooth="yes"/>
      <point x="399" y="348"/>
      <point x="434" y="397"/>
      <point x="434" y="436" type="curve" smooth="yes"/>
      <point x="434" y="453"/>
      <point x="426" y="476"/>
      <point x="396" y="476" type="curve" smooth="yes"/>
      <point x="354" y="476"/>
      <point x="241" y="377"/>
      <point x="151" y="276" type="curve"/>
      <point x="170" y="260" type="line"/>
      <point x="170" y="419" type="line" smooth="yes"/>
      <point x="170" y="466"/>
      <point x="168" y="515"/>
      <point x="226" y="515" type="curve" smooth="yes"/>
      <point x="692" y="515" type="line" smooth="yes"/>
      <point x="714" y="515"/>
      <point x="731" y="531"/>
      <point x="731" y="552" type="curve" smooth="yes"/>
      <point x="731" y="572"/>
      <point x="714" y="587"/>
      <point x="692" y="587" type="curve" smooth="yes"/>
      <point x="191" y="587" type="line" smooth="yes"/>
      <point x="141" y="587"/>
      <point x="111" y="550"/>
      <point x="112" y="518" type="curve"/>
      <point x="124" y="521" type="line"/>
      <point x="124" y="555"/>
      <point x="79" y="587"/>
      <point x="39" y="587" type="curve" smooth="yes"/>
      <point x="-1" y="587" type="line" smooth="yes"/>
      <point x="-23" y="587"/>
      <point x="-40" y="572"/>
      <point x="-40" y="552" type="curve" smooth="yes"/>
      <point x="-40" y="531"/>
      <point x="-23" y="515"/>
      <point x="-1" y="515" type="curve" smooth="yes"/>
      <point x="42" y="515" type="line" smooth="yes"/>
      <point x="94" y="515"/>
      <point x="89" y="471"/>
      <point x="89" y="433" type="curve" smooth="yes"/>
      <point x="89" y="170" type="line" smooth="yes"/>
      <point x="89" y="150"/>
      <point x="97" y="135"/>
      <point x="122" y="135" type="curve" smooth="yes"/>
      <point x="153" y="135"/>
      <point x="169" y="165"/>
      <point x="209" y="209" type="curve" smooth="yes"/>
      <point x="251" y="255"/>
      <point x="320" y="332"/>
      <point x="362" y="371" type="curve"/>
      <point x="350" y="374" type="line"/>
      <point x="330" y="345"/>
      <point x="319" y="289"/>
      <point x="319" y="236" type="curve" smooth="yes"/>
      <point x="319" y="83" type="line" smooth="yes"/>
      <point x="319" y="63"/>
      <point x="328" y="47"/>
      <point x="351" y="47" type="curve" smooth="yes"/>
      <point x="382" y="47"/>
      <point x="398" y="76"/>
      <point x="437" y="122" type="curve" smooth="yes"/>
      <point x="477" y="171"/>
      <point x="552" y="250"/>
      <point x="595" y="292" type="curve"/>
      <point x="583" y="299" type="line"/>
      <point x="556" y="261"/>
      <point x="552" y="205"/>
      <point x="552" y="159" type="curve" smooth="yes"/>
      <point x="552" y="97"/>
      <point x="564" y="41"/>
      <point x="564" y="-44" type="curve" smooth="yes"/>
      <point x="564" y="-88"/>
      <point x="581" y="-112"/>
      <point x="608" y="-112" type="curve" smooth="yes"/>
    </contour>
  </outline>
</glyph>
<glyph name="bDDhBa" format="1">
  <advance width="663"/>
  <outline>
    <contour>
      <point x="441" y="-135"/>
      <point x="452" y="-108"/>
      <point x="452" y="-68" type="curve" smooth="yes"/>
      <point x="452" y="83"/>
      <point x="446" y="162"/>
      <point x="446" y="263" type="curve" smooth="yes"/>
      <point x="446" y="350"/>
      <point x="466" y="402"/>
      <point x="466" y="439" type="curve" smooth="yes"/>
      <point x="466" y="455"/>
      <point x="459" y="475"/>
      <point x="429" y="475" type="curve" smooth="yes"/>
      <point x="387" y="475"/>
      <point x="264" y="412"/>
      <point x="145" y="328" type="curve"/>
      <point x="170" y="310" type="line"/>
      <point x="170" y="419" type="line" smooth="yes"/>
      <point x="170" y="466"/>
      <point x="169" y="515"/>
      <point x="218" y="515" type="curve" smooth="yes"/>
      <point x="663" y="515" type="line" smooth="yes"/>
      <point x="685" y="515"/>
      <point x="702" y="531"/>
      <point x="702" y="552" type="curve" smooth="yes"/>
      <point x="702" y="572"/>
      <point x="685" y="587"/>
      <point x="663" y="587" type="curve" smooth="yes"/>
      <point x="191" y="587" type="line" smooth="yes"/>
      <point x="141" y="587"/>
      <point x="112" y="551"/>
      <point x="111" y="521" type="curve"/>
      <point x="125" y="523" type="line"/>
      <point x="125" y="557"/>
      <point x="80" y="587"/>
      <point x="41" y="587" type="curve" smooth="yes"/>
      <point x="-1" y="587" type="line" smooth="yes"/>
      <point x="-23" y="587"/>
      <point x="-40" y="572"/>
      <point x="-40" y="552" type="curve" smooth="yes"/>
      <point x="-40" y="531"/>
      <point x="-23" y="515"/>
      <point x="-1" y="515" type="curve" smooth="yes"/>
      <point x="42" y="515" type="line" smooth="yes"/>
      <point x="94" y="515"/>
      <point x="89" y="471"/>
      <point x="89" y="433" type="curve" smooth="yes"/>
      <point x="89" y="268" type="line" smooth="yes"/>
      <point x="89" y="234"/>
      <point x="104" y="220"/>
      <point x="127" y="223" type="curve" smooth="yes"/>
      <point x="150" y="226"/>
      <point x="163" y="236"/>
      <point x="213" y="270" type="curve" smooth="yes"/>
      <point x="270" y="311"/>
      <point x="352" y="366"/>
      <point x="407" y="390" type="curve"/>
      <point x="409" y="409" type="line"/>
      <point x="371" y="377"/>
      <point x="368" y="310"/>
      <point x="368" y="256" type="curve" smooth="yes"/>
      <point x="368" y="165"/>
      <point x="371" y="85"/>
      <point x="371" y="-68" type="curve" smooth="yes"/>
      <point x="371" y="-112"/>
      <point x="388" y="-135"/>
      <point x="414" y="-135" type="curve" smooth="yes"/>
    </contour>
    <contour>
      <point x="423" y="-69" type="line"/>
      <point x="388" y="-2"/>
      <point x="318" y="30"/>
      <point x="242" y="30" type="curve"/>
      <point x="241" y="3" type="line"/>
      <point x="390" y="83" type="line"/>
      <point x="392" y="166" type="line"/>
      <point x="222" y="67" type="line" smooth="yes"/>
      <point x="190" y="49"/>
      <point x="179" y="34"/>
      <point x="179" y="15" type="curve" smooth="yes"/>
      <point x="179" y="-7"/>
      <point x="195" y="-20"/>
      <point x="219" y="-24" type="curve" smooth="yes"/>
      <point x="270" y="-34"/>
      <point x="364" y="-50"/>
      <point x="376" y="-99" type="curve"/>
    </contour>
    <contour>
      <point x="342" y="108" type="line"/>
      <point x="319" y="130"/>
      <point x="246" y="156"/>
      <point x="207" y="156" type="curve"/>
      <point x="224" y="122" type="line"/>
      <point x="568" y="317" type="line"/>
      <point x="573" y="337" type="line"/>
      <point x="537" y="313"/>
      <point x="528" y="257"/>
      <point x="528" y="212" type="curve" smooth="yes"/>
      <point x="528" y="-26" type="line" smooth="yes"/>
      <point x="528" y="-54"/>
      <point x="546" y="-76"/>
      <point x="569" y="-76" type="curve" smooth="yes"/>
      <point x="592" y="-76"/>
      <point x="609" y="-54"/>
      <point x="609" y="-25" type="curve" smooth="yes"/>
      <point x="609" y="225" type="line" smooth="yes"/>
      <point x="609" y="334"/>
      <point x="636" y="362"/>
      <point x="636" y="398" type="curve" smooth="yes"/>
      <point x="636" y="417"/>
      <point x="626" y="429"/>
      <point x="611" y="429" type="curve" smooth="yes"/>
      <point x="597" y="429"/>
      <point x="579" y="421"/>
      <point x="553" y="406" type="curve" smooth="yes"/>
      <point x="177" y="192" type="line" smooth="yes"/>
      <point x="145" y="174"/>
      <point x="136" y="161"/>
      <point x="136" y="142" type="curve" smooth="yes"/>
      <point x="136" y="121"/>
      <point x="152" y="105"/>
      <point x="176" y="100" type="curve" smooth="yes"/>
      <point x="200" y="94"/>
      <point x="241" y="88"/>
      <point x="275" y="71" type="curve"/>
    </contour>
  </outline>
</glyph>
<glyph name="bDDha" format="1">
  <advance width="663"/>
  <outline>
    <contour>
      <point x="441" y="-126"/>
      <point x="452" y="-99"/>
      <point x="452" y="-59" type="curve" smooth="yes"/>
      <point x="452" y="55"/>
      <point x="445" y="144"/>
      <point x="445" y="233" type="curve" smooth="yes"/>
      <point x="445" y="314"/>
      <point x="466" y="374"/>
      <point x="466" y="411" type="curve" smooth="yes"/>
      <point x="466" y="428"/>
      <point x="459" y="448"/>
      <point x="429" y="448" type="curve" smooth="yes"/>
      <point x="387" y="448"/>
      <point x="264" y="384"/>
      <point x="145" y="300" type="curve"/>
      <point x="170" y="282" type="line"/>
      <point x="170" y="419" type="line" smooth="yes"/>
      <point x="170" y="466"/>
      <point x="169" y="515"/>
      <point x="218" y="515" type="curve" smooth="yes"/>
      <point x="663" y="515" type="line" smooth="yes"/>
      <point x="685" y="515"/>
      <point x="702" y="531"/>
      <point x="702" y="552" type="curve" smooth="yes"/>
      <point x="702" y="572"/>
      <point x="685" y="587"/>
      <point x="663" y="587" type="curve" smooth="yes"/>
      <point x="191" y="587" type="line" smooth="yes"/>
      <point x="141" y="587"/>
      <point x="112" y="551"/>
      <point x="111" y="521" type="curve"/>
      <point x="125" y="523" type="line"/>
      <point x="125" y="557"/>
      <point x="80" y="587"/>
      <point x="41" y="587" type="curve" smooth="yes"/>
      <point x="-1" y="587" type="line" smooth="yes"/>
      <point x="-23" y="587"/>
      <point x="-40" y="572"/>
      <point x="-40" y="552" type="curve" smooth="yes"/>
      <point x="-40" y="531"/>
      <point x="-23" y="515"/>
      <point x="-1" y="515" type="curve" smooth="yes"/>
      <point x="42" y="515" type="line" smooth="yes"/>
      <point x="94" y="515"/>
      <point x="89" y="471"/>
      <point x="89" y="433" type="curve" smooth="yes"/>
      <point x="89" y="241" type="line" smooth="yes"/>
      <point x="89" y="206"/>
      <point x="104" y="193"/>
      <point x="127" y="196" type="curve" smooth="yes"/>
      <point x="150" y="199"/>
      <point x="163" y="209"/>
      <point x="213" y="243" type="curve" smooth="yes"/>
      <point x="270" y="283"/>
      <point x="352" y="338"/>
      <point x="407" y="362" type="curve"/>
      <point x="409" y="381" type="line"/>
      <point x="369" y="349"/>
      <point x="366" y="277"/>
      <point x="366" y="229" type="curve" smooth="yes"/>
      <point x="366" y="146"/>
      <point x="370" y="62"/>
      <point x="371" y="-59" type="curve" smooth="yes"/>
      <point x="371" y="-103"/>
      <point x="388" y="-126"/>
      <point x="414" y="-126" type="curve" smooth="yes"/>
    </contour>
    <contour>
      <point x="592" y="-76"/>
      <point x="609" y="-54"/>
      <point x="609" y="-25" type="curve" smooth="yes"/>
      <point x="609" y="180" type="line" smooth="yes"/>
      <point x="609" y="289"/>
      <point x="636" y="317"/>
      <point x="636" y="353" type="curve" smooth="yes"/>
      <point x="636" y="372"/>
      <point x="626" y="384"/>
      <point x="611" y="384" type="curve" smooth="yes"/>
      <point x="597" y="384"/>
      <point x="579" y="376"/>
      <point x="553" y="361" type="curve" smooth="yes"/>
      <point x="177" y="147" type="line" smooth="yes"/>
      <point x="145" y="129"/>
      <point x="136" y="116"/>
      <point x="136" y="97" type="curve" smooth="yes"/>
      <point x="136" y="76"/>
      <point x="152" y="60"/>
      <point x="176" y="55" type="curve" smooth="yes"/>
      <point x="246" y="38"/>
      <point x="366" y="-19"/>
      <point x="372" y="-77" type="curve"/>
      <point x="424" y="-40" type="line"/>
      <point x="391" y="50"/>
      <point x="294" y="111"/>
      <point x="216" y="111" type="curve"/>
      <point x="224" y="77" type="line"/>
      <point x="568" y="272" type="line"/>
      <point x="573" y="292" type="line"/>
      <point x="537" y="268"/>
      <point x="528" y="212"/>
      <point x="528" y="167" type="curve" smooth="yes"/>
      <point x="528" y="-26" type="line" smooth="yes"/>
      <point x="528" y="-54"/>
      <point x="546" y="-76"/>
      <point x="569" y="-76" type="curve" smooth="yes"/>
    </contour>
  </outline>
</glyph>
